<?xml version="1.0" standalone="no"?>
<!DOCTYPE svg PUBLIC "-//W3C//DTD SVG 1.1//EN" "http://www.w3.org/Graphics/SVG/1.1/DTD/svg11.dtd" >
<svg>
<metadata>
Created by FontForge 20090622 at Thu Jun 27 23:41:43 2019
 By deploy user
Copyright 2012 The Arsenal Project Authors (andrij.design@gmail.com)
</metadata>
<defs>
<font id="Arsenal-BoldItalic" horiz-adv-x="542" >
  <font-face 
    font-family="Arsenal"
    font-weight="700"
    font-style="italic"
    font-stretch="normal"
    units-per-em="1000"
    panose-1="0 0 8 0 0 0 0 0 0 0"
    ascent="800"
    descent="-200"
    x-height="500"
    cap-height="650"
    bbox="-467 -390 1849 1037"
    underline-thickness="50"
    underline-position="0"
    slope="-9.10001"
    unicode-range="U+000D-U+FB02"
  />
<missing-glyph horiz-adv-x="619" 
d="M318 418h-78l-11 -90h-97l22 178h175zM454 506h175l-22 -178h-96l10 90h-78zM203 116h78l-11 -88h-175l23 178h96zM406 116h79l11 90h97l-23 -178h-175z" />
    <glyph glyph-name="f_f" unicode="ff" horiz-adv-x="647" 
d="M273 423l-63 -452q-17 -122 -72 -177t-137 -55q-28 0 -48 6.5t-30 14.5t-10 9l30 60q2 -1 9 -6t18.5 -9t23.5 -4q32 0 51.5 35.5t31.5 125.5l64 452h-49l9 60l50 14l11 74q14 92 61 140.5t146 48.5q61 0 156 -43q46 43 122 43q25 0 48.5 -7.5t39 -15.5t19.5 -11l-25 -57
q-3 2 -14 7.5t-26 11t-27 5.5q-19 0 -30.5 -10t-21 -39.5t-17.5 -87.5l-8 -56h125l-11 -77h-125l-64 -452q-17 -122 -72 -177t-137 -55q-28 0 -48 6.5t-30 14.5t-10 9l30 60q2 -1 9 -6t18.5 -9t23.5 -4q32 0 51.5 35.5t31.5 125.5l64 452h-168zM451 500l11 71q8 57 26 94
q-34 12 -58.5 19t-43.5 7q-32 0 -49 -11t-27 -38.5t-18 -85.5l-8 -56h167z" />
    <glyph glyph-name="fi" unicode="fi" horiz-adv-x="571" 
d="M494 709q23 19 54 19t49 -19q15 -20 15 -45q0 -19 -8 -37.5t-23 -32.5q-25 -19 -55 -19q-32 0 -49 20q-16 17 -16 45q0 7 2 19q-41 32 -78 32q-29 0 -46 -11t-27.5 -39.5t-18.5 -84.5l-8 -56h127l-11 -77h-127l-64 -452q-17 -122 -72 -177t-137 -55q-28 0 -48 6.5
t-30 14.5t-10 9l30 60q2 -1 9 -6t18.5 -9t23.5 -4q32 0 51.5 35.5t31.5 125.5l64 452h-47l9 60l48 14l11 74q14 91 61.5 140t144.5 49q62 0 126 -51zM512 0h-133l70 500h133z" />
    <glyph glyph-name="fl" unicode="fl" horiz-adv-x="580" 
d="M388 0l92 658q-75 35 -112 35q-21 0 -34.5 -11.5t-23 -41t-17.5 -84.5l-8 -56h125l-11 -77h-125l-64 -452q-17 -122 -72 -177t-137 -55q-28 0 -48 6.5t-30 14.5t-10 9l30 60q2 -1 9 -6t18.5 -9t23.5 -4q32 0 51.5 35.5t31.5 125.5l64 452h-49l9 60l50 14l11 74
q13 87 59.5 138t118.5 51q67 0 150 -34l3 20l134 8l-106 -754h-133z" />
    <glyph glyph-name=".notdef" horiz-adv-x="619" 
d="M318 418h-78l-11 -90h-97l22 178h175zM454 506h175l-22 -178h-96l10 90h-78zM203 116h78l-11 -88h-175l23 178h96zM406 116h79l11 90h97l-23 -178h-175z" />
    <glyph glyph-name="NULL" horiz-adv-x="0" 
 />
    <glyph glyph-name="NULL" horiz-adv-x="0" 
 />
    <glyph glyph-name="nonmarkingreturn" unicode="&#xd;" horiz-adv-x="255" 
 />
    <glyph glyph-name="space" unicode=" " horiz-adv-x="255" 
 />
    <glyph glyph-name="A" unicode="A" horiz-adv-x="608" 
d="M479 650l111 -650h-146l-30 182h-226l-85 -182h-84l307 650h153zM356 551l-140 -306h188l-47 306h-1z" />
    <glyph glyph-name="Aacute" unicode="&#xc1;" horiz-adv-x="608" 
d="M546 834l-139 -130l-56 9l91 152zM479 650l111 -650h-146l-30 182h-226l-85 -182h-84l307 650h153zM356 551l-140 -306h188l-47 306h-1z" />
    <glyph glyph-name="Abreve" unicode="&#x102;" horiz-adv-x="608" 
d="M467 783q20 12 27.5 25.5t7.5 17.5l1 4l65 -9q0 -10 -12 -39t-49.5 -56.5t-106.5 -27.5q-78 0 -105.5 34t-27.5 73q0 6 0.5 10.5t0.5 5.5l67 9v-4q0 -15 13 -35t63 -20q36 0 56 12zM479 650l111 -650h-146l-30 182h-226l-85 -182h-84l307 650h153zM356 551l-140 -306h188
l-47 306h-1z" />
    <glyph glyph-name="uni1EAE" unicode="&#x1eae;" horiz-adv-x="608" 
d="M479 650l111 -650h-146l-30 182h-226l-85 -182h-84l307 650h153zM356 551l-140 -306h188l-47 306h-1zM464 798q20 12 27.5 25.5t7.5 17.5l1 4l65 -9q0 -10 -12 -39t-49.5 -56.5t-106.5 -27.5q-78 0 -105.5 34t-27.5 73q0 6 0.5 10.5t0.5 5.5l67 9v-4q0 -15 13 -35t63 -20
q36 0 56 12zM568 978l-139 -130l-56 9l91 152z" />
    <glyph glyph-name="uni1EB6" unicode="&#x1eb6;" horiz-adv-x="608" 
d="M479 650l111 -650h-146l-30 182h-226l-85 -182h-84l307 650h153zM356 551l-140 -306h188l-47 306h-1zM250 -82q26 0 43 -18q14 -16 14 -38q0 -35 -28 -60q-23 -17 -48 -17q-28 0 -43 17q-14 17 -14 39q0 16 7.5 31.5t20.5 27.5q21 18 48 18zM464 798q20 12 27.5 25.5
t7.5 17.5l1 4l65 -9q0 -10 -12 -39t-49.5 -56.5t-106.5 -27.5q-78 0 -105.5 34t-27.5 73q0 6 0.5 10.5t0.5 5.5l67 9v-4q0 -15 13 -35t63 -20q36 0 56 12z" />
    <glyph glyph-name="uni1EB0" unicode="&#x1eb0;" horiz-adv-x="608" 
d="M479 650l111 -650h-146l-30 182h-226l-85 -182h-84l307 650h153zM356 551l-140 -306h188l-47 306h-1zM464 798q20 12 27.5 25.5t7.5 17.5l1 4l65 -9q0 -10 -12 -39t-49.5 -56.5t-106.5 -27.5q-78 0 -105.5 34t-27.5 73q0 6 0.5 10.5t0.5 5.5l67 9v-4q0 -15 13 -35t63 -20
q36 0 56 12zM406 1026l64 -147l-64 -17l-111 129z" />
    <glyph glyph-name="uni1EB2" unicode="&#x1eb2;" horiz-adv-x="608" 
d="M479 650l111 -650h-146l-30 182h-226l-85 -182h-84l307 650h153zM356 551l-140 -306h188l-47 306h-1zM464 798q20 12 27.5 25.5t7.5 17.5l1 4l65 -9q0 -10 -12 -39t-49.5 -56.5t-106.5 -27.5q-78 0 -105.5 34t-27.5 73q0 6 0.5 10.5t0.5 5.5l67 9v-4q0 -15 13 -35t63 -20
q36 0 56 12zM385 869q1 7 5.5 12t10 9t7.5 6q12 8 18.5 14.5t8.5 17.5q1 5 1 12q0 28 -33 28q-12 0 -22.5 -4t-17 -8t-7.5 -5l-22 57q3 2 14.5 7.5t29.5 11t38 5.5q93 0 93 -68q0 -15 -2 -24q-4 -19 -14 -30.5t-28 -26.5q-2 -2 -8.5 -7t-10 -9.5t-4.5 -9.5l-2 -8l-58 -1
q0 3 3 21z" />
    <glyph glyph-name="uni1EB4" unicode="&#x1eb4;" horiz-adv-x="608" 
d="M479 650l111 -650h-146l-30 182h-226l-85 -182h-84l307 650h153zM356 551l-140 -306h188l-47 306h-1zM464 798q20 12 27.5 25.5t7.5 17.5l1 4l65 -9q0 -10 -12 -39t-49.5 -56.5t-106.5 -27.5q-78 0 -105.5 34t-27.5 73q0 6 0.5 10.5t0.5 5.5l67 9v-4q0 -15 13 -35t63 -20
q36 0 56 12zM606 940.5q-15 -20.5 -42 -38t-66 -17.5q-22 0 -38 6t-41 19q-20 11 -35.5 17t-34.5 6q-16 0 -30 -10t-22.5 -21t-10.5 -14l-31 36q0 3 18.5 26.5t48.5 43.5t68 20q26 0 44 -6.5t42 -19.5q19 -11 31.5 -16t28.5 -5t28 7t18.5 15t7.5 10l31 -35q0 -3 -15 -23.5z
" />
    <glyph glyph-name="Acircumflex" unicode="&#xc2;" horiz-adv-x="608" 
d="M534 766l-34 -45l-92 85l-117 -85l-22 45l115 122h70zM479 650l111 -650h-146l-30 182h-226l-85 -182h-84l307 650h153zM356 551l-140 -306h188l-47 306h-1z" />
    <glyph glyph-name="uni1EA4" unicode="&#x1ea4;" horiz-adv-x="608" 
d="M479 650l111 -650h-146l-30 182h-226l-85 -182h-84l307 650h153zM356 551l-140 -306h188l-47 306h-1zM541 744l-34 -45l-92 85l-117 -85l-22 45l115 122h70zM725 914l-139 -130l-56 9l91 152z" />
    <glyph glyph-name="uni1EAC" unicode="&#x1eac;" horiz-adv-x="608" 
d="M479 650l111 -650h-146l-30 182h-226l-85 -182h-84l307 650h153zM356 551l-140 -306h188l-47 306h-1zM250 -82q26 0 43 -18q14 -16 14 -38q0 -35 -28 -60q-23 -17 -48 -17q-28 0 -43 17q-14 17 -14 39q0 16 7.5 31.5t20.5 27.5q21 18 48 18zM541 744l-34 -45l-92 85
l-117 -85l-22 45l115 122h70z" />
    <glyph glyph-name="uni1EA6" unicode="&#x1ea6;" horiz-adv-x="608" 
d="M479 650l111 -650h-146l-30 182h-226l-85 -182h-84l307 650h153zM356 551l-140 -306h188l-47 306h-1zM541 744l-34 -45l-92 85l-117 -85l-22 45l115 122h70zM538 1013l64 -147l-64 -17l-111 129z" />
    <glyph glyph-name="uni1EA8" unicode="&#x1ea8;" horiz-adv-x="608" 
d="M479 650l111 -650h-146l-30 182h-226l-85 -182h-84l307 650h153zM356 551l-140 -306h188l-47 306h-1zM541 744l-34 -45l-92 85l-117 -85l-22 45l115 122h70zM543 833q1 7 5.5 12t10 9t7.5 6q12 8 18.5 14.5t8.5 17.5q1 5 1 12q0 28 -33 28q-12 0 -22.5 -4t-17 -8t-7.5 -5
l-22 57q3 2 14.5 7.5t29.5 11t38 5.5q93 0 93 -68q0 -15 -2 -24q-4 -19 -14 -30.5t-28 -26.5q-2 -2 -8.5 -7t-10 -9.5t-4.5 -9.5l-2 -8l-58 -1q0 3 3 21z" />
    <glyph glyph-name="uni1EAA" unicode="&#x1eaa;" horiz-adv-x="608" 
d="M479 650l111 -650h-146l-30 182h-226l-85 -182h-84l307 650h153zM356 551l-140 -306h188l-47 306h-1zM541 744l-34 -45l-92 85l-117 -85l-22 45l115 122h70zM620 963.5q-15 -20.5 -42 -38t-66 -17.5q-22 0 -38 6t-41 19q-20 11 -35.5 17t-34.5 6q-16 0 -30 -10t-22.5 -21
t-10.5 -14l-31 36q0 3 18.5 26.5t48.5 43.5t68 20q26 0 44 -6.5t42 -19.5q19 -11 31.5 -16t28.5 -5t28 7t18.5 15t7.5 10l31 -35q0 -3 -15 -23.5z" />
    <glyph glyph-name="Adieresis" unicode="&#xc4;" horiz-adv-x="608" 
d="M324 856q26 0 43 -17q14 -19 14 -41q0 -37 -29 -63q-22 -18 -48 -18t-43 18q-14 17 -14 41q0 17 7.5 33.5t20.5 29.5q22 17 49 17zM509 856q25 0 44 -17q14 -19 14 -41q0 -37 -29 -63q-22 -18 -49 -18t-42 18q-14 17 -14 41q0 17 7.5 33.5t20.5 29.5q22 17 48 17z
M479 650l111 -650h-146l-30 182h-226l-85 -182h-84l307 650h153zM356 551l-140 -306h188l-47 306h-1z" />
    <glyph glyph-name="uni1EA0" unicode="&#x1ea0;" horiz-adv-x="608" 
d="M479 650l111 -650h-146l-30 182h-226l-85 -182h-84l307 650h153zM356 551l-140 -306h188l-47 306h-1zM250 -82q26 0 43 -18q14 -16 14 -38q0 -35 -28 -60q-23 -17 -48 -17q-28 0 -43 17q-14 17 -14 39q0 16 7.5 31.5t20.5 27.5q21 18 48 18z" />
    <glyph glyph-name="Agrave" unicode="&#xc0;" horiz-adv-x="608" 
d="M386 873l64 -147l-64 -17l-111 129zM479 650l111 -650h-146l-30 182h-226l-85 -182h-84l307 650h153zM356 551l-140 -306h188l-47 306h-1z" />
    <glyph glyph-name="uni1EA2" unicode="&#x1ea2;" horiz-adv-x="608" 
d="M479 650l111 -650h-146l-30 182h-226l-85 -182h-84l307 650h153zM356 551l-140 -306h188l-47 306h-1zM379 729q1 7 5.5 12t10 9t7.5 6q12 8 18.5 14.5t8.5 17.5q1 5 1 12q0 28 -33 28q-12 0 -22.5 -4t-17 -8t-7.5 -5l-22 57q3 2 14.5 7.5t29.5 11t38 5.5q93 0 93 -68
q0 -15 -2 -24q-4 -19 -14 -30.5t-28 -26.5q-2 -2 -8.5 -7t-10 -9.5t-4.5 -9.5l-2 -8l-58 -1q0 3 3 21z" />
    <glyph glyph-name="Amacron" unicode="&#x100;" horiz-adv-x="608" 
d="M513 759h-215l8 58h214zM479 650l111 -650h-146l-30 182h-226l-85 -182h-84l307 650h153zM356 551l-140 -306h188l-47 306h-1z" />
    <glyph glyph-name="Aogonek" unicode="&#x104;" horiz-adv-x="608" 
d="M590 0h-82q-32 -16 -60.5 -52t-28.5 -96q0 -30 17.5 -41.5t51.5 -11.5l-7 -49q-70 0 -110 21t-40 77q0 48 33 87.5t79 66.5l-29 180h-226l-85 -182h-84l307 650h153zM356 551l-140 -306h188l-47 306h-1z" />
    <glyph glyph-name="Aring" unicode="&#xc5;" horiz-adv-x="608" 
d="M480.5 717q-33.5 -34 -85.5 -34q-43 0 -68 24t-25 67q0 57 33.5 90.5t85.5 33.5q41 0 67 -24.5t26 -66.5q0 -56 -33.5 -90zM454 842.5q-15 13.5 -38 13.5q-30 0 -49 -19.5t-19 -56.5q0 -26 14.5 -40t38.5 -14q31 0 49.5 20t18.5 57q0 26 -15 39.5zM479 650l111 -650h-146
l-30 182h-226l-85 -182h-84l307 650h153zM356 551l-140 -306h188l-47 306h-1z" />
    <glyph glyph-name="Atilde" unicode="&#xc3;" horiz-adv-x="608" 
d="M580 781.5q-15 -20.5 -42 -38t-66 -17.5q-22 0 -38 6t-41 19q-20 11 -35.5 17t-34.5 6q-16 0 -30 -10t-22.5 -21t-10.5 -14l-31 36q0 3 18.5 26.5t48.5 43.5t68 20q26 0 44 -6.5t42 -19.5q19 -11 31.5 -16t28.5 -5t28 7t18.5 15t7.5 10l31 -35q0 -3 -15 -23.5zM479 650
l111 -650h-146l-30 182h-226l-85 -182h-84l307 650h153zM356 551l-140 -306h188l-47 306h-1z" />
    <glyph glyph-name="AE" unicode="&#xc6;" horiz-adv-x="822" 
d="M865 650l-9 -72h-252l-30 -214h222l-10 -70h-222l-31 -222h266l-11 -72h-403l26 188h-210l-128 -188h-87l453 650h426zM420 252l46 326h-7l-215 -326h176z" />
    <glyph glyph-name="B" unicode="B" horiz-adv-x="569" 
d="M366 650q105 0 156.5 -41.5t51.5 -105.5q0 -58 -34 -99t-85 -65q49 -16 77.5 -48.5t28.5 -80.5q0 -59 -32 -107t-95.5 -75.5t-153.5 -27.5h-203l91 650h198zM388.5 377.5q21.5 16.5 36 47t14.5 72.5q0 45 -23 66.5t-62 21.5h-56l-32 -224h82q19 0 40.5 16.5zM224 65h62
q61 0 99 42.5t38 111.5q0 43 -20.5 62.5t-55.5 19.5h-90z" />
    <glyph glyph-name="C" unicode="C" horiz-adv-x="576" 
d="M561 548.5q-25 12.5 -61 24.5t-69 12q-93 0 -149.5 -82t-56.5 -261q0 -91 39.5 -134.5t110.5 -43.5q48 0 85.5 20t61 43t23.5 26l36 -48q0 -5 -28.5 -34.5t-81 -55.5t-126.5 -26q-129 0 -199 71t-70 196q0 117 43 208.5t121.5 143.5t183.5 52q46 0 88.5 -12t72 -27
t29.5 -16l-21 -73q-7 4 -32 16.5z" />
    <glyph glyph-name="Cacute" unicode="&#x106;" horiz-adv-x="576" 
d="M562 834l-139 -130l-56 9l91 152zM561 548.5q-25 12.5 -61 24.5t-69 12q-93 0 -149.5 -82t-56.5 -261q0 -91 39.5 -134.5t110.5 -43.5q48 0 85.5 20t61 43t23.5 26l36 -48q0 -5 -28.5 -34.5t-81 -55.5t-126.5 -26q-129 0 -199 71t-70 196q0 117 43 208.5t121.5 143.5
t183.5 52q46 0 88.5 -12t72 -27t29.5 -16l-21 -73q-7 4 -32 16.5z" />
    <glyph glyph-name="Ccaron" unicode="&#x10c;" horiz-adv-x="576" 
d="M286 845l47 35l95 -93l121 93l37 -39l-134 -134h-70zM561 548.5q-25 12.5 -61 24.5t-69 12q-93 0 -149.5 -82t-56.5 -261q0 -91 39.5 -134.5t110.5 -43.5q48 0 85.5 20t61 43t23.5 26l36 -48q0 -5 -28.5 -34.5t-81 -55.5t-126.5 -26q-129 0 -199 71t-70 196
q0 117 43 208.5t121.5 143.5t183.5 52q46 0 88.5 -12t72 -27t29.5 -16l-21 -73q-7 4 -32 16.5z" />
    <glyph glyph-name="Ccedilla" unicode="&#xc7;" horiz-adv-x="576" 
d="M561 548.5q-25 12.5 -61 24.5t-69 12q-93 0 -149.5 -82t-56.5 -261q0 -91 39.5 -134.5t110.5 -43.5q48 0 85.5 20t61 43t23.5 26l36 -48q0 -5 -28.5 -34.5t-80.5 -55.5t-126 -26l-10 -47q0 -1 20.5 -9t38 -25t17.5 -47q0 -49 -33.5 -80.5t-96.5 -31.5q-33 0 -52.5 10
t-28 21.5t-8.5 14.5l30 29q1 -2 6.5 -9t16.5 -13.5t27 -6.5q60 0 60 63q0 20 -13.5 28.5t-27 11.5t-13.5 4l23 89q-109 11 -167.5 81t-58.5 184q0 117 43 208.5t121.5 143.5t183.5 52q46 0 88.5 -12t72 -27t29.5 -16l-21 -73q-7 4 -32 16.5z" />
    <glyph glyph-name="D" unicode="D" horiz-adv-x="647" 
d="M592 583.5q70 -66.5 70 -196.5q0 -183 -93.5 -285t-269.5 -102h-222l91 650h221q133 0 203 -66.5zM225 71h85q204 0 204 342q0 86 -33 126t-102 40h-83z" />
    <glyph glyph-name="Eth" unicode="&#xd0;" horiz-adv-x="658" 
d="M592 583.5q70 -66.5 70 -196.5q0 -183 -93.5 -285t-269.5 -102h-222l40 289h-55l9 66h55l42 295h221q133 0 203 -66.5zM264 355h143l-9 -66h-143l-30 -218h85q204 0 204 342q0 86 -33 126t-102 40h-83z" />
    <glyph glyph-name="Dcaron" unicode="&#x10e;" horiz-adv-x="658" 
d="M261 845l47 35l95 -93l121 93l37 -39l-134 -134h-70zM592 583.5q70 -66.5 70 -196.5q0 -183 -93.5 -285t-269.5 -102h-222l91 650h221q133 0 203 -66.5zM225 71h85q204 0 204 342q0 86 -33 126t-102 40h-83z" />
    <glyph glyph-name="Dcroat" unicode="&#x110;" horiz-adv-x="658" 
d="M592 583.5q70 -66.5 70 -196.5q0 -183 -93.5 -285t-269.5 -102h-222l40 289h-55l9 66h55l42 295h221q133 0 203 -66.5zM264 355h143l-9 -66h-143l-30 -218h85q204 0 204 342q0 86 -33 126t-102 40h-83z" />
    <glyph glyph-name="E" unicode="E" horiz-adv-x="524" 
d="M481 0h-404l91 650h390l-10 -72h-252l-30 -214h223l-11 -70h-221l-31 -222h265z" />
    <glyph glyph-name="Eacute" unicode="&#xc9;" horiz-adv-x="524" 
d="M529 834l-139 -130l-56 9l91 152zM481 0h-404l91 650h390l-10 -72h-252l-30 -214h223l-11 -70h-221l-31 -222h265z" />
    <glyph glyph-name="Ecaron" unicode="&#x11a;" horiz-adv-x="524" 
d="M248 845l47 35l95 -93l121 93l37 -39l-134 -134h-70zM481 0h-404l91 650h390l-10 -72h-252l-30 -214h223l-11 -70h-221l-31 -222h265z" />
    <glyph glyph-name="Ecircumflex" unicode="&#xca;" horiz-adv-x="524" 
d="M518 766l-34 -45l-92 85l-117 -85l-22 45l115 122h70zM481 0h-404l91 650h390l-10 -72h-252l-30 -214h223l-11 -70h-221l-31 -222h265z" />
    <glyph glyph-name="uni1EBE" unicode="&#x1ebe;" horiz-adv-x="524" 
d="M481 0h-404l91 650h390l-10 -72h-252l-30 -214h223l-11 -70h-221l-31 -222h265zM528 744l-34 -45l-92 85l-117 -85l-22 45l115 122h70zM712 914l-139 -130l-56 9l91 152z" />
    <glyph glyph-name="uni1EC6" unicode="&#x1ec6;" horiz-adv-x="524" 
d="M481 0h-404l91 650h390l-10 -72h-252l-30 -214h223l-11 -70h-221l-31 -222h265zM208 -82q26 0 43 -18q14 -16 14 -38q0 -35 -28 -60q-23 -17 -48 -17q-28 0 -43 17q-14 17 -14 39q0 16 7.5 31.5t20.5 27.5q21 18 48 18zM528 744l-34 -45l-92 85l-117 -85l-22 45l115 122
h70z" />
    <glyph glyph-name="uni1EC0" unicode="&#x1ec0;" horiz-adv-x="524" 
d="M481 0h-404l91 650h390l-10 -72h-252l-30 -214h223l-11 -70h-221l-31 -222h265zM528 744l-34 -45l-92 85l-117 -85l-22 45l115 122h70zM525 1013l64 -147l-64 -17l-111 129z" />
    <glyph glyph-name="uni1EC2" unicode="&#x1ec2;" horiz-adv-x="524" 
d="M481 0h-404l91 650h390l-10 -72h-252l-30 -214h223l-11 -70h-221l-31 -222h265zM528 744l-34 -45l-92 85l-117 -85l-22 45l115 122h70zM530 833q1 7 5.5 12t10 9t7.5 6q12 8 18.5 14.5t8.5 17.5q1 5 1 12q0 28 -33 28q-12 0 -22.5 -4t-17 -8t-7.5 -5l-22 57q3 2 14.5 7.5
t29.5 11t38 5.5q93 0 93 -68q0 -15 -2 -24q-4 -19 -14 -30.5t-28 -26.5q-2 -2 -8.5 -7t-10 -9.5t-4.5 -9.5l-2 -8l-58 -1q0 3 3 21z" />
    <glyph glyph-name="uni1EC4" unicode="&#x1ec4;" horiz-adv-x="524" 
d="M481 0h-404l91 650h390l-10 -72h-252l-30 -214h223l-11 -70h-221l-31 -222h265zM528 744l-34 -45l-92 85l-117 -85l-22 45l115 122h70zM607 963.5q-15 -20.5 -42 -38t-66 -17.5q-22 0 -38 6t-41 19q-20 11 -35.5 17t-34.5 6q-16 0 -30 -10t-22.5 -21t-10.5 -14l-31 36
q0 3 18.5 26.5t48.5 43.5t68 20q26 0 44 -6.5t42 -19.5q19 -11 31.5 -16t28.5 -5t28 7t18.5 15t7.5 10l31 -35q0 -3 -15 -23.5z" />
    <glyph glyph-name="Edieresis" unicode="&#xcb;" horiz-adv-x="524" 
d="M292 856q26 0 43 -17q14 -19 14 -41q0 -37 -29 -63q-22 -18 -48 -18q-27 0 -43 18q-14 17 -14 41q0 17 7.5 33.5t20.5 29.5q22 17 49 17zM477 856q25 0 44 -17q14 -19 14 -41q0 -37 -29 -63q-22 -18 -49 -18t-42 18q-14 17 -14 41q0 17 7.5 33.5t20.5 29.5q22 17 48 17z
M481 0h-404l91 650h390l-10 -72h-252l-30 -214h223l-11 -70h-221l-31 -222h265z" />
    <glyph glyph-name="Edotaccent" unicode="&#x116;" horiz-adv-x="524" 
d="M394 863q31 0 49 -19q15 -19 15 -45q0 -19 -8 -37.5t-23 -32.5q-25 -19 -55 -19q-32 0 -49 20q-16 17 -16 45q0 18 8.5 36.5t23.5 31.5q23 20 55 20zM481 0h-404l91 650h390l-10 -72h-252l-30 -214h223l-11 -70h-221l-31 -222h265z" />
    <glyph glyph-name="uni1EB8" unicode="&#x1eb8;" horiz-adv-x="524" 
d="M481 0h-404l91 650h390l-10 -72h-252l-30 -214h223l-11 -70h-221l-31 -222h265zM208 -82q26 0 43 -18q14 -16 14 -38q0 -35 -28 -60q-23 -17 -48 -17q-28 0 -43 17q-14 17 -14 39q0 16 7.5 31.5t20.5 27.5q21 18 48 18z" />
    <glyph glyph-name="Egrave" unicode="&#xc8;" horiz-adv-x="524" 
d="M369 873l64 -147l-64 -17l-111 129zM481 0h-404l91 650h390l-10 -72h-252l-30 -214h223l-11 -70h-221l-31 -222h265z" />
    <glyph glyph-name="uni1EBA" unicode="&#x1eba;" horiz-adv-x="524" 
d="M481 0h-404l91 650h390l-10 -72h-252l-30 -214h223l-11 -70h-221l-31 -222h265zM366 729q1 7 5.5 12t10 9t7.5 6q12 8 18.5 14.5t8.5 17.5q1 5 1 12q0 28 -33 28q-12 0 -22.5 -4t-17 -8t-7.5 -5l-22 57q3 2 14.5 7.5t29.5 11t38 5.5q93 0 93 -68q0 -15 -2 -24
q-4 -19 -14 -30.5t-28 -26.5q-2 -2 -8.5 -7t-10 -9.5t-4.5 -9.5l-2 -8l-58 -1q0 3 3 21z" />
    <glyph glyph-name="Emacron" unicode="&#x112;" horiz-adv-x="524" 
d="M494 759h-215l8 58h214zM481 0h-404l91 650h390l-10 -72h-252l-30 -214h223l-11 -70h-221l-31 -222h265z" />
    <glyph glyph-name="Eogonek" unicode="&#x118;" horiz-adv-x="524" 
d="M463 0q-32 -16 -60.5 -52t-28.5 -96q0 -30 17.5 -41.5t51.5 -11.5l-7 -49q-70 0 -110 21t-40 77q0 47 31.5 85.5t76.5 66.5h-317l91 650h390l-10 -72h-252l-30 -214h223l-11 -70h-221l-31 -222h265l-10 -72h-18z" />
    <glyph glyph-name="uni1EBC" unicode="&#x1ebc;" horiz-adv-x="524" 
d="M481 0h-404l91 650h390l-10 -72h-252l-30 -214h223l-11 -70h-221l-31 -222h265zM574 796.5q-15 -20.5 -42 -38t-66 -17.5q-22 0 -38 6t-41 19q-20 11 -35.5 17t-34.5 6q-16 0 -30 -10t-22.5 -21t-10.5 -14l-31 36q0 3 18.5 26.5t48.5 43.5t68 20q26 0 44 -6.5t42 -19.5
q19 -11 31.5 -16t28.5 -5t28 7t18.5 15t7.5 10l31 -35q0 -3 -15 -23.5z" />
    <glyph glyph-name="F" unicode="F" horiz-adv-x="488" 
d="M476 268h-223l-38 -268h-138l91 650h395l-10 -72h-257l-33 -240h223z" />
    <glyph glyph-name="G" unicode="G" horiz-adv-x="625" 
d="M505 0l-27 58q-63 -69 -165 -69q-115 0 -176 69t-61 196q0 122 43 214t123 142t187 50q46 0 89 -12t73.5 -27t30.5 -16l-24 -73q-7 4 -32 16.5t-61 24.5t-69 12q-211 0 -211 -343q0 -91 32 -134.5t91 -43.5q53 0 81.5 28.5t39.5 59.5l17 123h-101l10 68h218l-48 -343h-60
z" />
    <glyph glyph-name="Gbreve" unicode="&#x11e;" horiz-adv-x="625" 
d="M496 783q20 12 27.5 25.5t7.5 17.5l1 4l65 -9q0 -10 -12 -39t-49.5 -56.5t-106.5 -27.5q-78 0 -105.5 34t-27.5 73q0 6 0.5 10.5t0.5 5.5l67 9v-4q0 -15 13 -35t63 -20q36 0 56 12zM505 0l-27 58q-63 -69 -165 -69q-115 0 -176 69t-61 196q0 122 43 214t123 142t187 50
q46 0 89 -12t73.5 -27t30.5 -16l-24 -73q-7 4 -32 16.5t-61 24.5t-69 12q-211 0 -211 -343q0 -91 32 -134.5t91 -43.5q53 0 81.5 28.5t39.5 59.5l17 123h-101l10 68h218l-48 -343h-60z" />
    <glyph glyph-name="Gcommaaccent" unicode="&#x122;" horiz-adv-x="625" 
d="M505 0l-27 58q-63 -69 -165 -69q-115 0 -176 69t-61 196q0 122 43 214t123 142t187 50q46 0 89 -12t73.5 -27t30.5 -16l-24 -73q-7 4 -32 16.5t-61 24.5t-69 12q-211 0 -211 -343q0 -91 32 -134.5t91 -43.5q53 0 81.5 28.5t39.5 59.5l17 123h-101l10 68h218l-48 -343h-60
zM334 -46q25 0 41 -16q20 -24 20 -61q0 -54 -38 -116.5t-93 -99.5l-25 31q40 32 61.5 68t22.5 70h-7q-24 0 -40 16q-13 16 -13 36q0 15 6.5 30t19.5 26q19 16 45 16z" />
    <glyph glyph-name="H" unicode="H" horiz-adv-x="655" 
d="M578 0h-138l41 296h-225l-41 -296h-138l91 650h138l-40 -284h225l40 284h138z" />
    <glyph glyph-name="I" unicode="I" horiz-adv-x="293" 
d="M215 0h-138l91 650h138z" />
    <glyph glyph-name="Iacute" unicode="&#xcd;" horiz-adv-x="293" 
d="M384 834l-139 -130l-56 9l91 152zM215 0h-138l91 650h138z" />
    <glyph glyph-name="Icircumflex" unicode="&#xce;" horiz-adv-x="293" 
d="M374 766l-34 -45l-92 85l-117 -85l-22 45l115 122h70zM215 0h-138l91 650h138z" />
    <glyph glyph-name="Idieresis" unicode="&#xcf;" horiz-adv-x="293" 
d="M162 856q26 0 43 -17q14 -19 14 -41q0 -37 -29 -63q-22 -18 -48 -18t-43 18q-14 17 -14 41q0 17 7.5 33.5t20.5 29.5q22 17 49 17zM347 856q25 0 44 -17q14 -19 14 -41q0 -37 -29 -63q-22 -18 -49 -18t-42 18q-14 17 -14 41q0 17 7.5 33.5t20.5 29.5q22 17 48 17zM215 0
h-138l91 650h138z" />
    <glyph glyph-name="Idotaccent" unicode="&#x130;" horiz-adv-x="293" 
d="M259 863q31 0 49 -19q15 -19 15 -45q0 -19 -8 -37.5t-23 -32.5q-25 -19 -55 -19q-32 0 -49 20q-16 17 -16 45q0 18 8.5 36.5t23.5 31.5q23 20 55 20zM215 0h-138l91 650h138z" />
    <glyph glyph-name="uni1ECA" unicode="&#x1eca;" horiz-adv-x="293" 
d="M215 0h-138l91 650h138zM134 -82q26 0 43 -18q14 -16 14 -38q0 -35 -28 -60q-23 -17 -48 -17q-28 0 -43 17q-14 17 -14 39q0 16 7.5 31.5t20.5 27.5q21 18 48 18z" />
    <glyph glyph-name="Igrave" unicode="&#xcc;" horiz-adv-x="293" 
d="M224 873l64 -147l-64 -17l-111 129zM215 0h-138l91 650h138z" />
    <glyph glyph-name="uni1EC8" unicode="&#x1ec8;" horiz-adv-x="293" 
d="M215 0h-138l91 650h138zM220 729q1 7 5.5 12t10 9t7.5 6q12 8 18.5 14.5t8.5 17.5q1 5 1 12q0 28 -33 28q-12 0 -22.5 -4t-17 -8t-7.5 -5l-22 57q3 2 14.5 7.5t29.5 11t38 5.5q93 0 93 -68q0 -15 -2 -24q-4 -19 -14 -30.5t-28 -26.5q-2 -2 -8.5 -7t-10 -9.5t-4.5 -9.5
l-2 -8l-58 -1q0 3 3 21z" />
    <glyph glyph-name="Imacron" unicode="&#x12a;" horiz-adv-x="293" 
d="M353 759h-215l8 58h214zM215 0h-138l91 650h138z" />
    <glyph glyph-name="Iogonek" unicode="&#x12e;" horiz-adv-x="293" 
d="M139 0q-33 -16 -61 -52t-28 -96q0 -30 17.5 -41.5t51.5 -11.5l-7 -49q-70 0 -110 21t-40 77q0 49 33.5 88.5t81.5 67.5l91 646h138l-91 -650h-76z" />
    <glyph glyph-name="Itilde" unicode="&#x128;" horiz-adv-x="293" 
d="M215 0h-138l91 650h138zM428 796.5q-15 -20.5 -42 -38t-66 -17.5q-22 0 -38 6t-41 19q-20 11 -35.5 17t-34.5 6q-16 0 -30 -10t-22.5 -21t-10.5 -14l-31 36q0 3 18.5 26.5t48.5 43.5t68 20q26 0 44 -6.5t42 -19.5q19 -11 31.5 -16t28.5 -5t28 7t18.5 15t7.5 10l31 -35
q0 -3 -15 -23.5z" />
    <glyph glyph-name="J" unicode="J" horiz-adv-x="384" 
d="M49.5 78.5q8.5 -6.5 24 -12.5t34.5 -6q38 0 62 33t37 121l61 436h139l-62 -436q-17 -124 -67.5 -174.5t-140.5 -50.5q-39 0 -65.5 9t-41 19t-14.5 12l23 58q2 -2 10.5 -8.5z" />
    <glyph glyph-name="K" unicode="K" horiz-adv-x="619" 
d="M168 650h138l-43 -302l66 44l227 258h96l-233 -254l188 -396h-175l-133 292l-48 -30l-36 -262h-138z" />
    <glyph glyph-name="Kcommaaccent" unicode="&#x136;" horiz-adv-x="626" 
d="M168 650h138l-43 -302l66 44l227 258h96l-233 -254l188 -396h-175l-133 292l-48 -30l-36 -262h-138zM314 -46q25 0 41 -16q20 -24 20 -61q0 -54 -38 -116.5t-93 -99.5l-25 31q40 32 61.5 68t22.5 70h-7q-24 0 -40 16q-13 16 -13 36q0 15 6.5 30t19.5 26q19 16 45 16z" />
    <glyph glyph-name="L" unicode="L" horiz-adv-x="479" 
d="M467 0h-390l91 650h138l-81 -578h252z" />
    <glyph glyph-name="Lacute" unicode="&#x139;" horiz-adv-x="491" 
d="M400 834l-139 -130l-56 9l91 152zM467 0h-390l91 650h138l-81 -578h252z" />
    <glyph glyph-name="Lcaron" unicode="&#x13d;" horiz-adv-x="491" 
d="M116 845l47 35l95 -93l121 93l37 -39l-134 -134h-70zM467 0h-390l91 650h138l-81 -578h252z" />
    <glyph glyph-name="Lcommaaccent" unicode="&#x13b;" horiz-adv-x="491" 
d="M467 0h-390l91 650h138l-81 -578h252zM270 -46q25 0 41 -16q20 -24 20 -61q0 -54 -38 -116.5t-93 -99.5l-25 31q40 32 61.5 68t22.5 70h-7q-24 0 -40 16q-13 16 -13 36q0 15 6.5 30t19.5 26q19 16 45 16z" />
    <glyph glyph-name="Lslash" unicode="&#x141;" horiz-adv-x="514" 
d="M501 0h-390l30 217l-52 -35l-26 42l87 58l52 368h138l-37 -266l109 73l27 -42l-146 -97l-34 -246h252z" />
    <glyph glyph-name="M" unicode="M" horiz-adv-x="856" 
d="M779 0h-135l61 492h-2l-250 -492h-103l-112 492h-3l-72 -492h-86l99 650h167l115 -479h4l246 479h155z" />
    <glyph glyph-name="N" unicode="N" horiz-adv-x="651" 
d="M574 0h-108l-241 488h-2v-58l-60 -430h-86l91 650h143l211 -441h3l-1 45l55 396h86z" />
    <glyph glyph-name="Nacute" unicode="&#x143;" horiz-adv-x="651" 
d="M593 834l-139 -130l-56 9l91 152zM574 0h-108l-241 488h-2v-58l-60 -430h-86l91 650h143l211 -441h3l-1 45l55 396h86z" />
    <glyph glyph-name="Ncaron" unicode="&#x147;" horiz-adv-x="651" 
d="M327 845l47 35l95 -93l121 93l37 -39l-134 -134h-70zM574 0h-108l-241 488h-2v-58l-60 -430h-86l91 650h143l211 -441h3l-1 45l55 396h86z" />
    <glyph glyph-name="Ncommaaccent" unicode="&#x145;" horiz-adv-x="651" 
d="M574 0h-108l-241 488h-2v-58l-60 -430h-86l91 650h143l211 -441h3l-1 45l55 396h86zM318 -46q25 0 41 -16q20 -24 20 -61q0 -54 -38 -116.5t-93 -99.5l-25 31q40 32 61.5 68t22.5 70h-7q-24 0 -40 16q-13 16 -13 36q0 15 6.5 30t19.5 26q19 16 45 16z" />
    <glyph glyph-name="Ntilde" unicode="&#xd1;" horiz-adv-x="651" 
d="M614 781.5q-15 -20.5 -42 -38t-66 -17.5q-22 0 -38 6t-41 19q-20 11 -35.5 17t-34.5 6q-16 0 -30 -10t-22.5 -21t-10.5 -14l-31 36q0 3 18.5 26.5t48.5 43.5t68 20q26 0 44 -6.5t42 -19.5q19 -11 31.5 -16t28.5 -5t28 7t18.5 15t7.5 10l31 -35q0 -3 -15 -23.5zM574 0
h-108l-241 488h-2v-58l-60 -430h-86l91 650h143l211 -441h3l-1 45l55 396h86z" />
    <glyph glyph-name="O" unicode="O" horiz-adv-x="663" 
d="M632 180.5q-45 -91.5 -123 -141.5t-174 -50q-123 0 -191 72t-68 198q0 117 40 208t116.5 142t183.5 51q132 0 196.5 -75t64.5 -193q0 -120 -45 -211.5zM500 542.5q-30 45.5 -91 45.5q-187 0 -187 -363q0 -77 31 -121t89 -44q85 0 136.5 86t51.5 275q0 76 -30 121.5z" />
    <glyph glyph-name="Oacute" unicode="&#xd3;" horiz-adv-x="663" 
d="M569 834l-139 -130l-56 9l91 152zM632 180.5q-45 -91.5 -123 -141.5t-174 -50q-123 0 -191 72t-68 198q0 117 40 208t116.5 142t183.5 51q132 0 196.5 -75t64.5 -193q0 -120 -45 -211.5zM500 542.5q-30 45.5 -91 45.5q-187 0 -187 -363q0 -77 31 -121t89 -44
q85 0 136.5 86t51.5 275q0 76 -30 121.5z" />
    <glyph glyph-name="Ocircumflex" unicode="&#xd4;" horiz-adv-x="663" 
d="M559 766l-34 -45l-92 85l-117 -85l-22 45l115 122h70zM632 180.5q-45 -91.5 -123 -141.5t-174 -50q-123 0 -191 72t-68 198q0 117 40 208t116.5 142t183.5 51q132 0 196.5 -75t64.5 -193q0 -120 -45 -211.5zM500 542.5q-30 45.5 -91 45.5q-187 0 -187 -363q0 -77 31 -121
t89 -44q85 0 136.5 86t51.5 275q0 76 -30 121.5z" />
    <glyph glyph-name="uni1ED0" unicode="&#x1ed0;" horiz-adv-x="663" 
d="M632 180.5q-45 -91.5 -123 -141.5t-174 -50q-123 0 -191 72t-68 198q0 117 40 208t116.5 142t183.5 51q132 0 196.5 -75t64.5 -193q0 -120 -45 -211.5zM500 542.5q-30 45.5 -91 45.5q-187 0 -187 -363q0 -77 31 -121t89 -44q85 0 136.5 86t51.5 275q0 76 -30 121.5z
M565 744l-34 -45l-92 85l-117 -85l-22 45l115 122h70zM749 914l-139 -130l-56 9l91 152z" />
    <glyph glyph-name="uni1ED8" unicode="&#x1ed8;" horiz-adv-x="663" 
d="M632 180.5q-45 -91.5 -123 -141.5t-174 -50q-123 0 -191 72t-68 198q0 117 40 208t116.5 142t183.5 51q132 0 196.5 -75t64.5 -193q0 -120 -45 -211.5zM500 542.5q-30 45.5 -91 45.5q-187 0 -187 -363q0 -77 31 -121t89 -44q85 0 136.5 86t51.5 275q0 76 -30 121.5z
M318 -82q26 0 43 -18q14 -16 14 -38q0 -35 -28 -60q-23 -17 -48 -17q-28 0 -43 17q-14 17 -14 39q0 16 7.5 31.5t20.5 27.5q21 18 48 18zM565 744l-34 -45l-92 85l-117 -85l-22 45l115 122h70z" />
    <glyph glyph-name="uni1ED2" unicode="&#x1ed2;" horiz-adv-x="663" 
d="M632 180.5q-45 -91.5 -123 -141.5t-174 -50q-123 0 -191 72t-68 198q0 117 40 208t116.5 142t183.5 51q132 0 196.5 -75t64.5 -193q0 -120 -45 -211.5zM500 542.5q-30 45.5 -91 45.5q-187 0 -187 -363q0 -77 31 -121t89 -44q85 0 136.5 86t51.5 275q0 76 -30 121.5z
M565 744l-34 -45l-92 85l-117 -85l-22 45l115 122h70zM562 1013l64 -147l-64 -17l-111 129z" />
    <glyph glyph-name="uni1ED4" unicode="&#x1ed4;" horiz-adv-x="663" 
d="M632 180.5q-45 -91.5 -123 -141.5t-174 -50q-123 0 -191 72t-68 198q0 117 40 208t116.5 142t183.5 51q132 0 196.5 -75t64.5 -193q0 -120 -45 -211.5zM500 542.5q-30 45.5 -91 45.5q-187 0 -187 -363q0 -77 31 -121t89 -44q85 0 136.5 86t51.5 275q0 76 -30 121.5z
M565 744l-34 -45l-92 85l-117 -85l-22 45l115 122h70zM567 833q1 7 5.5 12t10 9t7.5 6q12 8 18.5 14.5t8.5 17.5q1 5 1 12q0 28 -33 28q-12 0 -22.5 -4t-17 -8t-7.5 -5l-22 57q3 2 14.5 7.5t29.5 11t38 5.5q93 0 93 -68q0 -15 -2 -24q-4 -19 -14 -30.5t-28 -26.5
q-2 -2 -8.5 -7t-10 -9.5t-4.5 -9.5l-2 -8l-58 -1q0 3 3 21z" />
    <glyph glyph-name="uni1ED6" unicode="&#x1ed6;" horiz-adv-x="663" 
d="M632 180.5q-45 -91.5 -123 -141.5t-174 -50q-123 0 -191 72t-68 198q0 117 40 208t116.5 142t183.5 51q132 0 196.5 -75t64.5 -193q0 -120 -45 -211.5zM500 542.5q-30 45.5 -91 45.5q-187 0 -187 -363q0 -77 31 -121t89 -44q85 0 136.5 86t51.5 275q0 76 -30 121.5z
M565 744l-34 -45l-92 85l-117 -85l-22 45l115 122h70zM644 963.5q-15 -20.5 -42 -38t-66 -17.5q-22 0 -38 6t-41 19q-20 11 -35.5 17t-34.5 6q-16 0 -30 -10t-22.5 -21t-10.5 -14l-31 36q0 3 18.5 26.5t48.5 43.5t68 20q26 0 44 -6.5t42 -19.5q19 -11 31.5 -16t28.5 -5t28 7
t18.5 15t7.5 10l31 -35q0 -3 -15 -23.5z" />
    <glyph glyph-name="Odieresis" unicode="&#xd6;" horiz-adv-x="663" 
d="M347 856q26 0 43 -17q14 -19 14 -41q0 -37 -29 -63q-22 -18 -48 -18q-27 0 -43 18q-14 17 -14 41q0 17 7.5 33.5t20.5 29.5q22 17 49 17zM532 856q25 0 44 -17q14 -19 14 -41q0 -37 -29 -63q-22 -18 -49 -18t-42 18q-14 17 -14 41q0 17 7.5 33.5t20.5 29.5q22 17 48 17z
M632 180.5q-45 -91.5 -123 -141.5t-174 -50q-123 0 -191 72t-68 198q0 117 40 208t116.5 142t183.5 51q132 0 196.5 -75t64.5 -193q0 -120 -45 -211.5zM500 542.5q-30 45.5 -91 45.5q-187 0 -187 -363q0 -77 31 -121t89 -44q85 0 136.5 86t51.5 275q0 76 -30 121.5z" />
    <glyph glyph-name="uni1ECC" unicode="&#x1ecc;" horiz-adv-x="663" 
d="M632 180.5q-45 -91.5 -123 -141.5t-174 -50q-123 0 -191 72t-68 198q0 117 40 208t116.5 142t183.5 51q132 0 196.5 -75t64.5 -193q0 -120 -45 -211.5zM500 542.5q-30 45.5 -91 45.5q-187 0 -187 -363q0 -77 31 -121t89 -44q85 0 136.5 86t51.5 275q0 76 -30 121.5z
M318 -82q26 0 43 -18q14 -16 14 -38q0 -35 -28 -60q-23 -17 -48 -17q-28 0 -43 17q-14 17 -14 39q0 16 7.5 31.5t20.5 27.5q21 18 48 18z" />
    <glyph glyph-name="Ograve" unicode="&#xd2;" horiz-adv-x="663" 
d="M409 873l64 -147l-64 -17l-111 129zM632 180.5q-45 -91.5 -123 -141.5t-174 -50q-123 0 -191 72t-68 198q0 117 40 208t116.5 142t183.5 51q132 0 196.5 -75t64.5 -193q0 -120 -45 -211.5zM500 542.5q-30 45.5 -91 45.5q-187 0 -187 -363q0 -77 31 -121t89 -44
q85 0 136.5 86t51.5 275q0 76 -30 121.5z" />
    <glyph glyph-name="uni1ECE" unicode="&#x1ece;" horiz-adv-x="663" 
d="M632 180.5q-45 -91.5 -123 -141.5t-174 -50q-123 0 -191 72t-68 198q0 117 40 208t116.5 142t183.5 51q132 0 196.5 -75t64.5 -193q0 -120 -45 -211.5zM500 542.5q-30 45.5 -91 45.5q-187 0 -187 -363q0 -77 31 -121t89 -44q85 0 136.5 86t51.5 275q0 76 -30 121.5z
M403 729q1 7 5.5 12t10 9t7.5 6q12 8 18.5 14.5t8.5 17.5q1 5 1 12q0 28 -33 28q-12 0 -22.5 -4t-17 -8t-7.5 -5l-22 57q3 2 14.5 7.5t29.5 11t38 5.5q93 0 93 -68q0 -15 -2 -24q-4 -19 -14 -30.5t-28 -26.5q-2 -2 -8.5 -7t-10 -9.5t-4.5 -9.5l-2 -8l-58 -1q0 3 3 21z" />
    <glyph glyph-name="Ohorn" unicode="&#x1a0;" horiz-adv-x="663" 
d="M653.5 520q23.5 -58 23.5 -128q0 -120 -45 -211.5t-123 -141.5t-174 -50q-123 0 -191 72t-68 198q0 117 40 208t116.5 142t183.5 51q48 0 84 -10q32 2 53.5 23t30.5 66h87q-8 -41 -31.5 -74t-58.5 -52q49 -35 72.5 -93zM478.5 146q51.5 86 51.5 275q0 76 -30 121.5
t-91 45.5q-187 0 -187 -363q0 -77 31 -121t89 -44q85 0 136.5 86z" />
    <glyph glyph-name="uni1EDA" unicode="&#x1eda;" horiz-adv-x="663" 
d="M653.5 520q23.5 -58 23.5 -128q0 -120 -45 -211.5t-123 -141.5t-174 -50q-123 0 -191 72t-68 198q0 117 40 208t116.5 142t183.5 51q48 0 84 -10q32 2 53.5 23t30.5 66h87q-8 -41 -31.5 -74t-58.5 -52q49 -35 72.5 -93zM478.5 146q51.5 86 51.5 275q0 76 -30 121.5
t-91 45.5q-187 0 -187 -363q0 -77 31 -121t89 -44q85 0 136.5 86zM539 849l-139 -130l-56 9l91 152z" />
    <glyph glyph-name="uni1EE2" unicode="&#x1ee2;" horiz-adv-x="663" 
d="M653.5 520q23.5 -58 23.5 -128q0 -120 -45 -211.5t-123 -141.5t-174 -50q-123 0 -191 72t-68 198q0 117 40 208t116.5 142t183.5 51q48 0 84 -10q32 2 53.5 23t30.5 66h87q-8 -41 -31.5 -74t-58.5 -52q49 -35 72.5 -93zM478.5 146q51.5 86 51.5 275q0 76 -30 121.5
t-91 45.5q-187 0 -187 -363q0 -77 31 -121t89 -44q85 0 136.5 86zM318 -82q26 0 43 -18q14 -16 14 -38q0 -35 -28 -60q-23 -17 -48 -17q-28 0 -43 17q-14 17 -14 39q0 16 7.5 31.5t20.5 27.5q21 18 48 18z" />
    <glyph glyph-name="uni1EDC" unicode="&#x1edc;" horiz-adv-x="663" 
d="M653.5 520q23.5 -58 23.5 -128q0 -120 -45 -211.5t-123 -141.5t-174 -50q-123 0 -191 72t-68 198q0 117 40 208t116.5 142t183.5 51q48 0 84 -10q32 2 53.5 23t30.5 66h87q-8 -41 -31.5 -74t-58.5 -52q49 -35 72.5 -93zM478.5 146q51.5 86 51.5 275q0 76 -30 121.5
t-91 45.5q-187 0 -187 -363q0 -77 31 -121t89 -44q85 0 136.5 86zM466 888l64 -147l-64 -17l-111 129z" />
    <glyph glyph-name="uni1EDE" unicode="&#x1ede;" horiz-adv-x="663" 
d="M653.5 520q23.5 -58 23.5 -128q0 -120 -45 -211.5t-123 -141.5t-174 -50q-123 0 -191 72t-68 198q0 117 40 208t116.5 142t183.5 51q48 0 84 -10q32 2 53.5 23t30.5 66h87q-8 -41 -31.5 -74t-58.5 -52q49 -35 72.5 -93zM478.5 146q51.5 86 51.5 275q0 76 -30 121.5
t-91 45.5q-187 0 -187 -363q0 -77 31 -121t89 -44q85 0 136.5 86zM403 729q1 7 5.5 12t10 9t7.5 6q12 8 18.5 14.5t8.5 17.5q1 5 1 12q0 28 -33 28q-12 0 -22.5 -4t-17 -8t-7.5 -5l-22 57q3 2 14.5 7.5t29.5 11t38 5.5q93 0 93 -68q0 -15 -2 -24q-4 -19 -14 -30.5t-28 -26.5
q-2 -2 -8.5 -7t-10 -9.5t-4.5 -9.5l-2 -8l-58 -1q0 3 3 21z" />
    <glyph glyph-name="uni1EE0" unicode="&#x1ee0;" horiz-adv-x="663" 
d="M653.5 520q23.5 -58 23.5 -128q0 -120 -45 -211.5t-123 -141.5t-174 -50q-123 0 -191 72t-68 198q0 117 40 208t116.5 142t183.5 51q48 0 84 -10q32 2 53.5 23t30.5 66h87q-8 -41 -31.5 -74t-58.5 -52q49 -35 72.5 -93zM478.5 146q51.5 86 51.5 275q0 76 -30 121.5
t-91 45.5q-187 0 -187 -363q0 -77 31 -121t89 -44q85 0 136.5 86zM611 796.5q-15 -20.5 -42 -38t-66 -17.5q-22 0 -38 6t-41 19q-20 11 -35.5 17t-34.5 6q-16 0 -30 -10t-22.5 -21t-10.5 -14l-31 36q0 3 18.5 26.5t48.5 43.5t68 20q26 0 44 -6.5t42 -19.5q19 -11 31.5 -16
t28.5 -5t28 7t18.5 15t7.5 10l31 -35q0 -3 -15 -23.5z" />
    <glyph glyph-name="Ohungarumlaut" unicode="&#x150;" horiz-adv-x="663" 
d="M380 873l89 -26l-116 -150l-47 23zM536 873l89 -26l-116 -150l-48 23zM632 180.5q-45 -91.5 -123 -141.5t-174 -50q-123 0 -191 72t-68 198q0 117 40 208t116.5 142t183.5 51q132 0 196.5 -75t64.5 -193q0 -120 -45 -211.5zM500 542.5q-30 45.5 -91 45.5
q-187 0 -187 -363q0 -77 31 -121t89 -44q85 0 136.5 86t51.5 275q0 76 -30 121.5z" />
    <glyph glyph-name="Omacron" unicode="&#x14c;" horiz-adv-x="663" 
d="M534 759h-215l8 58h214zM632 180.5q-45 -91.5 -123 -141.5t-174 -50q-123 0 -191 72t-68 198q0 117 40 208t116.5 142t183.5 51q132 0 196.5 -75t64.5 -193q0 -120 -45 -211.5zM500 542.5q-30 45.5 -91 45.5q-187 0 -187 -363q0 -77 31 -121t89 -44q85 0 136.5 86
t51.5 275q0 76 -30 121.5z" />
    <glyph glyph-name="Oslash" unicode="&#xd8;" horiz-adv-x="663" 
d="M632 180.5q-45 -91.5 -123 -141.5t-174 -50q-54 0 -104 16l-63 -112l-40 11l66 118q-58 32 -88 92.5t-30 144.5q0 117 40 208t116.5 142t183.5 51q69 0 125 -24l51 90l40 -11l-56 -99q51 -35 76 -93.5t25 -130.5q0 -120 -45 -211.5zM246 114l247 437q-31 37 -84 37
q-187 0 -187 -363q0 -69 24 -111zM516 510l-242 -429q27 -21 68 -21q85 0 136.5 86t51.5 275q0 49 -14 89z" />
    <glyph glyph-name="Otilde" unicode="&#xd5;" horiz-adv-x="663" 
d="M603 781.5q-15 -20.5 -42 -38t-66 -17.5q-22 0 -38 6t-41 19q-20 11 -35.5 17t-34.5 6q-16 0 -30 -10t-22.5 -21t-10.5 -14l-31 36q0 3 18.5 26.5t48.5 43.5t68 20q26 0 44 -6.5t42 -19.5q19 -11 31.5 -16t28.5 -5t28 7t18.5 15t7.5 10l31 -35q0 -3 -15 -23.5zM632 180.5
q-45 -91.5 -123 -141.5t-174 -50q-123 0 -191 72t-68 198q0 117 40 208t116.5 142t183.5 51q132 0 196.5 -75t64.5 -193q0 -120 -45 -211.5zM500 542.5q-30 45.5 -91 45.5q-187 0 -187 -363q0 -77 31 -121t89 -44q85 0 136.5 86t51.5 275q0 76 -30 121.5z" />
    <glyph glyph-name="OE" unicode="&#x152;" horiz-adv-x="929" 
d="M676 364h217l-10 -70h-215q-6 -36 -16 -64l-22 -158h266l-10 -72h-405l3 24q-68 -35 -149 -35q-123 0 -191 72t-68 198q0 117 40 208t116.5 142t183.5 51q91 0 152 -39l4 29h391l-10 -72h-252l-24 -172v-14zM500 542.5q-30 45.5 -91 45.5q-187 0 -187 -363q0 -77 31 -121
t89 -44q65 0 111.5 51t65.5 161l5 37v5q6 48 6 107q0 76 -30 121.5z" />
    <glyph glyph-name="P" unicode="P" horiz-adv-x="533" 
d="M367 650q99 0 153 -44.5t54 -134.5q0 -91 -40.5 -151t-101.5 -88.5t-124 -28.5h-64l-29 -203h-138l91 650h199zM253 267h48q56 0 91 51.5t35 166.5q0 53 -21 76.5t-60 23.5h-48z" />
    <glyph glyph-name="Thorn" unicode="&#xde;" horiz-adv-x="562" 
d="M380 560q99 0 152.5 -45t53.5 -139q0 -95 -41 -158.5t-102.5 -94t-124.5 -30.5h-69l-13 -93h-138l91 650h138l-13 -90h66zM258 160h59q58 0 93.5 52.5t35.5 174.5q0 57 -20.5 80.5t-61.5 23.5h-59z" />
    <glyph glyph-name="Q" unicode="Q" horiz-adv-x="663" 
d="M643.5 206.5q-33.5 -82.5 -93.5 -136t-136 -71.5q43 -131 115 -131q16 0 32 6l-2 -61q-33 -11 -61 -11q-73 0 -131.5 55t-81.5 136q-101 13 -155 83t-54 183q0 117 40 208t116.5 142t183.5 51q132 0 196.5 -75t64.5 -193q0 -103 -33.5 -185.5zM500 542.5
q-30 45.5 -91 45.5q-187 0 -187 -363q0 -77 31 -121t89 -44q85 0 136.5 86t51.5 275q0 76 -30 121.5z" />
    <glyph glyph-name="R" unicode="R" horiz-adv-x="578" 
d="M368 650q99 0 154 -44t55 -126q0 -76 -39.5 -131t-102.5 -85l114 -264h-159l-89 236h-53l-33 -236h-138l91 650h200zM257 302h52q62 0 91.5 47t29.5 143q0 47 -21 70t-64 23h-48z" />
    <glyph glyph-name="Racute" unicode="&#x154;" horiz-adv-x="578" 
d="M513 834l-139 -130l-56 9l91 152zM368 650q99 0 154 -44t55 -126q0 -76 -39.5 -131t-102.5 -85l114 -264h-159l-89 236h-53l-33 -236h-138l91 650h200zM257 302h52q62 0 91.5 47t29.5 143q0 47 -21 70t-64 23h-48z" />
    <glyph glyph-name="Rcaron" unicode="&#x158;" horiz-adv-x="578" 
d="M239 845l47 35l95 -93l121 93l37 -39l-134 -134h-70zM368 650q99 0 154 -44t55 -126q0 -76 -39.5 -131t-102.5 -85l114 -264h-159l-89 236h-53l-33 -236h-138l91 650h200zM257 302h52q62 0 91.5 47t29.5 143q0 47 -21 70t-64 23h-48z" />
    <glyph glyph-name="Rcommaaccent" unicode="&#x156;" horiz-adv-x="578" 
d="M368 650q99 0 154 -44t55 -126q0 -76 -39.5 -131t-102.5 -85l114 -264h-159l-89 236h-53l-33 -236h-138l91 650h200zM257 302h52q62 0 91.5 47t29.5 143q0 47 -21 70t-64 23h-48zM289 -46q25 0 41 -16q20 -24 20 -61q0 -54 -38 -116.5t-93 -99.5l-25 31q40 32 61.5 68
t22.5 70h-7q-24 0 -40 16q-13 16 -13 36q0 15 6.5 30t19.5 26q19 16 45 16z" />
    <glyph glyph-name="S" unicode="S" horiz-adv-x="492" 
d="M467 559.5q-18 10.5 -46.5 20.5t-59.5 10q-43 0 -69.5 -24t-26.5 -67q0 -36 23.5 -60.5t71.5 -55.5q40 -27 65 -48t42.5 -53t17.5 -76q0 -68 -34 -117t-90.5 -74.5t-122.5 -25.5q-63 0 -106 20t-65.5 43.5t-22.5 27.5l46 58q0 -3 18 -22.5t49.5 -36t74.5 -16.5
q54 0 81.5 28t27.5 71q0 32 -22 54t-68 51q-41 26 -66.5 47t-44 54t-18.5 79q0 65 31.5 113t86 74t122.5 26q40 0 73 -10t55 -22.5t22 -13.5l-22 -68z" />
    <glyph glyph-name="Sacute" unicode="&#x15a;" horiz-adv-x="492" 
d="M510 834l-139 -130l-56 9l91 152zM467 559.5q-18 10.5 -46.5 20.5t-59.5 10q-43 0 -69.5 -24t-26.5 -67q0 -36 23.5 -60.5t71.5 -55.5q40 -27 65 -48t42.5 -53t17.5 -76q0 -68 -34 -117t-90.5 -74.5t-122.5 -25.5q-63 0 -106 20t-65.5 43.5t-22.5 27.5l46 58
q0 -3 18 -22.5t49.5 -36t74.5 -16.5q54 0 81.5 28t27.5 71q0 32 -22 54t-68 51q-41 26 -66.5 47t-44 54t-18.5 79q0 65 31.5 113t86 74t122.5 26q40 0 73 -10t55 -22.5t22 -13.5l-22 -68z" />
    <glyph glyph-name="Scaron" unicode="&#x160;" horiz-adv-x="492" 
d="M233 845l47 35l95 -93l121 93l37 -39l-134 -134h-70zM467 559.5q-18 10.5 -46.5 20.5t-59.5 10q-43 0 -69.5 -24t-26.5 -67q0 -36 23.5 -60.5t71.5 -55.5q40 -27 65 -48t42.5 -53t17.5 -76q0 -68 -34 -117t-90.5 -74.5t-122.5 -25.5q-63 0 -106 20t-65.5 43.5t-22.5 27.5
l46 58q0 -3 18 -22.5t49.5 -36t74.5 -16.5q54 0 81.5 28t27.5 71q0 32 -22 54t-68 51q-41 26 -66.5 47t-44 54t-18.5 79q0 65 31.5 113t86 74t122.5 26q40 0 73 -10t55 -22.5t22 -13.5l-22 -68z" />
    <glyph glyph-name="Scedilla" unicode="&#x15e;" horiz-adv-x="492" 
d="M467 559.5q-18 10.5 -46.5 20.5t-59.5 10q-43 0 -69.5 -24t-26.5 -67q0 -36 23.5 -60.5t71.5 -55.5q40 -27 65 -48t42.5 -53t17.5 -76q0 -65 -30.5 -112.5t-82.5 -73.5t-114 -30l-10 -48q0 -1 20.5 -9t38 -25t17.5 -47q0 -49 -33.5 -80.5t-96.5 -31.5q-33 0 -52.5 10
t-28 21.5t-8.5 14.5l30 29q1 -2 6.5 -9t16.5 -13.5t27 -6.5q60 0 60 63q0 20 -13.5 28.5t-27 11.5t-13.5 4l22 88q-55 4 -92.5 24t-57 41.5t-19.5 24.5l46 58q0 -3 18 -22.5t49.5 -36t74.5 -16.5q54 0 81.5 28t27.5 71q0 32 -22 54t-68 51q-41 26 -66.5 47t-44 54t-18.5 79
q0 65 31.5 113t86 74t122.5 26q40 0 73 -10t55 -22.5t22 -13.5l-22 -68z" />
    <glyph glyph-name="uni1E9E" unicode="&#x1e9e;" horiz-adv-x="658" 
d="M471 374q14 2 22 2q70 0 114 -39t44 -112q0 -74 -33 -127.5t-88 -81t-120 -27.5q-44 0 -74 9t-45.5 19t-15.5 12l34 66q3 -2 13.5 -9.5t30.5 -14.5t45 -7q55 0 85 46t30 133q0 70 -54 70q-23 0 -47 -27l-2 -3l-1 -2l-62 58l151 239h-77q-64 0 -99 -42.5t-50 -148.5
l-55 -387h-138l58 414q17 115 84.5 175.5t186.5 60.5h221l-7 -47z" />
    <glyph glyph-name="T" unicode="T" horiz-adv-x="516" 
d="M583 578h-174l-81 -578h-139l81 578h-175l11 72h488z" />
    <glyph glyph-name="Tcaron" unicode="&#x164;" horiz-adv-x="516" 
d="M225 845l47 35l95 -93l121 93l37 -39l-134 -134h-70zM583 578h-174l-81 -578h-139l81 578h-175l11 72h488z" />
    <glyph glyph-name="uni021A" unicode="&#x21a;" horiz-adv-x="516" 
d="M583 578h-174l-81 -578h-139l81 578h-175l11 72h488zM258 -46q25 0 41 -16q20 -24 20 -61q0 -54 -38 -116.5t-93 -99.5l-25 31q40 32 61.5 68t22.5 70h-7q-24 0 -40 16q-13 16 -13 36q0 15 6.5 30t19.5 26q19 16 45 16z" />
    <glyph glyph-name="U" unicode="U" horiz-adv-x="614" 
d="M149 39.5q-52 50.5 -52 143.5q0 28 4 53l58 414h139l-54 -383q-6 -42 -6 -75q0 -67 24.5 -97t75.5 -30q67 0 106 49t53 153l54 383h85l-58 -414q-17 -118 -82 -182.5t-191 -64.5q-104 0 -156 50.5z" />
    <glyph glyph-name="Uacute" unicode="&#xda;" horiz-adv-x="614" 
d="M556 834l-139 -130l-56 9l91 152zM149 39.5q-52 50.5 -52 143.5q0 28 4 53l58 414h139l-54 -383q-6 -42 -6 -75q0 -67 24.5 -97t75.5 -30q67 0 106 49t53 153l54 383h85l-58 -414q-17 -118 -82 -182.5t-191 -64.5q-104 0 -156 50.5z" />
    <glyph glyph-name="Ucircumflex" unicode="&#xdb;" horiz-adv-x="614" 
d="M560 766l-34 -45l-92 85l-117 -85l-22 45l115 122h70zM149 39.5q-52 50.5 -52 143.5q0 28 4 53l58 414h139l-54 -383q-6 -42 -6 -75q0 -67 24.5 -97t75.5 -30q67 0 106 49t53 153l54 383h85l-58 -414q-17 -118 -82 -182.5t-191 -64.5q-104 0 -156 50.5z" />
    <glyph glyph-name="Udieresis" unicode="&#xdc;" horiz-adv-x="614" 
d="M347 856q26 0 43 -17q14 -19 14 -41q0 -37 -29 -63q-22 -18 -48 -18q-27 0 -43 18q-14 17 -14 41q0 17 7.5 33.5t20.5 29.5q22 17 49 17zM532 856q25 0 44 -17q14 -19 14 -41q0 -37 -29 -63q-22 -18 -49 -18t-42 18q-14 17 -14 41q0 17 7.5 33.5t20.5 29.5q22 17 48 17z
M149 39.5q-52 50.5 -52 143.5q0 28 4 53l58 414h139l-54 -383q-6 -42 -6 -75q0 -67 24.5 -97t75.5 -30q67 0 106 49t53 153l54 383h85l-58 -414q-17 -118 -82 -182.5t-191 -64.5q-104 0 -156 50.5z" />
    <glyph glyph-name="uni1EE4" unicode="&#x1ee4;" horiz-adv-x="614" 
d="M149 39.5q-52 50.5 -52 143.5q0 28 4 53l58 414h139l-54 -383q-6 -42 -6 -75q0 -67 24.5 -97t75.5 -30q67 0 106 49t53 153l54 383h85l-58 -414q-17 -118 -82 -182.5t-191 -64.5q-104 0 -156 50.5zM303 -82q26 0 43 -18q14 -16 14 -38q0 -35 -28 -60q-23 -17 -48 -17
q-28 0 -43 17q-14 17 -14 39q0 16 7.5 31.5t20.5 27.5q21 18 48 18z" />
    <glyph glyph-name="Ugrave" unicode="&#xd9;" horiz-adv-x="614" 
d="M427 873l64 -147l-64 -17l-111 129zM149 39.5q-52 50.5 -52 143.5q0 28 4 53l58 414h139l-54 -383q-6 -42 -6 -75q0 -67 24.5 -97t75.5 -30q67 0 106 49t53 153l54 383h85l-58 -414q-17 -118 -82 -182.5t-191 -64.5q-104 0 -156 50.5z" />
    <glyph glyph-name="uni1EE6" unicode="&#x1ee6;" horiz-adv-x="614" 
d="M149 39.5q-52 50.5 -52 143.5q0 28 4 53l58 414h139l-54 -383q-6 -42 -6 -75q0 -67 24.5 -97t75.5 -30q67 0 106 49t53 153l54 383h85l-58 -414q-17 -118 -82 -182.5t-191 -64.5q-104 0 -156 50.5zM406 729q1 7 5.5 12t10 9t7.5 6q12 8 18.5 14.5t8.5 17.5q1 5 1 12
q0 28 -33 28q-12 0 -22.5 -4t-17 -8t-7.5 -5l-22 57q3 2 14.5 7.5t29.5 11t38 5.5q93 0 93 -68q0 -15 -2 -24q-4 -19 -14 -30.5t-28 -26.5q-2 -2 -8.5 -7t-10 -9.5t-4.5 -9.5l-2 -8l-58 -1q0 3 3 21z" />
    <glyph glyph-name="Uhorn" unicode="&#x1af;" horiz-adv-x="614" 
d="M709.5 651q-32.5 -37 -80.5 -53l-51 -362q-17 -118 -82 -182.5t-191 -64.5q-104 0 -156 50.5t-52 143.5q0 28 4 53l58 414h139l-54 -383q-6 -42 -6 -75q0 -67 24.5 -97t75.5 -30q67 0 106 49t53 153l54 383h25q34 0 56.5 21t32.5 68h87q-10 -51 -42.5 -88z" />
    <glyph glyph-name="uni1EE8" unicode="&#x1ee8;" horiz-adv-x="614" 
d="M709.5 651q-32.5 -37 -80.5 -53l-51 -362q-17 -118 -82 -182.5t-191 -64.5q-104 0 -156 50.5t-52 143.5q0 28 4 53l58 414h139l-54 -383q-6 -42 -6 -75q0 -67 24.5 -97t75.5 -30q67 0 106 49t53 153l54 383h25q34 0 56.5 21t32.5 68h87q-10 -51 -42.5 -88zM542 849
l-139 -130l-56 9l91 152z" />
    <glyph glyph-name="uni1EF0" unicode="&#x1ef0;" horiz-adv-x="614" 
d="M709.5 651q-32.5 -37 -80.5 -53l-51 -362q-17 -118 -82 -182.5t-191 -64.5q-104 0 -156 50.5t-52 143.5q0 28 4 53l58 414h139l-54 -383q-6 -42 -6 -75q0 -67 24.5 -97t75.5 -30q67 0 106 49t53 153l54 383h25q34 0 56.5 21t32.5 68h87q-10 -51 -42.5 -88zM303 -82
q26 0 43 -18q14 -16 14 -38q0 -35 -28 -60q-23 -17 -48 -17q-28 0 -43 17q-14 17 -14 39q0 16 7.5 31.5t20.5 27.5q21 18 48 18z" />
    <glyph glyph-name="uni1EEA" unicode="&#x1eea;" horiz-adv-x="614" 
d="M709.5 651q-32.5 -37 -80.5 -53l-51 -362q-17 -118 -82 -182.5t-191 -64.5q-104 0 -156 50.5t-52 143.5q0 28 4 53l58 414h139l-54 -383q-6 -42 -6 -75q0 -67 24.5 -97t75.5 -30q67 0 106 49t53 153l54 383h25q34 0 56.5 21t32.5 68h87q-10 -51 -42.5 -88zM469 888
l64 -147l-64 -17l-111 129z" />
    <glyph glyph-name="uni1EEC" unicode="&#x1eec;" horiz-adv-x="614" 
d="M709.5 651q-32.5 -37 -80.5 -53l-51 -362q-17 -118 -82 -182.5t-191 -64.5q-104 0 -156 50.5t-52 143.5q0 28 4 53l58 414h139l-54 -383q-6 -42 -6 -75q0 -67 24.5 -97t75.5 -30q67 0 106 49t53 153l54 383h25q34 0 56.5 21t32.5 68h87q-10 -51 -42.5 -88zM406 729
q1 7 5.5 12t10 9t7.5 6q12 8 18.5 14.5t8.5 17.5q1 5 1 12q0 28 -33 28q-12 0 -22.5 -4t-17 -8t-7.5 -5l-22 57q3 2 14.5 7.5t29.5 11t38 5.5q93 0 93 -68q0 -15 -2 -24q-4 -19 -14 -30.5t-28 -26.5q-2 -2 -8.5 -7t-10 -9.5t-4.5 -9.5l-2 -8l-58 -1q0 3 3 21z" />
    <glyph glyph-name="uni1EEE" unicode="&#x1eee;" horiz-adv-x="614" 
d="M709.5 651q-32.5 -37 -80.5 -53l-51 -362q-17 -118 -82 -182.5t-191 -64.5q-104 0 -156 50.5t-52 143.5q0 28 4 53l58 414h139l-54 -383q-6 -42 -6 -75q0 -67 24.5 -97t75.5 -30q67 0 106 49t53 153l54 383h25q34 0 56.5 21t32.5 68h87q-10 -51 -42.5 -88zM614 796.5
q-15 -20.5 -42 -38t-66 -17.5q-22 0 -38 6t-41 19q-20 11 -35.5 17t-34.5 6q-16 0 -30 -10t-22.5 -21t-10.5 -14l-31 36q0 3 18.5 26.5t48.5 43.5t68 20q26 0 44 -6.5t42 -19.5q19 -11 31.5 -16t28.5 -5t28 7t18.5 15t7.5 10l31 -35q0 -3 -15 -23.5z" />
    <glyph glyph-name="Uhungarumlaut" unicode="&#x170;" horiz-adv-x="614" 
d="M365 873l89 -26l-116 -150l-47 23zM521 873l89 -26l-116 -150l-48 23zM149 39.5q-52 50.5 -52 143.5q0 28 4 53l58 414h139l-54 -383q-6 -42 -6 -75q0 -67 24.5 -97t75.5 -30q67 0 106 49t53 153l54 383h85l-58 -414q-17 -118 -82 -182.5t-191 -64.5q-104 0 -156 50.5z
" />
    <glyph glyph-name="Umacron" unicode="&#x16a;" horiz-adv-x="614" 
d="M531 759h-215l8 58h214zM149 39.5q-52 50.5 -52 143.5q0 28 4 53l58 414h139l-54 -383q-6 -42 -6 -75q0 -67 24.5 -97t75.5 -30q67 0 106 49t53 153l54 383h85l-58 -414q-17 -118 -82 -182.5t-191 -64.5q-104 0 -156 50.5z" />
    <glyph glyph-name="Uogonek" unicode="&#x172;" horiz-adv-x="614" 
d="M149 39.5q-52 50.5 -52 143.5q0 28 4 53l58 414h139l-54 -383q-6 -42 -6 -75q0 -67 24.5 -97t75.5 -30q67 0 106 49t53 153l54 383h85l-58 -414q-28 -200 -187 -237q-33 -18 -59.5 -53.5t-26.5 -93.5q0 -30 17.5 -41.5t51.5 -11.5l-7 -49q-70 0 -110 21t-40 77
q0 76 91 141h-3q-104 0 -156 50.5z" />
    <glyph glyph-name="Uring" unicode="&#x16e;" horiz-adv-x="614" 
d="M496.5 717q-33.5 -34 -85.5 -34q-43 0 -68 24t-25 67q0 57 33.5 90.5t85.5 33.5q41 0 67 -24.5t26 -66.5q0 -56 -33.5 -90zM470 842.5q-15 13.5 -38 13.5q-30 0 -49 -19.5t-19 -56.5q0 -26 14.5 -40t38.5 -14q31 0 49.5 20t18.5 57q0 26 -15 39.5zM149 39.5
q-52 50.5 -52 143.5q0 28 4 53l58 414h139l-54 -383q-6 -42 -6 -75q0 -67 24.5 -97t75.5 -30q67 0 106 49t53 153l54 383h85l-58 -414q-17 -118 -82 -182.5t-191 -64.5q-104 0 -156 50.5z" />
    <glyph glyph-name="Utilde" unicode="&#x168;" horiz-adv-x="614" 
d="M149 39.5q-52 50.5 -52 143.5q0 28 4 53l58 414h139l-54 -383q-6 -42 -6 -75q0 -67 24.5 -97t75.5 -30q67 0 106 49t53 153l54 383h85l-58 -414q-17 -118 -82 -182.5t-191 -64.5q-104 0 -156 50.5zM614 796.5q-15 -20.5 -42 -38t-66 -17.5q-22 0 -38 6t-41 19
q-20 11 -35.5 17t-34.5 6q-16 0 -30 -10t-22.5 -21t-10.5 -14l-31 36q0 3 18.5 26.5t48.5 43.5t68 20q26 0 44 -6.5t42 -19.5q19 -11 31.5 -16t28.5 -5t28 7t18.5 15t7.5 10l31 -35q0 -3 -15 -23.5z" />
    <glyph glyph-name="V" unicode="V" horiz-adv-x="576" 
d="M204 0l-104 650h146l77 -549h3l244 549h87l-300 -650h-153z" />
    <glyph glyph-name="W" unicode="W" horiz-adv-x="873" 
d="M954 650l-261 -650h-118l-69 480h-3l-201 -480h-120l-82 650h147l51 -492h2l202 492h111l69 -489h2l182 489h88z" />
    <glyph glyph-name="X" unicode="X" horiz-adv-x="581" 
d="M254 316l-146 334h173l87 -233h3l172 233h98l-231 -300l163 -350h-172l-105 248h-2l-182 -248h-104z" />
    <glyph glyph-name="Y" unicode="Y" horiz-adv-x="523" 
d="M342 355l182 295h96l-250 -383l-36 -267h-139l35 251l-146 399h155l102 -295h1z" />
    <glyph glyph-name="Yacute" unicode="&#xdd;" horiz-adv-x="523" 
d="M523 834l-139 -130l-56 9l91 152zM342 355l182 295h96l-250 -383l-36 -267h-139l35 251l-146 399h155l102 -295h1z" />
    <glyph glyph-name="Ydieresis" unicode="&#x178;" horiz-adv-x="523" 
d="M306 856q26 0 43 -17q14 -19 14 -41q0 -37 -29 -63q-22 -18 -48 -18q-27 0 -43 18q-14 17 -14 41q0 17 7.5 33.5t20.5 29.5q22 17 49 17zM491 856q25 0 44 -17q14 -19 14 -41q0 -37 -29 -63q-22 -18 -49 -18t-42 18q-14 17 -14 41q0 17 7.5 33.5t20.5 29.5q22 17 48 17z
M342 355l182 295h96l-250 -383l-36 -267h-139l35 251l-146 399h155l102 -295h1z" />
    <glyph glyph-name="uni1EF4" unicode="&#x1ef4;" horiz-adv-x="523" 
d="M342 355l182 295h96l-250 -383l-36 -267h-139l35 251l-146 399h155l102 -295h1zM208 -82q26 0 43 -18q14 -16 14 -38q0 -35 -28 -60q-23 -17 -48 -17q-28 0 -43 17q-14 17 -14 39q0 16 7.5 31.5t20.5 27.5q21 18 48 18z" />
    <glyph glyph-name="Ygrave" unicode="&#x1ef2;" horiz-adv-x="523" 
d="M342 355l182 295h96l-250 -383l-36 -267h-139l35 251l-146 399h155l102 -295h1zM426 888l64 -147l-64 -17l-111 129z" />
    <glyph glyph-name="uni1EF6" unicode="&#x1ef6;" horiz-adv-x="523" 
d="M342 355l182 295h96l-250 -383l-36 -267h-139l35 251l-146 399h155l102 -295h1zM363 729q1 7 5.5 12t10 9t7.5 6q12 8 18.5 14.5t8.5 17.5q1 5 1 12q0 28 -33 28q-12 0 -22.5 -4t-17 -8t-7.5 -5l-22 57q3 2 14.5 7.5t29.5 11t38 5.5q93 0 93 -68q0 -15 -2 -24
q-4 -19 -14 -30.5t-28 -26.5q-2 -2 -8.5 -7t-10 -9.5t-4.5 -9.5l-2 -8l-58 -1q0 3 3 21z" />
    <glyph glyph-name="uni1EF8" unicode="&#x1ef8;" horiz-adv-x="523" 
d="M342 355l182 295h96l-250 -383l-36 -267h-139l35 251l-146 399h155l102 -295h1zM571 796.5q-15 -20.5 -42 -38t-66 -17.5q-22 0 -38 6t-41 19q-20 11 -35.5 17t-34.5 6q-16 0 -30 -10t-22.5 -21t-10.5 -14l-31 36q0 3 18.5 26.5t48.5 43.5t68 20q26 0 44 -6.5t42 -19.5
q19 -11 31.5 -16t28.5 -5t28 7t18.5 15t7.5 10l31 -35q0 -3 -15 -23.5z" />
    <glyph glyph-name="Z" unicode="Z" horiz-adv-x="567" 
d="M604 590l-385 -518h312l-10 -72h-479l9 58l386 520h-296l10 72h462z" />
    <glyph glyph-name="Zacute" unicode="&#x179;" horiz-adv-x="567" 
d="M524 834l-139 -130l-56 9l91 152zM604 590l-385 -518h312l-10 -72h-479l9 58l386 520h-296l10 72h462z" />
    <glyph glyph-name="Zcaron" unicode="&#x17d;" horiz-adv-x="567" 
d="M252 845l47 35l95 -93l121 93l37 -39l-134 -134h-70zM604 590l-385 -518h312l-10 -72h-479l9 58l386 520h-296l10 72h462z" />
    <glyph glyph-name="Zdotaccent" unicode="&#x17b;" horiz-adv-x="567" 
d="M395 863q31 0 49 -19q15 -19 15 -45q0 -19 -8 -37.5t-23 -32.5q-25 -19 -55 -19q-32 0 -49 20q-16 17 -16 45q0 18 8.5 36.5t23.5 31.5q23 20 55 20zM604 590l-385 -518h312l-10 -72h-479l9 58l386 520h-296l10 72h462z" />
    <glyph glyph-name="A.swsh" horiz-adv-x="752" 
d="M733 0h-146l-22 182h-223q-73 -152 -137 -217.5t-138 -84.5l-30 66q58 17 114.5 73t122.5 191l184 374q-97 -6 -164 -37.5t-101 -80.5t-34 -106q0 -21 7 -51l-77 -20q-9 35 -9 68q0 80 49 146t142 106t219 41h30q81 2 112 15l3 -57zM519 551l-147 -306h185l-36 306h-2z
" />
    <glyph glyph-name="B.swsh" horiz-adv-x="825" 
d="M778 606.5q52 -43.5 52 -107.5q0 -58 -33 -97.5t-84 -63.5q48 -16 76 -50t28 -82q0 -59 -32 -105.5t-95 -73.5t-154 -27h-214q17 68 33 166.5t55 375.5q4 30 7 44h-1q-76 0 -131.5 -27.5t-85 -74.5t-29.5 -103q0 -35 12 -71l-67 -31q-19 48 -19 98q0 74 41 136.5
t116 99.5t172 37h7q19 56 47 73l104 -14q-9 -25 -18 -59h57q104 0 156 -43.5zM605 361q19 0 40 13.5t35.5 44.5t14.5 78q0 45 -23 66.5t-62 21.5h-56l-6 -44l-27 -180h84zM467 65h75q63 0 100 39t37 115q0 82 -76 82h-92q-29 -170 -44 -236z" />
    <glyph glyph-name="C.swsh" horiz-adv-x="591" 
d="M564 414.5q22 38.5 22 76.5q0 41 -29 67.5t-89 26.5q-104 0 -168.5 -95.5t-64.5 -324.5q0 -112 35.5 -159t105.5 -47q47 0 84 18t60 39.5t23 24.5l37 -48q0 -5 -28.5 -33t-82 -52t-130.5 -24q-124 0 -188.5 77t-64.5 223q0 149 49 256.5t135 163.5t195 56q102 0 152 -43
t50 -109q0 -52 -30 -103.5t-79 -81.5l-50 33q34 20 56 58.5z" />
    <glyph glyph-name="D.swsh" horiz-adv-x="903" 
d="M565 650h81q132 0 202.5 -68.5t70.5 -198.5q0 -182 -93.5 -282.5t-270.5 -100.5h-233q17 68 33 166.5t55 375.5q4 30 7 43q-1 0 -1 0.5v0.5q-76 0 -131.5 -27.5t-85 -74.5t-29.5 -103q0 -35 12 -71l-67 -31q-19 48 -19 98q0 74 41 136.5t116 99.5t172 37h7q19 56 47 73
l104 -14q-9 -25 -18 -59zM548 541q-47 -320 -80 -470h98q98 0 151 76t53 266q0 86 -32.5 126t-101.5 40h-83z" />
    <glyph glyph-name="E.swsh" horiz-adv-x="562" 
d="M315 227q-35 -4 -60.5 -42t-25.5 -128q0 -52 25.5 -74t77.5 -22q44 0 80 16.5t58.5 36t22.5 21.5l31 -50q0 -4 -27 -28.5t-78 -46t-124 -21.5q-95 0 -148.5 42.5t-53.5 125.5q0 79 37.5 128t93.5 74q-47 18 -77.5 56t-30.5 99q0 70 33 126t98 88t157 32q76 0 127 -21
t75.5 -55.5t24.5 -75.5q0 -34 -16 -67t-45 -59l-56 28q18 16 27.5 37.5t9.5 43.5q0 42 -34.5 70.5t-100.5 28.5q-84 0 -122 -45t-38 -148q0 -48 17 -74t45 -29l130 4l-10 -74z" />
    <glyph glyph-name="F.swsh" horiz-adv-x="727" 
d="M387 500q6 48 30 86h-1q-74 0 -129 -30t-84 -80t-29 -109q0 -31 7 -58l-77 -20q-10 42 -10 73q0 78 42 144t118 105t172 39h376l-10 -72h-256l-34 -240h223l-10 -70h-223l-37 -268h-139z" />
    <glyph glyph-name="G.swsh" horiz-adv-x="645" 
d="M564 414.5q22 38.5 22 76.5q0 41 -29 67.5t-89 26.5q-104 0 -168.5 -95.5t-64.5 -324.5q0 -112 35.5 -159t105.5 -47q45 0 89 21l29 203h-102l10 68h218l-67 -477h-60l-42 105l3 24q-51 -19 -115 -19q-124 0 -188.5 77t-64.5 223q0 149 49 256.5t135 163.5t195 56
q102 0 152 -43t50 -109q0 -52 -30 -103.5t-79 -81.5l-50 33q34 20 56 58.5z" />
    <glyph glyph-name="H.swsh" horiz-adv-x="894" 
d="M730 366l25 176q11 77 27.5 121.5t41.5 59.5l105 -14q-14 -36 -19.5 -65.5t-16.5 -102.5l-76 -541h-138l41 296h-224l-11 -82q-12 -85 -40 -134t-73.5 -70t-113.5 -21q-24 0 -43.5 3.5t-29.5 7.5t-13 5l28 65q0 -1 15 -5.5t35 -4.5q38 0 60.5 32.5t35.5 121.5l41 286
q6 48 30 86h-1q-74 0 -129 -30t-84 -80t-29 -109q0 -31 7 -58l-77 -20q-10 42 -10 73q0 78 42 144t118 105t172 39h120l-40 -284h224z" />
    <glyph glyph-name="I.swsh" horiz-adv-x="532" 
d="M445 80q-28 -49 -73.5 -70t-113.5 -21q-24 0 -43.5 3.5t-29.5 7.5t-13 5l28 65q0 -1 15 -5.5t35 -4.5q38 0 60.5 32.5t35.5 121.5l41 286q6 48 30 86h-1q-74 0 -129 -30t-84 -80t-29 -109q0 -31 7 -58l-77 -20q-10 42 -10 73q0 78 42 144t118 105t172 39h120l-61 -436
q-12 -85 -40 -134z" />
    <glyph glyph-name="J.swsh" horiz-adv-x="555" 
d="M452 -11q-42 -62 -101.5 -91.5t-123.5 -29.5q-92 0 -136.5 39.5t-44.5 100.5q0 41 19.5 82.5t53.5 72.5l57 -24q-23 -22 -37.5 -53t-14.5 -61q0 -37 24.5 -60.5t76.5 -23.5q51 0 89 45t50 128l55 386q7 51 30 86q-74 0 -129 -30t-84.5 -80.5t-29.5 -109.5q0 -30 7 -57
l-77 -20q-10 42 -10 73q0 78 42 144t118 105t172 39h120l-71 -508q-13 -91 -55 -153z" />
    <glyph glyph-name="K.swsh" horiz-adv-x="905" 
d="M569 393l227 257h96l-246 -267l154 -295q64 -133 142 -133q18 0 33.5 6t15.5 7l6 -49q-3 -2 -15.5 -9.5t-35.5 -14t-53 -6.5q-154 0 -224 146l-132 257l-45 -29l-37 -263h-138l70 500q7 51 30 86h-1q-74 0 -129 -30t-84 -80t-29 -109q0 -31 7 -58l-77 -20q-10 42 -10 73
q0 78 42 144t118 105t172 39h120l-42 -301z" />
    <glyph glyph-name="L.swsh" horiz-adv-x="719" 
d="M741.5 3q-39.5 -46 -105.5 -46q-35 0 -79 7t-107 19q-87 17 -108 17h-5q-41 -11 -89 -11l1 35q0 24 1 36l21 2q28 7 46 41.5t29 110.5l41 286q6 48 30 86h-1q-74 0 -129 -30t-84 -80t-29 -109q0 -31 7 -58l-77 -20q-10 42 -10 73q0 78 42 144t118 105t172 39h120
l-61 -436q-15 -102 -56 -153q16 -2 50 -8q118 -20 158 -20q36 0 59 27t30 80l64 -8q-9 -83 -48.5 -129z" />
    <glyph glyph-name="M.swsh" horiz-adv-x="1156" 
d="M944 0l61 492h-2l-259 -492h-103l-103 492h-5l-53 -362q-32 -218 -178 -252l-3 72q68 22 93 180l71 454q-94 -7 -159.5 -39t-98.5 -80t-33 -105q0 -21 7 -51l-76 -20q-9 35 -9 69q0 80 48.5 146t140 105.5t214.5 39.5v1h51q64 3 98 15l2 -37l100 -457h5l255 479h155
l-84 -650h-135z" />
    <glyph glyph-name="N.swsh" horiz-adv-x="950" 
d="M765 0l-234 475l-51 -345q-32 -218 -178 -252l-3 72q69 22 92 180l72 454q-94 -7 -159.5 -39t-98.5 -80t-33 -105q0 -21 7 -51l-76 -20q-9 35 -9 69q0 79 48.5 145.5t139.5 106t215 40.5h18q65 2 105 15l7 -49l195 -407h2v45l55 396h86l-92 -650h-108z" />
    <glyph glyph-name="O.swsh" horiz-adv-x="683" 
d="M114.5 356q35.5 52 73.5 73q-1 7 -1 21q0 56 31.5 104t89 77t132.5 29q79 0 136.5 -35.5t88 -99t30.5 -146.5q0 -107 -43 -196t-125 -141.5t-194 -52.5q-83 0 -140 32t-85.5 85.5t-28.5 119.5q0 78 35.5 130zM246 337q-31 -46 -31 -114q0 -74 35.5 -116.5t94.5 -42.5
q65 0 110.5 44t68.5 121.5t23 177.5q0 91 -33 134.5t-93 43.5q-45 0 -80.5 -19t-55 -50.5t-19.5 -65.5q0 -37 19 -59.5t50 -38.5l-59 -33q-15 8 -30 18z" />
    <glyph glyph-name="P.swsh" horiz-adv-x="754" 
d="M529 650h59q99 0 153 -46t54 -137q0 -90 -40.5 -149.5t-101.5 -87t-124 -27.5h-68q-22 -131 -40 -203h-135q17 63 31 151.5t47 317.5l10 73q4 30 7 44h-1q-55 0 -99.5 -19.5t-70.5 -52.5t-26 -73q0 -35 22 -72l-67 -31q-35 53 -35 105q0 57 39 104.5t105 75t141 27.5h8
q19 57 46 73l104 -14q-9 -25 -18 -59zM512 541l-3 -21q-30 -205 -38 -253h50q59 0 93 47t34 171q0 53 -21 76.5t-60 23.5h-49z" />
    <glyph glyph-name="Q.swsh" horiz-adv-x="640" 
d="M576 -170.5q-40 -32.5 -96 -32.5q-54 0 -92.5 21.5t-62 52t-50.5 77.5q-18 32 -27 45q-55 8 -94 21t-41 14l18 69q33 13 64 13q62 0 111 -46q96 5 147 99t51 244q0 91 -33 134.5t-93 43.5q-48 0 -94.5 -27t-76 -76t-29.5 -111q0 -57 24.5 -90t57.5 -49l-55 -36
q-42 16 -74 57t-32 116q0 87 42 153.5t111 102t145 35.5q79 0 136.5 -35.5t88 -99t30.5 -146.5q0 -95 -34.5 -177t-100.5 -137t-156 -70l17 -27q31 -51 53.5 -75.5t54.5 -24.5q25 0 46.5 18t26.5 58l65 -8q-8 -74 -48 -106.5z" />
    <glyph glyph-name="R.swsh" horiz-adv-x="846" 
d="M529 650h60q101 0 156.5 -40t55.5 -114q0 -66 -40.5 -119.5t-102.5 -84.5l122 -204q37 -63 75 -98t69 -35q17 0 33 6t16 7l6 -49q-3 -2 -15.5 -9.5t-35.5 -14t-53 -6.5q-70 0 -125 36.5t-99 109.5l-136 227h-44q-29 -185 -50 -262h-135q17 63 31 151.5t47 317.5l10 73
q4 30 7 44h-1q-55 0 -99.5 -19.5t-70.5 -52.5t-26 -73q0 -35 22 -72l-67 -31q-35 53 -35 105q0 57 39 104.5t105 75t141 27.5h8q19 57 46 73l104 -14q-9 -25 -18 -59zM512 541l-4 -29l-12.5 -88t-14.5 -95h52q55 0 87 43.5t32 129.5q0 43 -22 63t-64 20h-48z" />
    <glyph glyph-name="S.swsh" horiz-adv-x="512" 
d="M473 509q0 35 -25.5 58t-71.5 23q-48 0 -76 -30.5t-28 -84.5q0 -38 24.5 -66.5t73.5 -67.5q43 -34 69 -59.5t44.5 -62t18.5 -83.5q0 -79 -35.5 -134.5t-95 -83.5t-130.5 -28q-95 0 -143 40.5t-48 100.5q0 37 18 74.5t49 66.5l57 -25q-23 -19 -35 -44.5t-12 -50.5
q0 -38 27 -63.5t78 -25.5q60 0 92.5 35.5t32.5 86.5q0 34 -23 60t-72 66q-43 35 -69 60.5t-45 62.5t-19 83q0 77 31.5 131.5t87.5 83t129 28.5q55 0 94 -19t59 -50.5t20 -68.5q0 -32 -14.5 -63.5t-43.5 -57.5l-56 28q37 36 37 80z" />
    <glyph glyph-name="T.swsh" horiz-adv-x="585" 
d="M326 482q10 75 55 113q-69 19 -110 19q-39 0 -62 -18.5t-28 -63.5l-65 3q9 79 45 111t94 32q31 0 67.5 -7t87.5 -21q48 -12 79.5 -18.5t57.5 -6.5q40 0 64 19t30 65l64 -10q-8 -77 -43.5 -109t-93.5 -32q-36 0 -91 12l-81 -570h-138z" />
    <glyph glyph-name="U.swsh" horiz-adv-x="862" 
d="M397 38q-52 49 -52 143q0 30 4 55l38 264q6 48 30 86h-1q-74 0 -129 -30t-84 -80t-29 -109q0 -31 7 -58l-77 -20q-10 42 -10 73q0 78 42 144t118 105t172 39h120l-53 -383q-6 -43 -6 -77q0 -66 24.5 -95.5t74.5 -29.5q68 0 107 49.5t53 152.5l54 383h85l-58 -414
q-35 -247 -274 -247q-104 0 -156 49z" />
    <glyph glyph-name="V.swsh" horiz-adv-x="873" 
d="M621 101h2l245 549h87l-301 -650h-153l-94 583q-72 -8 -125.5 -39.5t-81.5 -79t-28 -102.5q0 -28 7 -53l-77 -20q-9 33 -9 66q0 78 45.5 145.5t123.5 108t173 41.5q27 0 59 4t51 11l2 -45z" />
    <glyph glyph-name="W.swsh" horiz-adv-x="1169" 
d="M990 0h-118l-69 480h-3l-201 -480h-120l-74 583q-71 -9 -124 -40.5t-81 -79t-28 -101.5q0 -28 7 -53l-77 -20q-9 33 -9 66q0 78 45.5 145.5t123.5 108t173 41.5q27 0 59 4t52 11v-35l49 -472h2l202 492h111l69 -489h2l183 489h87z" />
    <glyph glyph-name="X.swsh" horiz-adv-x="872" 
d="M630 427h2l162 223h98l-226 -293l119 -242q38 -81 68.5 -119.5t64.5 -38.5q14 0 28.5 6t14.5 7l7 -49q-3 -2 -15.5 -9.5t-35.5 -14t-53 -6.5q-75 0 -129 34.5t-88 115.5l-95 213h-1l-188 -254h-104l255 325l-123 256q-67 -11 -116.5 -42.5t-76 -77.5t-26.5 -99
q0 -28 7 -53l-77 -20q-9 33 -9 66q0 78 45.5 145.5t123.5 108t173 41.5q26 0 55 4t49 11l6 -44z" />
    <glyph glyph-name="Y.swsh" horiz-adv-x="819" 
d="M637 355h1l183 295h96l-251 -385l-37 -265h-138l35 251l-123 332q-71 -9 -123 -41t-80 -79t-28 -101q0 -28 7 -53l-77 -20q-9 33 -9 66q0 78 45.5 145.5t123.5 108t173 41.5q26 0 55 4t49 11l7 -47z" />
    <glyph glyph-name="Z.swsh" horiz-adv-x="587" 
d="M547 2.5q-43 -45.5 -120 -45.5q-36 0 -83.5 7t-132.5 22q-73 14 -88 14q-16 0 -38 -3.5t-34 -7.5v71q99 111 189 227l217 291h-296l10 72h462l-9 -60l-37.5 -52.5l-32.5 -44.5q-111 -156 -192 -256t-171 -174l32 -5q159 -25 209 -25q41 0 68.5 27.5t34.5 79.5l64 -8
q-9 -84 -52 -129.5z" />
    <glyph glyph-name="a" unicode="a" 
d="M382 0l-16 44h-1q0 -3 -13.5 -17t-43 -26t-74.5 -12q-79 0 -127 55.5t-48 150.5q0 89 32.5 161t91.5 113.5t134 41.5q41 0 65.5 -9t35 -19.5t10.5 -12.5h4l24 30h98l-70 -500h-102zM333.5 82.5q22.5 15.5 31.5 29.5l41 283q-20 40 -71 40q-64 0 -100 -65t-36 -195
q0 -108 78 -108q34 0 56.5 15.5z" />
    <glyph glyph-name="aacute" unicode="&#xe1;" 
d="M517 699l-139 -130l-56 9l91 152zM382 0l-16 44h-1q0 -3 -13.5 -17t-43 -26t-74.5 -12q-79 0 -127 55.5t-48 150.5q0 89 32.5 161t91.5 113.5t134 41.5q41 0 65.5 -9t35 -19.5t10.5 -12.5h4l24 30h98l-70 -500h-102zM333.5 82.5q22.5 15.5 31.5 29.5l41 283
q-20 40 -71 40q-64 0 -100 -65t-36 -195q0 -108 78 -108q34 0 56.5 15.5z" />
    <glyph glyph-name="abreve" unicode="&#x103;" 
d="M432 648q20 12 27.5 25.5t7.5 17.5l1 4l65 -9q0 -10 -12 -39t-49.5 -56.5t-106.5 -27.5q-78 0 -105.5 34t-27.5 73q0 6 0.5 10.5t0.5 5.5l67 9v-4q0 -15 13 -35t63 -20q36 0 56 12zM382 0l-16 44h-1q0 -3 -13.5 -17t-43 -26t-74.5 -12q-79 0 -127 55.5t-48 150.5
q0 89 32.5 161t91.5 113.5t134 41.5q41 0 65.5 -9t35 -19.5t10.5 -12.5h4l24 30h98l-70 -500h-102zM333.5 82.5q22.5 15.5 31.5 29.5l41 283q-20 40 -71 40q-64 0 -100 -65t-36 -195q0 -108 78 -108q34 0 56.5 15.5z" />
    <glyph glyph-name="uni1EAF" unicode="&#x1eaf;" 
d="M382 0l-16 44h-1q0 -3 -13.5 -17t-43 -26t-74.5 -12q-79 0 -127 55.5t-48 150.5q0 89 32.5 161t91.5 113.5t134 41.5q41 0 65.5 -9t35 -19.5t10.5 -12.5h4l24 30h98l-70 -500h-102zM333.5 82.5q22.5 15.5 31.5 29.5l41 283q-20 40 -71 40q-64 0 -100 -65t-36 -195
q0 -108 78 -108q34 0 56.5 15.5zM429 648q20 12 27.5 25.5t7.5 17.5l1 4l65 -9q0 -10 -12 -39t-49.5 -56.5t-106.5 -27.5q-78 0 -105.5 34t-27.5 73q0 6 0.5 10.5t0.5 5.5l67 9v-4q0 -15 13 -35t63 -20q36 0 56 12zM533 828l-139 -130l-56 9l91 152z" />
    <glyph glyph-name="uni1EB7" unicode="&#x1eb7;" 
d="M382 0l-16 44h-1q0 -3 -13.5 -17t-43 -26t-74.5 -12q-79 0 -127 55.5t-48 150.5q0 89 32.5 161t91.5 113.5t134 41.5q41 0 65.5 -9t35 -19.5t10.5 -12.5h4l24 30h98l-70 -500h-102zM333.5 82.5q22.5 15.5 31.5 29.5l41 283q-20 40 -71 40q-64 0 -100 -65t-36 -195
q0 -108 78 -108q34 0 56.5 15.5zM257 -82q26 0 43 -18q14 -16 14 -38q0 -35 -28 -60q-23 -17 -48 -17q-28 0 -43 17q-14 17 -14 39q0 16 7.5 31.5t20.5 27.5q21 18 48 18zM429 648q20 12 27.5 25.5t7.5 17.5l1 4l65 -9q0 -10 -12 -39t-49.5 -56.5t-106.5 -27.5
q-78 0 -105.5 34t-27.5 73q0 6 0.5 10.5t0.5 5.5l67 9v-4q0 -15 13 -35t63 -20q36 0 56 12z" />
    <glyph glyph-name="uni1EB1" unicode="&#x1eb1;" 
d="M382 0l-16 44h-1q0 -3 -13.5 -17t-43 -26t-74.5 -12q-79 0 -127 55.5t-48 150.5q0 89 32.5 161t91.5 113.5t134 41.5q41 0 65.5 -9t35 -19.5t10.5 -12.5h4l24 30h98l-70 -500h-102zM333.5 82.5q22.5 15.5 31.5 29.5l41 283q-20 40 -71 40q-64 0 -100 -65t-36 -195
q0 -108 78 -108q34 0 56.5 15.5zM429 648q20 12 27.5 25.5t7.5 17.5l1 4l65 -9q0 -10 -12 -39t-49.5 -56.5t-106.5 -27.5q-78 0 -105.5 34t-27.5 73q0 6 0.5 10.5t0.5 5.5l67 9v-4q0 -15 13 -35t63 -20q36 0 56 12zM371 876l64 -147l-64 -17l-111 129z" />
    <glyph glyph-name="uni1EB3" unicode="&#x1eb3;" 
d="M382 0l-16 44h-1q0 -3 -13.5 -17t-43 -26t-74.5 -12q-79 0 -127 55.5t-48 150.5q0 89 32.5 161t91.5 113.5t134 41.5q41 0 65.5 -9t35 -19.5t10.5 -12.5h4l24 30h98l-70 -500h-102zM333.5 82.5q22.5 15.5 31.5 29.5l41 283q-20 40 -71 40q-64 0 -100 -65t-36 -195
q0 -108 78 -108q34 0 56.5 15.5zM429 648q20 12 27.5 25.5t7.5 17.5l1 4l65 -9q0 -10 -12 -39t-49.5 -56.5t-106.5 -27.5q-78 0 -105.5 34t-27.5 73q0 6 0.5 10.5t0.5 5.5l67 9v-4q0 -15 13 -35t63 -20q36 0 56 12zM350 719q1 7 5.5 12t10 9t7.5 6q12 8 18.5 14.5t8.5 17.5
q1 5 1 12q0 28 -33 28q-12 0 -22.5 -4t-17 -8t-7.5 -5l-22 57q3 2 14.5 7.5t29.5 11t38 5.5q93 0 93 -68q0 -15 -2 -24q-4 -19 -14 -30.5t-28 -26.5q-2 -2 -8.5 -7t-10 -9.5t-4.5 -9.5l-2 -8l-58 -1q0 3 3 21z" />
    <glyph glyph-name="uni1EB5" unicode="&#x1eb5;" 
d="M382 0l-16 44h-1q0 -3 -13.5 -17t-43 -26t-74.5 -12q-79 0 -127 55.5t-48 150.5q0 89 32.5 161t91.5 113.5t134 41.5q41 0 65.5 -9t35 -19.5t10.5 -12.5h4l24 30h98l-70 -500h-102zM333.5 82.5q22.5 15.5 31.5 29.5l41 283q-20 40 -71 40q-64 0 -100 -65t-36 -195
q0 -108 78 -108q34 0 56.5 15.5zM429 648q20 12 27.5 25.5t7.5 17.5l1 4l65 -9q0 -10 -12 -39t-49.5 -56.5t-106.5 -27.5q-78 0 -105.5 34t-27.5 73q0 6 0.5 10.5t0.5 5.5l67 9v-4q0 -15 13 -35t63 -20q36 0 56 12zM571 790.5q-15 -20.5 -42 -38t-66 -17.5q-22 0 -38 6
t-41 19q-20 11 -35.5 17t-34.5 6q-16 0 -30 -10t-22.5 -21t-10.5 -14l-31 36q0 3 18.5 26.5t48.5 43.5t68 20q26 0 44 -6.5t42 -19.5q19 -11 31.5 -16t28.5 -5t28 7t18.5 15t7.5 10l31 -35q0 -3 -15 -23.5z" />
    <glyph glyph-name="acircumflex" unicode="&#xe2;" 
d="M507 631l-34 -45l-92 85l-117 -85l-22 45l115 122h70zM382 0l-16 44h-1q0 -3 -13.5 -17t-43 -26t-74.5 -12q-79 0 -127 55.5t-48 150.5q0 89 32.5 161t91.5 113.5t134 41.5q41 0 65.5 -9t35 -19.5t10.5 -12.5h4l24 30h98l-70 -500h-102zM333.5 82.5q22.5 15.5 31.5 29.5
l41 283q-20 40 -71 40q-64 0 -100 -65t-36 -195q0 -108 78 -108q34 0 56.5 15.5z" />
    <glyph glyph-name="uni1EA5" unicode="&#x1ea5;" 
d="M382 0l-16 44h-1q0 -3 -13.5 -17t-43 -26t-74.5 -12q-79 0 -127 55.5t-48 150.5q0 89 32.5 161t91.5 113.5t134 41.5q41 0 65.5 -9t35 -19.5t10.5 -12.5h4l24 30h98l-70 -500h-102zM333.5 82.5q22.5 15.5 31.5 29.5l41 283q-20 40 -71 40q-64 0 -100 -65t-36 -195
q0 -108 78 -108q34 0 56.5 15.5zM506 594l-34 -45l-92 85l-117 -85l-22 45l115 122h70zM690 764l-139 -130l-56 9l91 152z" />
    <glyph glyph-name="uni1EAD" unicode="&#x1ead;" 
d="M382 0l-16 44h-1q0 -3 -13.5 -17t-43 -26t-74.5 -12q-79 0 -127 55.5t-48 150.5q0 89 32.5 161t91.5 113.5t134 41.5q41 0 65.5 -9t35 -19.5t10.5 -12.5h4l24 30h98l-70 -500h-102zM333.5 82.5q22.5 15.5 31.5 29.5l41 283q-20 40 -71 40q-64 0 -100 -65t-36 -195
q0 -108 78 -108q34 0 56.5 15.5zM257 -82q26 0 43 -18q14 -16 14 -38q0 -35 -28 -60q-23 -17 -48 -17q-28 0 -43 17q-14 17 -14 39q0 16 7.5 31.5t20.5 27.5q21 18 48 18zM506 594l-34 -45l-92 85l-117 -85l-22 45l115 122h70z" />
    <glyph glyph-name="uni1EA7" unicode="&#x1ea7;" 
d="M382 0l-16 44h-1q0 -3 -13.5 -17t-43 -26t-74.5 -12q-79 0 -127 55.5t-48 150.5q0 89 32.5 161t91.5 113.5t134 41.5q41 0 65.5 -9t35 -19.5t10.5 -12.5h4l24 30h98l-70 -500h-102zM333.5 82.5q22.5 15.5 31.5 29.5l41 283q-20 40 -71 40q-64 0 -100 -65t-36 -195
q0 -108 78 -108q34 0 56.5 15.5zM506 594l-34 -45l-92 85l-117 -85l-22 45l115 122h70zM503 863l64 -147l-64 -17l-111 129z" />
    <glyph glyph-name="uni1EA9" unicode="&#x1ea9;" 
d="M382 0l-16 44h-1q0 -3 -13.5 -17t-43 -26t-74.5 -12q-79 0 -127 55.5t-48 150.5q0 89 32.5 161t91.5 113.5t134 41.5q41 0 65.5 -9t35 -19.5t10.5 -12.5h4l24 30h98l-70 -500h-102zM333.5 82.5q22.5 15.5 31.5 29.5l41 283q-20 40 -71 40q-64 0 -100 -65t-36 -195
q0 -108 78 -108q34 0 56.5 15.5zM506 594l-34 -45l-92 85l-117 -85l-22 45l115 122h70zM508 683q1 7 5.5 12t10 9t7.5 6q12 8 18.5 14.5t8.5 17.5q1 5 1 12q0 28 -33 28q-12 0 -22.5 -4t-17 -8t-7.5 -5l-22 57q3 2 14.5 7.5t29.5 11t38 5.5q93 0 93 -68q0 -15 -2 -24
q-4 -19 -14 -30.5t-28 -26.5q-2 -2 -8.5 -7t-10 -9.5t-4.5 -9.5l-2 -8l-58 -1q0 3 3 21z" />
    <glyph glyph-name="uni1EAB" unicode="&#x1eab;" 
d="M382 0l-16 44h-1q0 -3 -13.5 -17t-43 -26t-74.5 -12q-79 0 -127 55.5t-48 150.5q0 89 32.5 161t91.5 113.5t134 41.5q41 0 65.5 -9t35 -19.5t10.5 -12.5h4l24 30h98l-70 -500h-102zM333.5 82.5q22.5 15.5 31.5 29.5l41 283q-20 40 -71 40q-64 0 -100 -65t-36 -195
q0 -108 78 -108q34 0 56.5 15.5zM506 594l-34 -45l-92 85l-117 -85l-22 45l115 122h70zM585 813.5q-15 -20.5 -42 -38t-66 -17.5q-22 0 -38 6t-41 19q-20 11 -35.5 17t-34.5 6q-16 0 -30 -10t-22.5 -21t-10.5 -14l-31 36q0 3 18.5 26.5t48.5 43.5t68 20q26 0 44 -6.5
t42 -19.5q19 -11 31.5 -16t28.5 -5t28 7t18.5 15t7.5 10l31 -35q0 -3 -15 -23.5z" />
    <glyph glyph-name="adieresis" unicode="&#xe4;" 
d="M293 721q26 0 43 -17q14 -19 14 -41q0 -37 -29 -63q-22 -18 -48 -18t-43 18q-14 17 -14 41q0 17 7.5 33.5t20.5 29.5q22 17 49 17zM478 721q25 0 44 -17q14 -19 14 -41q0 -37 -29 -63q-22 -18 -49 -18t-42 18q-14 17 -14 41q0 17 7.5 33.5t20.5 29.5q22 17 48 17zM382 0
l-16 44h-1q0 -3 -13.5 -17t-43 -26t-74.5 -12q-79 0 -127 55.5t-48 150.5q0 89 32.5 161t91.5 113.5t134 41.5q41 0 65.5 -9t35 -19.5t10.5 -12.5h4l24 30h98l-70 -500h-102zM333.5 82.5q22.5 15.5 31.5 29.5l41 283q-20 40 -71 40q-64 0 -100 -65t-36 -195q0 -108 78 -108
q34 0 56.5 15.5z" />
    <glyph glyph-name="uni1EA1" unicode="&#x1ea1;" 
d="M382 0l-16 44h-1q0 -3 -13.5 -17t-43 -26t-74.5 -12q-79 0 -127 55.5t-48 150.5q0 89 32.5 161t91.5 113.5t134 41.5q41 0 65.5 -9t35 -19.5t10.5 -12.5h4l24 30h98l-70 -500h-102zM333.5 82.5q22.5 15.5 31.5 29.5l41 283q-20 40 -71 40q-64 0 -100 -65t-36 -195
q0 -108 78 -108q34 0 56.5 15.5zM257 -82q26 0 43 -18q14 -16 14 -38q0 -35 -28 -60q-23 -17 -48 -17q-28 0 -43 17q-14 17 -14 39q0 16 7.5 31.5t20.5 27.5q21 18 48 18z" />
    <glyph glyph-name="agrave" unicode="&#xe0;" 
d="M356 738l64 -147l-64 -17l-111 129zM382 0l-16 44h-1q0 -3 -13.5 -17t-43 -26t-74.5 -12q-79 0 -127 55.5t-48 150.5q0 89 32.5 161t91.5 113.5t134 41.5q41 0 65.5 -9t35 -19.5t10.5 -12.5h4l24 30h98l-70 -500h-102zM333.5 82.5q22.5 15.5 31.5 29.5l41 283
q-20 40 -71 40q-64 0 -100 -65t-36 -195q0 -108 78 -108q34 0 56.5 15.5z" />
    <glyph glyph-name="uni1EA3" unicode="&#x1ea3;" 
d="M382 0l-16 44h-1q0 -3 -13.5 -17t-43 -26t-74.5 -12q-79 0 -127 55.5t-48 150.5q0 89 32.5 161t91.5 113.5t134 41.5q41 0 65.5 -9t35 -19.5t10.5 -12.5h4l24 30h98l-70 -500h-102zM333.5 82.5q22.5 15.5 31.5 29.5l41 283q-20 40 -71 40q-64 0 -100 -65t-36 -195
q0 -108 78 -108q34 0 56.5 15.5zM344 579q1 7 5.5 12t10 9t7.5 6q12 8 18.5 14.5t8.5 17.5q1 5 1 12q0 28 -33 28q-12 0 -22.5 -4t-17 -8t-7.5 -5l-22 57q3 2 14.5 7.5t29.5 11t38 5.5q93 0 93 -68q0 -15 -2 -24q-4 -19 -14 -30.5t-28 -26.5q-2 -2 -8.5 -7t-10 -9.5
t-4.5 -9.5l-2 -8l-58 -1q0 3 3 21z" />
    <glyph glyph-name="amacron" unicode="&#x101;" 
d="M484 624h-215l8 58h214zM382 0l-16 44h-1q0 -3 -13.5 -17t-43 -26t-74.5 -12q-79 0 -127 55.5t-48 150.5q0 89 32.5 161t91.5 113.5t134 41.5q41 0 65.5 -9t35 -19.5t10.5 -12.5h4l24 30h98l-70 -500h-102zM333.5 82.5q22.5 15.5 31.5 29.5l41 283q-20 40 -71 40
q-64 0 -100 -65t-36 -195q0 -108 78 -108q34 0 56.5 15.5z" />
    <glyph glyph-name="aogonek" unicode="&#x105;" 
d="M449 0q-33 -16 -61 -52t-28 -96q0 -30 17.5 -41.5t51.5 -11.5l-7 -49q-70 0 -110 21t-40 77q0 48 31.5 86t78.5 66l-16 44h-1q0 -3 -13.5 -17t-43 -26t-74.5 -12q-79 0 -127 55.5t-48 150.5q0 89 32.5 161t91.5 113.5t134 41.5q41 0 65.5 -9t35 -19.5t10.5 -12.5h4l24 30
h98l-70 -500h-35zM333.5 82.5q22.5 15.5 31.5 29.5l41 283q-20 40 -71 40q-64 0 -100 -65t-36 -195q0 -108 78 -108q34 0 56.5 15.5z" />
    <glyph glyph-name="aring" unicode="&#xe5;" 
d="M451.5 582q-33.5 -34 -85.5 -34q-43 0 -68 24t-25 67q0 57 33.5 90.5t85.5 33.5q41 0 67 -24.5t26 -66.5q0 -56 -33.5 -90zM425 707.5q-15 13.5 -38 13.5q-30 0 -49 -19.5t-19 -56.5q0 -26 15 -40t38 -14q31 0 49.5 20t18.5 57q0 26 -15 39.5zM382 0l-16 44h-1
q0 -3 -13.5 -17t-43 -26t-74.5 -12q-79 0 -127 55.5t-48 150.5q0 89 32.5 161t91.5 113.5t134 41.5q41 0 65.5 -9t35 -19.5t10.5 -12.5h4l24 30h98l-70 -500h-102zM333.5 82.5q22.5 15.5 31.5 29.5l41 283q-20 40 -71 40q-64 0 -100 -65t-36 -195q0 -108 78 -108
q34 0 56.5 15.5z" />
    <glyph glyph-name="atilde" unicode="&#xe3;" 
d="M549 646.5q-15 -20.5 -42 -38t-66 -17.5q-22 0 -38 6t-41 19q-20 11 -35.5 17t-34.5 6q-16 0 -30 -10t-22.5 -21t-10.5 -14l-31 36q0 3 18.5 26.5t48.5 43.5t68 20q26 0 44 -6.5t42 -19.5q19 -11 31.5 -16t28.5 -5t28 7t18.5 15t7.5 10l31 -35q0 -3 -15 -23.5zM382 0
l-16 44h-1q0 -3 -13.5 -17t-43 -26t-74.5 -12q-79 0 -127 55.5t-48 150.5q0 89 32.5 161t91.5 113.5t134 41.5q41 0 65.5 -9t35 -19.5t10.5 -12.5h4l24 30h98l-70 -500h-102zM333.5 82.5q22.5 15.5 31.5 29.5l41 283q-20 40 -71 40q-64 0 -100 -65t-36 -195q0 -108 78 -108
q34 0 56.5 15.5z" />
    <glyph glyph-name="ae" unicode="&#xe6;" horiz-adv-x="757" 
d="M720 49q-22 -22 -63 -41t-100 -19q-115 0 -172 67h-4q0 -3 -14 -20t-44 -32t-76 -15q-88 0 -138 55t-50 151q0 90 33.5 162t96 113t146.5 41q41 0 67.5 -10t39 -22t12.5 -14h5q65 45 150 45q78 0 123 -40t45 -100q0 -99 -88 -129t-210 -30q-1 -14 -1 -44
q0 -60 27.5 -85.5t77.5 -25.5q34 0 60.5 12t42.5 26.5t16 16.5l40 -36q0 -4 -22 -26zM522 401q-29 -45 -39 -133q52 0 89 7.5t61.5 32.5t24.5 75q0 63 -65 63q-42 0 -71 -45zM326.5 77q19.5 10 31.5 24q-17 40 -17 94q0 128 60 212q-23 28 -66 28q-64 0 -100 -65t-36 -195
q0 -108 83 -108q25 0 44.5 10z" />
    <glyph glyph-name="b" unicode="b" horiz-adv-x="543" 
d="M297 754l-41 -291h5q0 2 13.5 14t41 22.5t67.5 10.5q78 0 125 -55t47 -148q0 -89 -31 -161.5t-88 -114.5t-133 -42q-41 0 -68.5 10t-42 21.5t-14.5 13.5h-2l-27 -34h-91l105 746zM226.5 76q16.5 -11 51.5 -11q64 0 100.5 65t36.5 201q0 102 -79 102q-26 0 -46.5 -11.5
t-32.5 -25t-12 -15.5l-40 -285q5 -9 21.5 -20z" />
    <glyph glyph-name="c" unicode="c" horiz-adv-x="446" 
d="M440.5 413.5q-18.5 10.5 -43.5 20.5t-45 10q-75 0 -112.5 -69t-37.5 -203q0 -61 27.5 -88.5t69.5 -27.5q35 0 60.5 14t39.5 30t14 18l43 -30q0 -5 -19.5 -30t-59.5 -47t-102 -22q-101 0 -158 55.5t-57 157.5q0 92 33.5 162t96 108.5t147.5 38.5q33 0 65.5 -10.5
t53.5 -21.5t27 -15l-19 -64z" />
    <glyph glyph-name="cacute" unicode="&#x107;" horiz-adv-x="446" 
d="M485 699l-139 -130l-56 9l91 152zM440.5 413.5q-18.5 10.5 -43.5 20.5t-45 10q-75 0 -112.5 -69t-37.5 -203q0 -61 27.5 -88.5t69.5 -27.5q35 0 60.5 14t39.5 30t14 18l43 -30q0 -5 -19.5 -30t-59.5 -47t-102 -22q-101 0 -158 55.5t-57 157.5q0 92 33.5 162t96 108.5
t147.5 38.5q33 0 65.5 -10.5t53.5 -21.5t27 -15l-19 -64z" />
    <glyph glyph-name="ccaron" unicode="&#x10d;" horiz-adv-x="446" 
d="M208 710l47 35l95 -93l121 93l37 -39l-134 -134h-70zM440.5 413.5q-18.5 10.5 -43.5 20.5t-45 10q-75 0 -112.5 -69t-37.5 -203q0 -61 27.5 -88.5t69.5 -27.5q35 0 60.5 14t39.5 30t14 18l43 -30q0 -5 -19.5 -30t-59.5 -47t-102 -22q-101 0 -158 55.5t-57 157.5
q0 92 33.5 162t96 108.5t147.5 38.5q33 0 65.5 -10.5t53.5 -21.5t27 -15l-19 -64z" />
    <glyph glyph-name="ccedilla" unicode="&#xe7;" horiz-adv-x="446" 
d="M440.5 413.5q-18.5 10.5 -43.5 20.5t-45 10q-75 0 -112.5 -69t-37.5 -203q0 -61 27.5 -88.5t69.5 -27.5q35 0 60.5 14t39.5 30t14 18l43 -30q0 -5 -19.5 -30t-59.5 -47t-102 -22h-6l-10 -47q0 -1 20.5 -9t38 -25t17.5 -47q0 -49 -33.5 -80.5t-96.5 -31.5q-33 0 -52.5 10
t-28 21.5t-8.5 14.5l30 29q1 -2 6.5 -9t16.5 -13.5t27 -6.5q60 0 60 63q0 20 -13.5 28.5t-27 11.5t-13.5 4l23 91q-78 13 -121.5 67t-43.5 142q0 92 33.5 162t96 108.5t147.5 38.5q33 0 65.5 -10.5t53.5 -21.5t27 -15l-19 -64z" />
    <glyph glyph-name="d" unicode="d" horiz-adv-x="543" 
d="M374 0l-9 45h-1q0 -3 -14 -17t-42.5 -26.5t-71.5 -12.5q-82 0 -129.5 58t-47.5 153q0 88 31 158.5t87 111t126 40.5q39 0 64 -8.5t36.5 -18t11.5 -11.5h3l38 274l135 8l-106 -754h-111zM335.5 84q24.5 17 31.5 28l41 289q-2 3 -10 10.5t-24.5 15t-39.5 7.5
q-67 0 -101.5 -64.5t-34.5 -192.5q0 -59 19.5 -84.5t59.5 -25.5q34 0 58.5 17z" />
    <glyph glyph-name="eth" unicode="&#xf0;" horiz-adv-x="532" 
d="M94.5 370.5q34.5 70.5 93 105t132.5 34.5q46 0 85 -21q-16 73 -60 137l-103 -54l-13 42l88 46q-23 24 -56 49l64 37q39 -21 68 -46l84 44l13 -42l-64 -34q53 -59 82.5 -140t29.5 -178q0 -29 -3 -61q-15 -145 -85.5 -222.5t-188.5 -77.5q-99 0 -150 58.5t-51 148.5
q0 104 34.5 174.5zM229.5 378q-32.5 -67 -32.5 -213q0 -112 77 -112q124 0 124 281q0 54 -19.5 82.5t-57.5 28.5q-59 0 -91.5 -67z" />
    <glyph glyph-name="dcaron" unicode="&#x10f;" horiz-adv-x="543" 
d="M752 786l-101 -234l-47 4l59 244zM374 0l-9 45h-1q0 -3 -14 -17t-42.5 -26.5t-71.5 -12.5q-82 0 -129.5 58t-47.5 153q0 88 31 158.5t87 111t126 40.5q39 0 64 -8.5t36.5 -18t11.5 -11.5h3l38 274l135 8l-106 -754h-111zM335.5 84q24.5 17 31.5 28l41 289q-2 3 -10 10.5
t-24.5 15t-39.5 7.5q-67 0 -101.5 -64.5t-34.5 -192.5q0 -59 19.5 -84.5t59.5 -25.5q34 0 58.5 17z" />
    <glyph glyph-name="dcroat" unicode="&#x111;" horiz-adv-x="548" 
d="M638 679l-7 -55l-63 -12h-5l-86 -612h-117l-5 42q-17 -21 -51 -41t-89 -20q-76 0 -119.5 58t-43.5 153q0 89 30 163.5t84 118.5t125 44q39 0 65 -10t39 -22t13 -14h3l20 140h-94l9 67h95l10 71h132l-10 -71h65zM361 115l40 282q-6 11 -11 18.5t-20.5 17t-40.5 9.5
q-67 0 -102 -66t-35 -206q0 -59 19.5 -85t58.5 -26q56 0 91 56z" />
    <glyph glyph-name="e" unicode="e" horiz-adv-x="474" 
d="M438 49q-22 -22 -63 -41t-100 -19q-97 0 -156.5 51.5t-59.5 154.5q0 99 34.5 170t95.5 108t138 37q78 0 123 -40t45 -100q0 -99 -88 -129t-210 -30q-1 -14 -1 -44q0 -60 27.5 -85.5t77.5 -25.5q34 0 60.5 12t42.5 26.5t16 16.5l40 -36q0 -4 -22 -26zM240 401
q-29 -45 -39 -133q52 0 89 7.5t61.5 32.5t24.5 75q0 63 -65 63q-42 0 -71 -45z" />
    <glyph glyph-name="eacute" unicode="&#xe9;" horiz-adv-x="474" 
d="M481 699l-139 -130l-56 9l91 152zM438 49q-22 -22 -63 -41t-100 -19q-97 0 -156.5 51.5t-59.5 154.5q0 99 34.5 170t95.5 108t138 37q78 0 123 -40t45 -100q0 -99 -88 -129t-210 -30q-1 -14 -1 -44q0 -60 27.5 -85.5t77.5 -25.5q34 0 60.5 12t42.5 26.5t16 16.5l40 -36
q0 -4 -22 -26zM240 401q-29 -45 -39 -133q52 0 89 7.5t61.5 32.5t24.5 75q0 63 -65 63q-42 0 -71 -45z" />
    <glyph glyph-name="ecaron" unicode="&#x11b;" horiz-adv-x="474" 
d="M201 710l47 35l95 -93l121 93l37 -39l-134 -134h-70zM438 49q-22 -22 -63 -41t-100 -19q-97 0 -156.5 51.5t-59.5 154.5q0 99 34.5 170t95.5 108t138 37q78 0 123 -40t45 -100q0 -99 -88 -129t-210 -30q-1 -14 -1 -44q0 -60 27.5 -85.5t77.5 -25.5q34 0 60.5 12
t42.5 26.5t16 16.5l40 -36q0 -4 -22 -26zM240 401q-29 -45 -39 -133q52 0 89 7.5t61.5 32.5t24.5 75q0 63 -65 63q-42 0 -71 -45z" />
    <glyph glyph-name="ecircumflex" unicode="&#xea;" horiz-adv-x="474" 
d="M472 631l-34 -45l-92 85l-117 -85l-22 45l115 122h70zM438 49q-22 -22 -63 -41t-100 -19q-97 0 -156.5 51.5t-59.5 154.5q0 99 34.5 170t95.5 108t138 37q78 0 123 -40t45 -100q0 -99 -88 -129t-210 -30q-1 -14 -1 -44q0 -60 27.5 -85.5t77.5 -25.5q34 0 60.5 12
t42.5 26.5t16 16.5l40 -36q0 -4 -22 -26zM240 401q-29 -45 -39 -133q52 0 89 7.5t61.5 32.5t24.5 75q0 63 -65 63q-42 0 -71 -45z" />
    <glyph glyph-name="uni1EBF" unicode="&#x1ebf;" horiz-adv-x="474" 
d="M438 49q-22 -22 -63 -41t-100 -19q-97 0 -156.5 51.5t-59.5 154.5q0 99 34.5 170t95.5 108t138 37q78 0 123 -40t45 -100q0 -99 -88 -129t-210 -30q-1 -14 -1 -44q0 -60 27.5 -85.5t77.5 -25.5q34 0 60.5 12t42.5 26.5t16 16.5l40 -36q0 -4 -22 -26zM240 401
q-29 -45 -39 -133q52 0 89 7.5t61.5 32.5t24.5 75q0 63 -65 63q-42 0 -71 -45zM476 594l-34 -45l-92 85l-117 -85l-22 45l115 122h70zM660 764l-139 -130l-56 9l91 152z" />
    <glyph glyph-name="uni1EC7" unicode="&#x1ec7;" horiz-adv-x="474" 
d="M438 49q-22 -22 -63 -41t-100 -19q-97 0 -156.5 51.5t-59.5 154.5q0 99 34.5 170t95.5 108t138 37q78 0 123 -40t45 -100q0 -99 -88 -129t-210 -30q-1 -14 -1 -44q0 -60 27.5 -85.5t77.5 -25.5q34 0 60.5 12t42.5 26.5t16 16.5l40 -36q0 -4 -22 -26zM240 401
q-29 -45 -39 -133q52 0 89 7.5t61.5 32.5t24.5 75q0 63 -65 63q-42 0 -71 -45zM261 -82q26 0 43 -18q14 -16 14 -38q0 -35 -28 -60q-23 -17 -48 -17q-28 0 -43 17q-14 17 -14 39q0 16 7.5 31.5t20.5 27.5q21 18 48 18zM476 594l-34 -45l-92 85l-117 -85l-22 45l115 122h70z
" />
    <glyph glyph-name="uni1EC1" unicode="&#x1ec1;" horiz-adv-x="474" 
d="M438 49q-22 -22 -63 -41t-100 -19q-97 0 -156.5 51.5t-59.5 154.5q0 99 34.5 170t95.5 108t138 37q78 0 123 -40t45 -100q0 -99 -88 -129t-210 -30q-1 -14 -1 -44q0 -60 27.5 -85.5t77.5 -25.5q34 0 60.5 12t42.5 26.5t16 16.5l40 -36q0 -4 -22 -26zM240 401
q-29 -45 -39 -133q52 0 89 7.5t61.5 32.5t24.5 75q0 63 -65 63q-42 0 -71 -45zM476 594l-34 -45l-92 85l-117 -85l-22 45l115 122h70zM473 863l64 -147l-64 -17l-111 129z" />
    <glyph glyph-name="uni1EC3" unicode="&#x1ec3;" horiz-adv-x="474" 
d="M438 49q-22 -22 -63 -41t-100 -19q-97 0 -156.5 51.5t-59.5 154.5q0 99 34.5 170t95.5 108t138 37q78 0 123 -40t45 -100q0 -99 -88 -129t-210 -30q-1 -14 -1 -44q0 -60 27.5 -85.5t77.5 -25.5q34 0 60.5 12t42.5 26.5t16 16.5l40 -36q0 -4 -22 -26zM240 401
q-29 -45 -39 -133q52 0 89 7.5t61.5 32.5t24.5 75q0 63 -65 63q-42 0 -71 -45zM476 594l-34 -45l-92 85l-117 -85l-22 45l115 122h70zM478 683q1 7 5.5 12t10 9t7.5 6q12 8 18.5 14.5t8.5 17.5q1 5 1 12q0 28 -33 28q-12 0 -22.5 -4t-17 -8t-7.5 -5l-22 57q3 2 14.5 7.5
t29.5 11t38 5.5q93 0 93 -68q0 -15 -2 -24q-4 -19 -14 -30.5t-28 -26.5q-2 -2 -8.5 -7t-10 -9.5t-4.5 -9.5l-2 -8l-58 -1q0 3 3 21z" />
    <glyph glyph-name="uni1EC5" unicode="&#x1ec5;" horiz-adv-x="474" 
d="M438 49q-22 -22 -63 -41t-100 -19q-97 0 -156.5 51.5t-59.5 154.5q0 99 34.5 170t95.5 108t138 37q78 0 123 -40t45 -100q0 -99 -88 -129t-210 -30q-1 -14 -1 -44q0 -60 27.5 -85.5t77.5 -25.5q34 0 60.5 12t42.5 26.5t16 16.5l40 -36q0 -4 -22 -26zM240 401
q-29 -45 -39 -133q52 0 89 7.5t61.5 32.5t24.5 75q0 63 -65 63q-42 0 -71 -45zM476 594l-34 -45l-92 85l-117 -85l-22 45l115 122h70zM555 813.5q-15 -20.5 -42 -38t-66 -17.5q-22 0 -38 6t-41 19q-20 11 -35.5 17t-34.5 6q-16 0 -30 -10t-22.5 -21t-10.5 -14l-31 36
q0 3 18.5 26.5t48.5 43.5t68 20q26 0 44 -6.5t42 -19.5q19 -11 31.5 -16t28.5 -5t28 7t18.5 15t7.5 10l31 -35q0 -3 -15 -23.5z" />
    <glyph glyph-name="edieresis" unicode="&#xeb;" horiz-adv-x="474" 
d="M257 721q26 0 43 -17q14 -19 14 -41q0 -37 -29 -63q-22 -18 -48 -18t-43 18q-14 17 -14 41q0 17 7.5 33.5t20.5 29.5q22 17 49 17zM442 721q25 0 44 -17q14 -19 14 -41q0 -37 -29 -63q-22 -18 -49 -18t-42 18q-14 17 -14 41q0 17 7.5 33.5t20.5 29.5q22 17 48 17zM438 49
q-22 -22 -63 -41t-100 -19q-97 0 -156.5 51.5t-59.5 154.5q0 99 34.5 170t95.5 108t138 37q78 0 123 -40t45 -100q0 -99 -88 -129t-210 -30q-1 -14 -1 -44q0 -60 27.5 -85.5t77.5 -25.5q34 0 60.5 12t42.5 26.5t16 16.5l40 -36q0 -4 -22 -26zM240 401q-29 -45 -39 -133
q52 0 89 7.5t61.5 32.5t24.5 75q0 63 -65 63q-42 0 -71 -45z" />
    <glyph glyph-name="edotaccent" unicode="&#x117;" horiz-adv-x="474" 
d="M354 728q31 0 49 -19q15 -19 15 -45q0 -19 -8 -37.5t-23 -32.5q-25 -19 -55 -19q-32 0 -49 20q-16 17 -16 45q0 18 8.5 36.5t23.5 31.5q23 20 55 20zM438 49q-22 -22 -63 -41t-100 -19q-97 0 -156.5 51.5t-59.5 154.5q0 99 34.5 170t95.5 108t138 37q78 0 123 -40
t45 -100q0 -99 -88 -129t-210 -30q-1 -14 -1 -44q0 -60 27.5 -85.5t77.5 -25.5q34 0 60.5 12t42.5 26.5t16 16.5l40 -36q0 -4 -22 -26zM240 401q-29 -45 -39 -133q52 0 89 7.5t61.5 32.5t24.5 75q0 63 -65 63q-42 0 -71 -45z" />
    <glyph glyph-name="uni1EB9" unicode="&#x1eb9;" horiz-adv-x="474" 
d="M438 49q-22 -22 -63 -41t-100 -19q-97 0 -156.5 51.5t-59.5 154.5q0 99 34.5 170t95.5 108t138 37q78 0 123 -40t45 -100q0 -99 -88 -129t-210 -30q-1 -14 -1 -44q0 -60 27.5 -85.5t77.5 -25.5q34 0 60.5 12t42.5 26.5t16 16.5l40 -36q0 -4 -22 -26zM240 401
q-29 -45 -39 -133q52 0 89 7.5t61.5 32.5t24.5 75q0 63 -65 63q-42 0 -71 -45zM261 -82q26 0 43 -18q14 -16 14 -38q0 -35 -28 -60q-23 -17 -48 -17q-28 0 -43 17q-14 17 -14 39q0 16 7.5 31.5t20.5 27.5q21 18 48 18z" />
    <glyph glyph-name="egrave" unicode="&#xe8;" horiz-adv-x="474" 
d="M320 738l64 -147l-64 -17l-111 129zM438 49q-22 -22 -63 -41t-100 -19q-97 0 -156.5 51.5t-59.5 154.5q0 99 34.5 170t95.5 108t138 37q78 0 123 -40t45 -100q0 -99 -88 -129t-210 -30q-1 -14 -1 -44q0 -60 27.5 -85.5t77.5 -25.5q34 0 60.5 12t42.5 26.5t16 16.5l40 -36
q0 -4 -22 -26zM240 401q-29 -45 -39 -133q52 0 89 7.5t61.5 32.5t24.5 75q0 63 -65 63q-42 0 -71 -45z" />
    <glyph glyph-name="uni1EBB" unicode="&#x1ebb;" horiz-adv-x="474" 
d="M438 49q-22 -22 -63 -41t-100 -19q-97 0 -156.5 51.5t-59.5 154.5q0 99 34.5 170t95.5 108t138 37q78 0 123 -40t45 -100q0 -99 -88 -129t-210 -30q-1 -14 -1 -44q0 -60 27.5 -85.5t77.5 -25.5q34 0 60.5 12t42.5 26.5t16 16.5l40 -36q0 -4 -22 -26zM240 401
q-29 -45 -39 -133q52 0 89 7.5t61.5 32.5t24.5 75q0 63 -65 63q-42 0 -71 -45zM314 579q1 7 5.5 12t10 9t7.5 6q12 8 18.5 14.5t8.5 17.5q1 5 1 12q0 28 -33 28q-12 0 -22.5 -4t-17 -8t-7.5 -5l-22 57q3 2 14.5 7.5t29.5 11t38 5.5q93 0 93 -68q0 -15 -2 -24
q-4 -19 -14 -30.5t-28 -26.5q-2 -2 -8.5 -7t-10 -9.5t-4.5 -9.5l-2 -8l-58 -1q0 3 3 21z" />
    <glyph glyph-name="emacron" unicode="&#x113;" horiz-adv-x="474" 
d="M448 624h-215l8 58h214zM438 49q-22 -22 -63 -41t-100 -19q-97 0 -156.5 51.5t-59.5 154.5q0 99 34.5 170t95.5 108t138 37q78 0 123 -40t45 -100q0 -99 -88 -129t-210 -30q-1 -14 -1 -44q0 -60 27.5 -85.5t77.5 -25.5q34 0 60.5 12t42.5 26.5t16 16.5l40 -36
q0 -4 -22 -26zM240 401q-29 -45 -39 -133q52 0 89 7.5t61.5 32.5t24.5 75q0 63 -65 63q-42 0 -71 -45z" />
    <glyph glyph-name="eogonek" unicode="&#x119;" horiz-adv-x="474" 
d="M442.5 54q-17.5 -18 -49 -36.5t-76.5 -25.5q-30 -18 -52.5 -52.5t-22.5 -87.5q0 -30 17.5 -41.5t51.5 -11.5l-7 -49q-70 0 -110 21t-40 77q0 77 93 142q-86 7 -137 58.5t-51 146.5q0 99 34.5 170t95.5 108t138 37q78 0 123 -40t45 -100q0 -99 -88 -129t-210 -30
q-1 -14 -1 -44q0 -60 27.5 -85.5t77.5 -25.5q34 0 60.5 12t42.5 26.5t16 16.5l40 -36q0 -3 -17.5 -21zM240 401q-29 -45 -39 -133q52 0 89 7.5t61.5 32.5t24.5 75q0 63 -65 63q-42 0 -71 -45z" />
    <glyph glyph-name="uni1EBD" unicode="&#x1ebd;" horiz-adv-x="474" 
d="M438 49q-22 -22 -63 -41t-100 -19q-97 0 -156.5 51.5t-59.5 154.5q0 99 34.5 170t95.5 108t138 37q78 0 123 -40t45 -100q0 -99 -88 -129t-210 -30q-1 -14 -1 -44q0 -60 27.5 -85.5t77.5 -25.5q34 0 60.5 12t42.5 26.5t16 16.5l40 -36q0 -4 -22 -26zM240 401
q-29 -45 -39 -133q52 0 89 7.5t61.5 32.5t24.5 75q0 63 -65 63q-42 0 -71 -45zM522 646.5q-15 -20.5 -42 -38t-66 -17.5q-22 0 -38 6t-41 19q-20 11 -35.5 17t-34.5 6q-16 0 -30 -10t-22.5 -21t-10.5 -14l-31 36q0 3 18.5 26.5t48.5 43.5t68 20q26 0 44 -6.5t42 -19.5
q19 -11 31.5 -16t28.5 -5t28 7t18.5 15t7.5 10l31 -35q0 -3 -15 -23.5z" />
    <glyph glyph-name="f" unicode="f" horiz-adv-x="344" 
d="M92 423l9 60l50 14l11 74q14 91 57.5 140t127.5 49q25 0 48.5 -7.5t39 -15.5t19.5 -11l-25 -57q-3 2 -14 7.5t-26 11t-27 5.5q-19 0 -30.5 -10t-21 -39.5t-17.5 -87.5l-8 -56h125l-11 -77h-125l-64 -452q-17 -122 -72 -177t-137 -55q-28 0 -48 6.5t-30 14.5t-10 9l30 60
q2 -1 9 -6t18.5 -9t23.5 -4q32 0 51.5 35.5t31.5 125.5l64 452h-49z" />
    <glyph glyph-name="g" unicode="g" horiz-adv-x="461" 
d="M376 499l137 -1l-5 -59l-51 -3q18 -34 18 -77q0 -100 -61.5 -156t-161.5 -56q-38 0 -68 9q-23 -17 -23 -39q0 -18 19.5 -27t64.5 -9q111 0 159.5 -37t48.5 -106q0 -90 -62 -145t-183 -55q-102 0 -155.5 41.5t-53.5 112.5q0 54 23 87.5t58 50.5q-7 21 -7 42q0 67 59 109
q-28 20 -43.5 51t-15.5 72q0 69 31.5 115t83.5 68.5t115 22.5q38 0 73 -11zM334 430q-15 16 -43 16q-40 0 -65.5 -36t-25.5 -123q0 -79 58 -79q40 0 65.5 40t25.5 127q0 39 -15 55zM123 -16q-33 -29 -33 -83q0 -46 33.5 -70.5t94.5 -24.5q63 0 91 22.5t28 67.5q0 36 -26 52
t-88 16q-64 0 -100 20z" />
    <glyph glyph-name="gbreve" unicode="&#x11f;" horiz-adv-x="461" 
d="M374 648q20 12 27.5 25.5t7.5 17.5l1 4l65 -9q0 -10 -12 -39t-49.5 -56.5t-106.5 -27.5q-78 0 -105.5 34t-27.5 73q0 6 0.5 10.5t0.5 5.5l67 9v-4q0 -15 13 -35t63 -20q36 0 56 12zM376 499l137 -1l-5 -59l-51 -3q18 -34 18 -77q0 -100 -61.5 -156t-161.5 -56
q-38 0 -68 9q-23 -17 -23 -39q0 -18 19.5 -27t64.5 -9q111 0 159.5 -37t48.5 -106q0 -90 -62 -145t-183 -55q-102 0 -155.5 41.5t-53.5 112.5q0 54 23 87.5t58 50.5q-7 21 -7 42q0 67 59 109q-28 20 -43.5 51t-15.5 72q0 69 31.5 115t83.5 68.5t115 22.5q38 0 73 -11z
M334 430q-15 16 -43 16q-40 0 -65.5 -36t-25.5 -123q0 -79 58 -79q40 0 65.5 40t25.5 127q0 39 -15 55zM123 -16q-33 -29 -33 -83q0 -46 33.5 -70.5t94.5 -24.5q63 0 91 22.5t28 67.5q0 36 -26 52t-88 16q-64 0 -100 20z" />
    <glyph glyph-name="gcommaaccent" unicode="&#x123;" horiz-adv-x="461" 
d="M307 557q-25 0 -41 16q-20 24 -20 61q0 54 38 116.5t93 99.5l25 -31q-40 -32 -61.5 -68t-22.5 -70h7q24 0 40 -16q13 -16 13 -36q0 -15 -6.5 -30t-19.5 -26q-19 -16 -45 -16zM376 499l137 -1l-5 -59l-51 -3q18 -34 18 -77q0 -100 -61.5 -156t-161.5 -56q-38 0 -68 9
q-23 -17 -23 -39q0 -18 19.5 -27t64.5 -9q111 0 159.5 -37t48.5 -106q0 -90 -62 -145t-183 -55q-102 0 -155.5 41.5t-53.5 112.5q0 54 23 87.5t58 50.5q-7 21 -7 42q0 67 59 109q-28 20 -43.5 51t-15.5 72q0 69 31.5 115t83.5 68.5t115 22.5q38 0 73 -11zM334 430
q-15 16 -43 16q-40 0 -65.5 -36t-25.5 -123q0 -79 58 -79q40 0 65.5 40t25.5 127q0 39 -15 55zM123 -16q-33 -29 -33 -83q0 -46 33.5 -70.5t94.5 -24.5q63 0 91 22.5t28 67.5q0 36 -26 52t-88 16q-64 0 -100 20z" />
    <glyph glyph-name="h" unicode="h" horiz-adv-x="533" 
d="M297 754l-41 -288h4l13 10.5t47 22t73 11.5q137 0 137 -128q0 -20 -3 -43l-47 -339h-133l46 328q3 24 3 41q0 33 -13 45.5t-44 12.5q-25 0 -46 -8t-32.5 -16.5t-14.5 -11.5l-55 -391h-133l105 746z" />
    <glyph glyph-name="i" unicode="i" horiz-adv-x="249" 
d="M227 728q31 0 49 -19q15 -19 15 -45q0 -19 -8 -37.5t-23 -32.5q-25 -19 -55 -19q-32 0 -49 20q-16 17 -16 45q0 18 8.5 36.5t23.5 31.5q23 20 55 20zM191 0h-133l70 500h133z" />
    <glyph glyph-name="dotlessi" unicode="&#x131;" horiz-adv-x="249" 
d="M191 0h-133l70 500h133z" />
    <glyph glyph-name="iacute" unicode="&#xed;" horiz-adv-x="249" 
d="M352 699l-139 -130l-56 9l91 152zM191 0h-133l70 500h133z" />
    <glyph glyph-name="icircumflex" unicode="&#xee;" horiz-adv-x="249" 
d="M347 631l-34 -45l-92 85l-117 -85l-22 45l115 122h70zM191 0h-133l70 500h133z" />
    <glyph glyph-name="idieresis" unicode="&#xef;" horiz-adv-x="249" 
d="M132 721q26 0 43 -17q14 -19 14 -41q0 -37 -29 -63q-22 -18 -48 -18q-27 0 -43 18q-14 17 -14 41q0 17 7.5 33.5t20.5 29.5q22 17 49 17zM317 721q25 0 44 -17q14 -19 14 -41q0 -37 -29 -63q-22 -18 -49 -18t-42 18q-14 17 -14 41q0 17 7.5 33.5t20.5 29.5q22 17 48 17z
M191 0h-133l70 500h133z" />
    <glyph glyph-name="uni1ECB" unicode="&#x1ecb;" horiz-adv-x="249" 
d="M227 728q31 0 49 -19q15 -19 15 -45q0 -19 -8 -37.5t-23 -32.5q-25 -19 -55 -19q-32 0 -49 20q-16 17 -16 45q0 18 8.5 36.5t23.5 31.5q23 20 55 20zM191 0h-133l70 500h133zM110 -82q26 0 43 -18q14 -16 14 -38q0 -35 -28 -60q-23 -17 -48 -17q-28 0 -43 17
q-14 17 -14 39q0 16 7.5 31.5t20.5 27.5q21 18 48 18z" />
    <glyph glyph-name="igrave" unicode="&#xec;" horiz-adv-x="249" 
d="M191 738l64 -147l-64 -17l-111 129zM191 0h-133l70 500h133z" />
    <glyph glyph-name="uni1EC9" unicode="&#x1ec9;" horiz-adv-x="249" 
d="M191 0h-133l70 500h133zM180 579q1 7 5.5 12t10 9t7.5 6q12 8 18.5 14.5t8.5 17.5q1 5 1 12q0 28 -33 28q-12 0 -22.5 -4t-17 -8t-7.5 -5l-22 57q3 2 14.5 7.5t29.5 11t38 5.5q93 0 93 -68q0 -15 -2 -24q-4 -19 -14 -30.5t-28 -26.5q-2 -2 -8.5 -7t-10 -9.5t-4.5 -9.5
l-2 -8l-58 -1q0 3 3 21z" />
    <glyph glyph-name="imacron" unicode="&#x12b;" horiz-adv-x="249" 
d="M320 624h-215l8 58h214zM191 0h-133l70 500h133z" />
    <glyph glyph-name="iogonek" unicode="&#x12f;" horiz-adv-x="249" 
d="M223 728q31 0 49 -19q15 -20 15 -45q0 -19 -8 -37.5t-23 -32.5q-25 -19 -55 -19q-32 0 -49 20q-16 17 -16 45q0 18 8.5 36.5t23.5 31.5q23 20 55 20zM114 0q-32 -16 -60.5 -52t-28.5 -96q0 -30 17.5 -41.5t51.5 -11.5l-7 -49q-70 0 -110 21t-40 77q0 51 36 91.5t86 68.5
l69 492h133l-70 -500h-77z" />
    <glyph glyph-name="itilde" unicode="&#x129;" horiz-adv-x="249" 
d="M191 0h-133l70 500h133zM388 646.5q-15 -20.5 -42 -38t-66 -17.5q-22 0 -38 6t-41 19q-20 11 -35.5 17t-34.5 6q-16 0 -30 -10t-22.5 -21t-10.5 -14l-31 36q0 3 18.5 26.5t48.5 43.5t68 20q26 0 44 -6.5t42 -19.5q19 -11 31.5 -16t28.5 -5t28 7t18.5 15t7.5 10l31 -35
q0 -3 -15 -23.5z" />
    <glyph glyph-name="j" unicode="j" horiz-adv-x="276" 
d="M254 728q31 0 49 -19q15 -19 15 -45q0 -19 -8 -37.5t-23 -32.5q-25 -19 -55 -19q-32 0 -49 20q-16 17 -16 45q0 18 8.5 36.5t23.5 31.5q23 20 55 20zM287 500l-74 -529q-17 -121 -72.5 -176.5t-136.5 -55.5q-29 0 -48.5 6.5t-29.5 14.5t-10 9l30 60q2 -1 8.5 -6t18 -9
t23.5 -4q33 0 52.5 35.5t31.5 125.5l74 529h133z" />
    <glyph glyph-name="uni0237" unicode="&#x237;" horiz-adv-x="276" 
d="M287 500l-74 -529q-17 -121 -72.5 -176.5t-136.5 -55.5q-29 0 -48.5 6.5t-29.5 14.5t-10 9l30 60q2 -1 8.5 -6t18 -9t23.5 -4q33 0 52.5 35.5t31.5 125.5l74 529h133z" />
    <glyph glyph-name="k" unicode="k" horiz-adv-x="490" 
d="M163 746l134 8l-66 -466l76 47l129 165h82l-155 -185l117 -315h-152l-79 234l-28 -16l-30 -218h-133z" />
    <glyph glyph-name="kcommaaccent" unicode="&#x137;" horiz-adv-x="490" 
d="M163 746l134 8l-66 -466l76 47l129 165h82l-155 -185l117 -315h-152l-79 234l-28 -16l-30 -218h-133zM252 -46q25 0 41 -16q20 -24 20 -61q0 -54 -38 -116.5t-93 -99.5l-25 31q40 32 61.5 68t22.5 70h-7q-24 0 -40 16q-13 16 -13 36q0 15 6.5 30t19.5 26q19 16 45 16z
" />
    <glyph glyph-name="l" unicode="l" horiz-adv-x="250" 
d="M191 0h-133l105 746l134 8z" />
    <glyph glyph-name="lacute" unicode="&#x13a;" horiz-adv-x="250" 
d="M403 924l-139 -130l-56 9l91 152zM191 0h-133l105 746l134 8z" />
    <glyph glyph-name="lcaron" unicode="&#x13e;" horiz-adv-x="250" 
d="M461 786l-101 -234l-47 4l59 244zM191 0h-133l105 746l134 8z" />
    <glyph glyph-name="lcommaaccent" unicode="&#x13c;" horiz-adv-x="250" 
d="M191 0h-133l105 746l134 8zM120 -46q25 0 41 -16q20 -24 20 -61q0 -54 -38 -116.5t-93 -99.5l-25 31q40 32 61.5 68t22.5 70h-7q-24 0 -40 16q-13 16 -13 36q0 15 6.5 30t19.5 26q19 16 45 16z" />
    <glyph glyph-name="lslash" unicode="&#x142;" horiz-adv-x="293" 
d="M279 470l79 55l24 -38l-112 -77l-57 -410h-133l43 308l-57 -39l-23 39l89 61l53 377l134 8z" />
    <glyph glyph-name="m" unicode="m" horiz-adv-x="756" 
d="M235 500l11 -45h3q0 2 19 16.5t49 26.5t67 12q86 0 107 -57q17 17 53 37t93 20q61 0 89.5 -27t28.5 -86q0 -14 -4 -48l-49 -349h-133l48 339q3 23 3 38q0 30 -11 40.5t-33 10.5q-26 0 -45.5 -14t-31.5 -29l-3 -34l-49 -351h-133l47 339q3 24 3 39q0 29 -10.5 39.5
t-31.5 10.5q-40 0 -76 -36l-55 -392h-133l70 500h107z" />
    <glyph glyph-name="n" unicode="n" horiz-adv-x="534" 
d="M235 500l12 -40h3q0 2 17.5 15t49.5 24t77 11q68 0 102.5 -31.5t34.5 -97.5q0 -19 -3 -42l-47 -339h-133q6 47 21 155.5t25 172.5q3 21 3 37q0 35 -14.5 48.5t-46.5 13.5t-56 -13t-34 -23l-55 -391h-133l70 500h107z" />
    <glyph glyph-name="nacute" unicode="&#x144;" horiz-adv-x="534" 
d="M485 699l-139 -130l-56 9l91 152zM235 500l12 -40h3q0 2 17.5 15t49.5 24t77 11q68 0 102.5 -31.5t34.5 -97.5q0 -19 -3 -42l-47 -339h-133q6 47 21 155.5t25 172.5q3 21 3 37q0 35 -14.5 48.5t-46.5 13.5t-56 -13t-34 -23l-55 -391h-133l70 500h107z" />
    <glyph glyph-name="ncaron" unicode="&#x148;" horiz-adv-x="534" 
d="M221 710l47 35l95 -93l121 93l37 -39l-134 -134h-70zM235 500l12 -40h3q0 2 17.5 15t49.5 24t77 11q68 0 102.5 -31.5t34.5 -97.5q0 -19 -3 -42l-47 -339h-133q6 47 21 155.5t25 172.5q3 21 3 37q0 35 -14.5 48.5t-46.5 13.5t-56 -13t-34 -23l-55 -391h-133l70 500h107z
" />
    <glyph glyph-name="ncommaaccent" unicode="&#x146;" horiz-adv-x="534" 
d="M235 500l12 -40h3q0 2 17.5 15t49.5 24t77 11q68 0 102.5 -31.5t34.5 -97.5q0 -19 -3 -42l-47 -339h-133q6 47 21 155.5t25 172.5q3 21 3 37q0 35 -14.5 48.5t-46.5 13.5t-56 -13t-34 -23l-55 -391h-133l70 500h107zM259 -46q25 0 41 -16q20 -24 20 -61q0 -54 -38 -116.5
t-93 -99.5l-25 31q40 32 61.5 68t22.5 70h-7q-24 0 -40 16q-13 16 -13 36q0 15 6.5 30t19.5 26q19 16 45 16z" />
    <glyph glyph-name="ntilde" unicode="&#xf1;" horiz-adv-x="534" 
d="M518 646.5q-15 -20.5 -42 -38t-66 -17.5q-22 0 -38 6t-41 19q-20 11 -35.5 17t-34.5 6q-16 0 -30 -10t-22.5 -21t-10.5 -14l-31 36q0 3 18.5 26.5t48.5 43.5t68 20q26 0 44 -6.5t42 -19.5q19 -11 31.5 -16t28.5 -5t28 7t18.5 15t7.5 10l31 -35q0 -3 -15 -23.5zM235 500
l12 -40h3q0 2 17.5 15t49.5 24t77 11q68 0 102.5 -31.5t34.5 -97.5q0 -19 -3 -42l-47 -339h-133q6 47 21 155.5t25 172.5q3 21 3 37q0 35 -14.5 48.5t-46.5 13.5t-56 -13t-34 -23l-55 -391h-133l70 500h107z" />
    <glyph glyph-name="o" unicode="o" horiz-adv-x="525" 
d="M501 138.5q-34 -71.5 -96.5 -110.5t-144.5 -39q-93 0 -146.5 53.5t-53.5 152.5q0 95 32.5 166.5t94 110.5t147.5 39q94 0 147.5 -53.5t53.5 -152.5q0 -95 -34 -166.5zM230 373.5q-32 -70.5 -32 -214.5q0 -104 76 -104q59 0 91 71t32 215q0 51 -18 77t-58 26
q-59 0 -91 -70.5z" />
    <glyph glyph-name="oacute" unicode="&#xf3;" horiz-adv-x="525" 
d="M480 699l-139 -130l-56 9l91 152zM501 138.5q-34 -71.5 -96.5 -110.5t-144.5 -39q-93 0 -146.5 53.5t-53.5 152.5q0 95 32.5 166.5t94 110.5t147.5 39q94 0 147.5 -53.5t53.5 -152.5q0 -95 -34 -166.5zM230 373.5q-32 -70.5 -32 -214.5q0 -104 76 -104q59 0 91 71t32 215
q0 51 -18 77t-58 26q-59 0 -91 -70.5z" />
    <glyph glyph-name="ocircumflex" unicode="&#xf4;" horiz-adv-x="525" 
d="M470 631l-34 -45l-92 85l-117 -85l-22 45l115 122h70zM501 138.5q-34 -71.5 -96.5 -110.5t-144.5 -39q-93 0 -146.5 53.5t-53.5 152.5q0 95 32.5 166.5t94 110.5t147.5 39q94 0 147.5 -53.5t53.5 -152.5q0 -95 -34 -166.5zM230 373.5q-32 -70.5 -32 -214.5
q0 -104 76 -104q59 0 91 71t32 215q0 51 -18 77t-58 26q-59 0 -91 -70.5z" />
    <glyph glyph-name="uni1ED1" unicode="&#x1ed1;" horiz-adv-x="525" 
d="M501 138.5q-34 -71.5 -96.5 -110.5t-144.5 -39q-93 0 -146.5 53.5t-53.5 152.5q0 95 32.5 166.5t94 110.5t147.5 39q94 0 147.5 -53.5t53.5 -152.5q0 -95 -34 -166.5zM230 373.5q-32 -70.5 -32 -214.5q0 -104 76 -104q59 0 91 71t32 215q0 51 -18 77t-58 26
q-59 0 -91 -70.5zM482 594l-34 -45l-92 85l-117 -85l-22 45l115 122h70zM666 764l-139 -130l-56 9l91 152z" />
    <glyph glyph-name="uni1ED9" unicode="&#x1ed9;" horiz-adv-x="525" 
d="M501 138.5q-34 -71.5 -96.5 -110.5t-144.5 -39q-93 0 -146.5 53.5t-53.5 152.5q0 95 32.5 166.5t94 110.5t147.5 39q94 0 147.5 -53.5t53.5 -152.5q0 -95 -34 -166.5zM230 373.5q-32 -70.5 -32 -214.5q0 -104 76 -104q59 0 91 71t32 215q0 51 -18 77t-58 26
q-59 0 -91 -70.5zM246 -82q26 0 43 -18q14 -16 14 -38q0 -35 -28 -60q-23 -17 -48 -17q-28 0 -43 17q-14 17 -14 39q0 16 7.5 31.5t20.5 27.5q21 18 48 18zM482 594l-34 -45l-92 85l-117 -85l-22 45l115 122h70z" />
    <glyph glyph-name="uni1ED3" unicode="&#x1ed3;" horiz-adv-x="525" 
d="M501 138.5q-34 -71.5 -96.5 -110.5t-144.5 -39q-93 0 -146.5 53.5t-53.5 152.5q0 95 32.5 166.5t94 110.5t147.5 39q94 0 147.5 -53.5t53.5 -152.5q0 -95 -34 -166.5zM230 373.5q-32 -70.5 -32 -214.5q0 -104 76 -104q59 0 91 71t32 215q0 51 -18 77t-58 26
q-59 0 -91 -70.5zM482 594l-34 -45l-92 85l-117 -85l-22 45l115 122h70zM479 863l64 -147l-64 -17l-111 129z" />
    <glyph glyph-name="uni1ED5" unicode="&#x1ed5;" horiz-adv-x="525" 
d="M501 138.5q-34 -71.5 -96.5 -110.5t-144.5 -39q-93 0 -146.5 53.5t-53.5 152.5q0 95 32.5 166.5t94 110.5t147.5 39q94 0 147.5 -53.5t53.5 -152.5q0 -95 -34 -166.5zM230 373.5q-32 -70.5 -32 -214.5q0 -104 76 -104q59 0 91 71t32 215q0 51 -18 77t-58 26
q-59 0 -91 -70.5zM482 594l-34 -45l-92 85l-117 -85l-22 45l115 122h70zM484 683q1 7 5.5 12t10 9t7.5 6q12 8 18.5 14.5t8.5 17.5q1 5 1 12q0 28 -33 28q-12 0 -22.5 -4t-17 -8t-7.5 -5l-22 57q3 2 14.5 7.5t29.5 11t38 5.5q93 0 93 -68q0 -15 -2 -24q-4 -19 -14 -30.5
t-28 -26.5q-2 -2 -8.5 -7t-10 -9.5t-4.5 -9.5l-2 -8l-58 -1q0 3 3 21z" />
    <glyph glyph-name="uni1ED7" unicode="&#x1ed7;" horiz-adv-x="525" 
d="M501 138.5q-34 -71.5 -96.5 -110.5t-144.5 -39q-93 0 -146.5 53.5t-53.5 152.5q0 95 32.5 166.5t94 110.5t147.5 39q94 0 147.5 -53.5t53.5 -152.5q0 -95 -34 -166.5zM230 373.5q-32 -70.5 -32 -214.5q0 -104 76 -104q59 0 91 71t32 215q0 51 -18 77t-58 26
q-59 0 -91 -70.5zM482 594l-34 -45l-92 85l-117 -85l-22 45l115 122h70zM561 813.5q-15 -20.5 -42 -38t-66 -17.5q-22 0 -38 6t-41 19q-20 11 -35.5 17t-34.5 6q-16 0 -30 -10t-22.5 -21t-10.5 -14l-31 36q0 3 18.5 26.5t48.5 43.5t68 20q26 0 44 -6.5t42 -19.5
q19 -11 31.5 -16t28.5 -5t28 7t18.5 15t7.5 10l31 -35q0 -3 -15 -23.5z" />
    <glyph glyph-name="odieresis" unicode="&#xf6;" horiz-adv-x="525" 
d="M256 721q26 0 43 -17q14 -19 14 -41q0 -37 -29 -63q-22 -18 -48 -18q-27 0 -43 18q-14 17 -14 41q0 17 7.5 33.5t20.5 29.5q22 17 49 17zM441 721q25 0 44 -17q14 -19 14 -41q0 -37 -29 -63q-22 -18 -49 -18t-42 18q-14 17 -14 41q0 17 7.5 33.5t20.5 29.5q22 17 48 17z
M501 138.5q-34 -71.5 -96.5 -110.5t-144.5 -39q-93 0 -146.5 53.5t-53.5 152.5q0 95 32.5 166.5t94 110.5t147.5 39q94 0 147.5 -53.5t53.5 -152.5q0 -95 -34 -166.5zM230 373.5q-32 -70.5 -32 -214.5q0 -104 76 -104q59 0 91 71t32 215q0 51 -18 77t-58 26q-59 0 -91 -70.5
z" />
    <glyph glyph-name="uni1ECD" unicode="&#x1ecd;" horiz-adv-x="525" 
d="M501 138.5q-34 -71.5 -96.5 -110.5t-144.5 -39q-93 0 -146.5 53.5t-53.5 152.5q0 95 32.5 166.5t94 110.5t147.5 39q94 0 147.5 -53.5t53.5 -152.5q0 -95 -34 -166.5zM230 373.5q-32 -70.5 -32 -214.5q0 -104 76 -104q59 0 91 71t32 215q0 51 -18 77t-58 26
q-59 0 -91 -70.5zM246 -82q26 0 43 -18q14 -16 14 -38q0 -35 -28 -60q-23 -17 -48 -17q-28 0 -43 17q-14 17 -14 39q0 16 7.5 31.5t20.5 27.5q21 18 48 18z" />
    <glyph glyph-name="ograve" unicode="&#xf2;" horiz-adv-x="525" 
d="M319 738l64 -147l-64 -17l-111 129zM501 138.5q-34 -71.5 -96.5 -110.5t-144.5 -39q-93 0 -146.5 53.5t-53.5 152.5q0 95 32.5 166.5t94 110.5t147.5 39q94 0 147.5 -53.5t53.5 -152.5q0 -95 -34 -166.5zM230 373.5q-32 -70.5 -32 -214.5q0 -104 76 -104q59 0 91 71
t32 215q0 51 -18 77t-58 26q-59 0 -91 -70.5z" />
    <glyph glyph-name="uni1ECF" unicode="&#x1ecf;" horiz-adv-x="525" 
d="M501 138.5q-34 -71.5 -96.5 -110.5t-144.5 -39q-93 0 -146.5 53.5t-53.5 152.5q0 95 32.5 166.5t94 110.5t147.5 39q94 0 147.5 -53.5t53.5 -152.5q0 -95 -34 -166.5zM230 373.5q-32 -70.5 -32 -214.5q0 -104 76 -104q59 0 91 71t32 215q0 51 -18 77t-58 26
q-59 0 -91 -70.5zM320 579q1 7 5.5 12t10 9t7.5 6q12 8 18.5 14.5t8.5 17.5q1 5 1 12q0 28 -33 28q-12 0 -22.5 -4t-17 -8t-7.5 -5l-22 57q3 2 14.5 7.5t29.5 11t38 5.5q93 0 93 -68q0 -15 -2 -24q-4 -19 -14 -30.5t-28 -26.5q-2 -2 -8.5 -7t-10 -9.5t-4.5 -9.5l-2 -8
l-58 -1q0 3 3 21z" />
    <glyph glyph-name="ohorn" unicode="&#x1a1;" horiz-adv-x="525" 
d="M535 305q0 -95 -34 -166.5t-96.5 -110.5t-144.5 -39q-93 0 -146.5 53.5t-53.5 152.5q0 95 32.5 166.5t94 110.5t147.5 39q43 0 74 -10q29 3 48.5 24t28.5 64h87q-8 -42 -32.5 -76t-61.5 -53q57 -54 57 -155zM365 126q32 71 32 215q0 51 -18 77t-58 26q-59 0 -91 -70.5
t-32 -214.5q0 -104 76 -104q59 0 91 71z" />
    <glyph glyph-name="uni1EDB" unicode="&#x1edb;" horiz-adv-x="525" 
d="M535 305q0 -95 -34 -166.5t-96.5 -110.5t-144.5 -39q-93 0 -146.5 53.5t-53.5 152.5q0 95 32.5 166.5t94 110.5t147.5 39q43 0 74 -10q29 3 48.5 24t28.5 64h87q-8 -42 -32.5 -76t-61.5 -53q57 -54 57 -155zM365 126q32 71 32 215q0 51 -18 77t-58 26q-59 0 -91 -70.5
t-32 -214.5q0 -104 76 -104q59 0 91 71zM456 699l-139 -130l-56 9l91 152z" />
    <glyph glyph-name="uni1EE3" unicode="&#x1ee3;" horiz-adv-x="525" 
d="M535 305q0 -95 -34 -166.5t-96.5 -110.5t-144.5 -39q-93 0 -146.5 53.5t-53.5 152.5q0 95 32.5 166.5t94 110.5t147.5 39q43 0 74 -10q29 3 48.5 24t28.5 64h87q-8 -42 -32.5 -76t-61.5 -53q57 -54 57 -155zM365 126q32 71 32 215q0 51 -18 77t-58 26q-59 0 -91 -70.5
t-32 -214.5q0 -104 76 -104q59 0 91 71zM246 -82q26 0 43 -18q14 -16 14 -38q0 -35 -28 -60q-23 -17 -48 -17q-28 0 -43 17q-14 17 -14 39q0 16 7.5 31.5t20.5 27.5q21 18 48 18z" />
    <glyph glyph-name="uni1EDD" unicode="&#x1edd;" horiz-adv-x="525" 
d="M535 305q0 -95 -34 -166.5t-96.5 -110.5t-144.5 -39q-93 0 -146.5 53.5t-53.5 152.5q0 95 32.5 166.5t94 110.5t147.5 39q43 0 74 -10q29 3 48.5 24t28.5 64h87q-8 -42 -32.5 -76t-61.5 -53q57 -54 57 -155zM365 126q32 71 32 215q0 51 -18 77t-58 26q-59 0 -91 -70.5
t-32 -214.5q0 -104 76 -104q59 0 91 71zM383 738l64 -147l-64 -17l-111 129z" />
    <glyph glyph-name="uni1EDF" unicode="&#x1edf;" horiz-adv-x="525" 
d="M535 305q0 -95 -34 -166.5t-96.5 -110.5t-144.5 -39q-93 0 -146.5 53.5t-53.5 152.5q0 95 32.5 166.5t94 110.5t147.5 39q43 0 74 -10q29 3 48.5 24t28.5 64h87q-8 -42 -32.5 -76t-61.5 -53q57 -54 57 -155zM365 126q32 71 32 215q0 51 -18 77t-58 26q-59 0 -91 -70.5
t-32 -214.5q0 -104 76 -104q59 0 91 71zM320 579q1 7 5.5 12t10 9t7.5 6q12 8 18.5 14.5t8.5 17.5q1 5 1 12q0 28 -33 28q-12 0 -22.5 -4t-17 -8t-7.5 -5l-22 57q3 2 14.5 7.5t29.5 11t38 5.5q93 0 93 -68q0 -15 -2 -24q-4 -19 -14 -30.5t-28 -26.5q-2 -2 -8.5 -7t-10 -9.5
t-4.5 -9.5l-2 -8l-58 -1q0 3 3 21z" />
    <glyph glyph-name="uni1EE1" unicode="&#x1ee1;" horiz-adv-x="525" 
d="M535 305q0 -95 -34 -166.5t-96.5 -110.5t-144.5 -39q-93 0 -146.5 53.5t-53.5 152.5q0 95 32.5 166.5t94 110.5t147.5 39q43 0 74 -10q29 3 48.5 24t28.5 64h87q-8 -42 -32.5 -76t-61.5 -53q57 -54 57 -155zM365 126q32 71 32 215q0 51 -18 77t-58 26q-59 0 -91 -70.5
t-32 -214.5q0 -104 76 -104q59 0 91 71zM528 646.5q-15 -20.5 -42 -38t-66 -17.5q-22 0 -38 6t-41 19q-20 11 -35.5 17t-34.5 6q-16 0 -30 -10t-22.5 -21t-10.5 -14l-31 36q0 3 18.5 26.5t48.5 43.5t68 20q26 0 44 -6.5t42 -19.5q19 -11 31.5 -16t28.5 -5t28 7t18.5 15
t7.5 10l31 -35q0 -3 -15 -23.5z" />
    <glyph glyph-name="ohungarumlaut" unicode="&#x151;" horiz-adv-x="525" 
d="M296 738l89 -26l-116 -150l-47 23zM452 738l89 -26l-116 -150l-48 23zM501 138.5q-34 -71.5 -96.5 -110.5t-144.5 -39q-93 0 -146.5 53.5t-53.5 152.5q0 95 32.5 166.5t94 110.5t147.5 39q94 0 147.5 -53.5t53.5 -152.5q0 -95 -34 -166.5zM230 373.5
q-32 -70.5 -32 -214.5q0 -104 76 -104q59 0 91 71t32 215q0 51 -18 77t-58 26q-59 0 -91 -70.5z" />
    <glyph glyph-name="omacron" unicode="&#x14d;" horiz-adv-x="525" 
d="M457 624h-215l8 58h214zM501 138.5q-34 -71.5 -96.5 -110.5t-144.5 -39q-93 0 -146.5 53.5t-53.5 152.5q0 95 32.5 166.5t94 110.5t147.5 39q94 0 147.5 -53.5t53.5 -152.5q0 -95 -34 -166.5zM230 373.5q-32 -70.5 -32 -214.5q0 -104 76 -104q59 0 91 71t32 215
q0 51 -18 77t-58 26q-59 0 -91 -70.5z" />
    <glyph glyph-name="oslash" unicode="&#xf8;" horiz-adv-x="529" 
d="M501 138.5q-34 -71.5 -96.5 -110.5t-144.5 -39q-33 0 -63 8l-95 -180l-55 11l99 188q-42 25 -64 70.5t-22 108.5q0 95 32.5 166.5t94 110.5t147.5 39q37 0 69 -9l78 148l56 -11l-84 -159q40 -26 61 -70t21 -105q0 -95 -34 -166.5zM230 373.5q-32 -70.5 -32 -214.5
q0 -22 3 -39l164 311q-18 13 -44 13q-59 0 -91 -70.5zM395 371l-162 -306q16 -10 41 -10q59 0 91 71t32 215q0 12 -2 30z" />
    <glyph glyph-name="otilde" unicode="&#xf5;" horiz-adv-x="525" 
d="M511 646.5q-15 -20.5 -42 -38t-66 -17.5q-22 0 -38 6t-41 19q-20 11 -35.5 17t-34.5 6q-16 0 -30 -10t-22.5 -21t-10.5 -14l-31 36q0 3 18.5 26.5t48.5 43.5t68 20q26 0 44 -6.5t42 -19.5q19 -11 31.5 -16t28.5 -5t28 7t18.5 15t7.5 10l31 -35q0 -3 -15 -23.5zM501 138.5
q-34 -71.5 -96.5 -110.5t-144.5 -39q-93 0 -146.5 53.5t-53.5 152.5q0 95 32.5 166.5t94 110.5t147.5 39q94 0 147.5 -53.5t53.5 -152.5q0 -95 -34 -166.5zM230 373.5q-32 -70.5 -32 -214.5q0 -104 76 -104q59 0 91 71t32 215q0 51 -18 77t-58 26q-59 0 -91 -70.5z" />
    <glyph glyph-name="oe" unicode="&#x153;" horiz-adv-x="807" 
d="M771 49q-22 -22 -63 -41t-100 -19q-54 0 -97.5 16t-72.5 48q-72 -64 -178 -64q-93 0 -146.5 53.5t-53.5 152.5q0 95 32.5 166.5t94 110.5t147.5 39q101 0 155 -63q33 31 77 46.5t94 15.5q78 0 123 -40t45 -100q0 -99 -88 -129t-210 -30q-1 -14 -1 -44q0 -60 27.5 -85.5
t77.5 -25.5q34 0 60.5 12t42.5 26.5t16 16.5l40 -36q0 -4 -22 -26zM573 401q-29 -45 -39 -133q52 0 89 7.5t61.5 32.5t24.5 75q0 63 -65 63q-42 0 -71 -45zM230 373.5q-32 -70.5 -32 -214.5q0 -104 76 -104q59 0 91 71t32 215q0 51 -18 77t-58 26q-59 0 -91 -70.5z" />
    <glyph glyph-name="p" unicode="p" horiz-adv-x="543" 
d="M235 500l12 -45h2q0 2 17 16.5t47 27t72 12.5q77 0 123 -54.5t46 -146.5q0 -91 -30.5 -164t-85 -115t-125.5 -42q-39 0 -64.5 8.5t-38 18t-12.5 11.5h-3l-39 -277l-133 -4l105 754h107zM204 96q7 -10 23.5 -20.5t46.5 -10.5q65 0 102 61t37 195q0 60 -21 86t-61 26
q-24 0 -43 -9.5t-30.5 -20.5t-11.5 -13l-1 1z" />
    <glyph glyph-name="thorn" unicode="&#xfe;" horiz-adv-x="541" 
d="M295 754l-41 -291h5q0 2 13.5 14t41 22.5t67.5 10.5q78 0 125 -55t47 -148q0 -89 -31 -161.5t-88 -114.5t-133 -42q-67 0 -109 30l-38 -269l-133 -4l35 254l105 746zM275 414q-24 -19 -32 -33l-40 -285q5 -9 21.5 -20t51.5 -11q64 0 100.5 65t36.5 201q0 102 -79 102
q-35 0 -59 -19z" />
    <glyph glyph-name="q" unicode="q" horiz-adv-x="543" 
d="M315 -254l41 290h-4q0 -2 -13.5 -14t-40.5 -22.5t-67 -10.5q-79 0 -125.5 55.5t-46.5 148.5q0 90 33 162.5t90.5 114t127.5 41.5q37 0 64 -9.5t41.5 -20t14.5 -12.5h1l34 31h90l-106 -750zM366 108l41 294q-4 9 -21 21t-48 12q-138 0 -138 -253q0 -64 20.5 -89.5
t61.5 -25.5q50 0 84 41z" />
    <glyph glyph-name="r" unicode="r" horiz-adv-x="353" 
d="M360 412q-28 6 -50 6q-42 0 -68 -58l-51 -360h-133l70 500h94l11 -84h3q0 5 11 29t32.5 45t54.5 21q21 0 48.5 -6l36.5 -8l-22 -93z" />
    <glyph glyph-name="racute" unicode="&#x155;" horiz-adv-x="353" 
d="M429 699l-139 -130l-56 9l91 152zM360 412q-28 6 -50 6q-42 0 -68 -58l-51 -360h-133l70 500h94l11 -84h3q0 5 11 29t32.5 45t54.5 21q21 0 48.5 -6l36.5 -8l-22 -93z" />
    <glyph glyph-name="rcaron" unicode="&#x159;" horiz-adv-x="353" 
d="M153 710l47 35l95 -93l121 93l37 -39l-134 -134h-70zM360 412q-28 6 -50 6q-42 0 -68 -58l-51 -360h-133l70 500h94l11 -84h3q0 5 11 29t32.5 45t54.5 21q21 0 48.5 -6l36.5 -8l-22 -93z" />
    <glyph glyph-name="rcommaaccent" unicode="&#x157;" horiz-adv-x="353" 
d="M360 412q-28 6 -50 6q-42 0 -68 -58l-51 -360h-133l70 500h94l11 -84h3q0 5 11 29t32.5 45t54.5 21q21 0 48.5 -6l36.5 -8l-22 -93zM115 -46q25 0 41 -16q20 -24 20 -61q0 -54 -38 -116.5t-93 -99.5l-25 31q40 32 61.5 68t22.5 70h-7q-24 0 -40 16q-13 16 -13 36
q0 15 6.5 30t19.5 26q19 16 45 16z" />
    <glyph glyph-name="s" unicode="s" horiz-adv-x="417" 
d="M94.5 95q13.5 -15 36 -27.5t52.5 -12.5q41 0 62.5 22t21.5 55q0 26 -17 41.5t-55 37.5q-32 18 -52 33t-34.5 39.5t-14.5 59.5q0 55 28 93t73.5 56.5t98.5 18.5q32 0 62 -9.5t49 -19.5t24 -13l-21 -67l-22.5 13.5t-42 20.5t-46.5 10q-34 0 -53.5 -17.5t-19.5 -45.5
q0 -27 19.5 -44.5t59.5 -39.5q35 -20 56.5 -35.5t36.5 -40.5t15 -60q0 -78 -54 -126t-158 -48q-57 0 -93 16t-53 33.5t-17 21.5l45 52q0 -2 13.5 -17z" />
    <glyph glyph-name="sacute" unicode="&#x15b;" horiz-adv-x="417" 
d="M456 699l-139 -130l-56 9l91 152zM94.5 95q13.5 -15 36 -27.5t52.5 -12.5q41 0 62.5 22t21.5 55q0 26 -17 41.5t-55 37.5q-32 18 -52 33t-34.5 39.5t-14.5 59.5q0 55 28 93t73.5 56.5t98.5 18.5q32 0 62 -9.5t49 -19.5t24 -13l-21 -67l-22.5 13.5t-42 20.5t-46.5 10
q-34 0 -53.5 -17.5t-19.5 -45.5q0 -27 19.5 -44.5t59.5 -39.5q35 -20 56.5 -35.5t36.5 -40.5t15 -60q0 -78 -54 -126t-158 -48q-57 0 -93 16t-53 33.5t-17 21.5l45 52q0 -2 13.5 -17z" />
    <glyph glyph-name="scaron" unicode="&#x161;" horiz-adv-x="417" 
d="M160 710l47 35l95 -93l121 93l37 -39l-134 -134h-70zM94.5 95q13.5 -15 36 -27.5t52.5 -12.5q41 0 62.5 22t21.5 55q0 26 -17 41.5t-55 37.5q-32 18 -52 33t-34.5 39.5t-14.5 59.5q0 55 28 93t73.5 56.5t98.5 18.5q32 0 62 -9.5t49 -19.5t24 -13l-21 -67l-22.5 13.5
t-42 20.5t-46.5 10q-34 0 -53.5 -17.5t-19.5 -45.5q0 -27 19.5 -44.5t59.5 -39.5q35 -20 56.5 -35.5t36.5 -40.5t15 -60q0 -78 -54 -126t-158 -48q-57 0 -93 16t-53 33.5t-17 21.5l45 52q0 -2 13.5 -17z" />
    <glyph glyph-name="scedilla" unicode="&#x15f;" horiz-adv-x="417" 
d="M94.5 95q13.5 -15 36 -27.5t52.5 -12.5q41 0 62.5 22t21.5 55q0 26 -17 41.5t-55 37.5q-32 18 -52 33t-34.5 39.5t-14.5 59.5q0 55 28 93t73.5 56.5t98.5 18.5q32 0 62 -9.5t49 -19.5t24 -13l-21 -67l-22.5 13.5t-42 20.5t-46.5 10q-34 0 -53.5 -17.5t-19.5 -45.5
q0 -27 19.5 -44.5t59.5 -39.5q35 -20 56.5 -35.5t36.5 -40.5t15 -60q0 -74 -49 -121.5t-143 -51.5l-10 -48q0 -1 20.5 -9t38 -25t17.5 -47q0 -49 -33.5 -80.5t-96.5 -31.5q-33 0 -52.5 10t-28 21.5t-8.5 14.5l30 29q1 -2 6.5 -9t16.5 -13.5t27 -6.5q60 0 60 63
q0 20 -13.5 28.5t-27 11.5t-13.5 4l22 88q-48 4 -78.5 19.5t-45 31.5t-14.5 19l45 52q0 -2 13.5 -17z" />
    <glyph glyph-name="germandbls" unicode="&#xdf;" horiz-adv-x="584" 
d="M239.5 703q64.5 57 166.5 57q82 0 128 -34t46 -95q0 -59 -32.5 -96t-81.5 -58q63 -19 95.5 -65t32.5 -123q0 -152 -64.5 -226t-177.5 -74q-35 0 -57.5 5t-33 10.5t-10.5 6.5l24 63q1 -1 7.5 -4.5t19 -6.5t29.5 -3q32 0 60 26.5t45.5 82.5t17.5 141q0 66 -26.5 92
t-87.5 26l10 72q0 -3 27 10t48.5 42t21.5 77q0 64 -58 64q-41 0 -63 -37.5t-35 -131.5l-77 -553q-17 -121 -72.5 -176.5t-137.5 -55.5q-28 0 -48 6.5t-30 14.5t-10 9l30 60q2 -1 9 -6t18.5 -9t23.5 -4q32 0 51.5 35.5t32.5 125.5l77 553q17 122 81.5 179z" />
    <glyph glyph-name="longs" unicode="&#x17f;" horiz-adv-x="317" 
d="M221.5 710.5q43.5 49.5 127.5 49.5q25 0 49 -7.5t39 -15.5t19 -11l-25 -57q-3 2 -14 7.5t-26.5 11t-28.5 5.5q-17 0 -29 -11t-21 -40.5t-17 -85.5l-83 -585q-17 -121 -72 -176.5t-136 -55.5q-29 0 -48.5 6.5t-29.5 14.5t-10 9l30 60q2 -1 8.5 -6t18 -9t23.5 -4
q33 0 52.5 35.5t31.5 125.5l84 600q14 90 57.5 139.5z" />
    <glyph glyph-name="t" unicode="t" horiz-adv-x="353" 
d="M270 423l-35 -247q-5 -32 -5 -63q0 -30 8.5 -41t28.5 -11t34.5 3.5t18.5 5.5l-1 -57q0 -1 -12 -7t-35 -11.5t-57 -5.5q-61 0 -90.5 25.5t-29.5 83.5q0 20 3 44l39 281h-48l9 60l51 13l88 170h67l-23 -166h110l-11 -77h-110z" />
    <glyph glyph-name="tcaron" unicode="&#x165;" horiz-adv-x="353" 
d="M513 786l-101 -234l-47 4l59 244zM270 423l-35 -247q-5 -32 -5 -63q0 -30 8.5 -41t28.5 -11t34.5 3.5t18.5 5.5l-1 -57q0 -1 -12 -7t-35 -11.5t-57 -5.5q-61 0 -90.5 25.5t-29.5 83.5q0 20 3 44l39 281h-48l9 60l51 13l88 170h67l-23 -166h110l-11 -77h-110z" />
    <glyph glyph-name="uni021B" unicode="&#x21b;" horiz-adv-x="353" 
d="M270 423l-35 -247q-5 -32 -5 -63q0 -30 8.5 -41t28.5 -11t34.5 3.5t18.5 5.5l-1 -57q0 -1 -12 -7t-35 -11.5t-57 -5.5q-61 0 -90.5 25.5t-29.5 83.5q0 20 3 44l39 281h-48l9 60l51 13l88 170h67l-23 -166h110l-11 -77h-110zM176 -46q25 0 41 -16q20 -24 20 -61
q0 -54 -38 -116.5t-93 -99.5l-25 31q40 32 61.5 68t22.5 70h-7q-24 0 -40 16q-13 16 -13 36q0 15 6.5 30t19.5 26q19 16 45 16z" />
    <glyph glyph-name="u" unicode="u" horiz-adv-x="534" 
d="M368 0l-13 44h-2q0 -2 -17 -16.5t-49 -26.5t-77 -12q-137 0 -137 129q0 20 3 42l48 340h133l-44 -312q-4 -25 -4 -49q0 -37 14 -52t43 -15q24 0 44 8.5t32.5 17.5t15.5 12l54 390h133l-70 -500h-107z" />
    <glyph glyph-name="uacute" unicode="&#xfa;" horiz-adv-x="534" 
d="M498 699l-139 -130l-56 9l91 152zM368 0l-13 44h-2q0 -2 -17 -16.5t-49 -26.5t-77 -12q-137 0 -137 129q0 20 3 42l48 340h133l-44 -312q-4 -25 -4 -49q0 -37 14 -52t43 -15q24 0 44 8.5t32.5 17.5t15.5 12l54 390h133l-70 -500h-107z" />
    <glyph glyph-name="ucircumflex" unicode="&#xfb;" horiz-adv-x="534" 
d="M488 631l-34 -45l-92 85l-117 -85l-22 45l115 122h70zM368 0l-13 44h-2q0 -2 -17 -16.5t-49 -26.5t-77 -12q-137 0 -137 129q0 20 3 42l48 340h133l-44 -312q-4 -25 -4 -49q0 -37 14 -52t43 -15q24 0 44 8.5t32.5 17.5t15.5 12l54 390h133l-70 -500h-107z" />
    <glyph glyph-name="udieresis" unicode="&#xfc;" horiz-adv-x="534" 
d="M274 721q26 0 43 -17q14 -19 14 -41q0 -37 -29 -63q-22 -18 -48 -18q-27 0 -43 18q-14 17 -14 41q0 17 7.5 33.5t20.5 29.5q22 17 49 17zM459 721q25 0 44 -17q14 -19 14 -41q0 -37 -29 -63q-22 -18 -49 -18t-42 18q-14 17 -14 41q0 17 7.5 33.5t20.5 29.5q22 17 48 17z
M368 0l-13 44h-2q0 -2 -17 -16.5t-49 -26.5t-77 -12q-137 0 -137 129q0 20 3 42l48 340h133l-44 -312q-4 -25 -4 -49q0 -37 14 -52t43 -15q24 0 44 8.5t32.5 17.5t15.5 12l54 390h133l-70 -500h-107z" />
    <glyph glyph-name="uni1EE5" unicode="&#x1ee5;" horiz-adv-x="534" 
d="M368 0l-13 44h-2q0 -2 -17 -16.5t-49 -26.5t-77 -12q-137 0 -137 129q0 20 3 42l48 340h133l-44 -312q-4 -25 -4 -49q0 -37 14 -52t43 -15q24 0 44 8.5t32.5 17.5t15.5 12l54 390h133l-70 -500h-107zM253 -82q26 0 43 -18q14 -16 14 -38q0 -35 -28 -60q-23 -17 -48 -17
q-28 0 -43 17q-14 17 -14 39q0 16 7.5 31.5t20.5 27.5q21 18 48 18z" />
    <glyph glyph-name="ugrave" unicode="&#xf9;" horiz-adv-x="534" 
d="M337 738l64 -147l-64 -17l-111 129zM368 0l-13 44h-2q0 -2 -17 -16.5t-49 -26.5t-77 -12q-137 0 -137 129q0 20 3 42l48 340h133l-44 -312q-4 -25 -4 -49q0 -37 14 -52t43 -15q24 0 44 8.5t32.5 17.5t15.5 12l54 390h133l-70 -500h-107z" />
    <glyph glyph-name="uni1EE7" unicode="&#x1ee7;" horiz-adv-x="534" 
d="M368 0l-13 44h-2q0 -2 -17 -16.5t-49 -26.5t-77 -12q-137 0 -137 129q0 20 3 42l48 340h133l-44 -312q-4 -25 -4 -49q0 -37 14 -52t43 -15q24 0 44 8.5t32.5 17.5t15.5 12l54 390h133l-70 -500h-107zM319 579q1 7 5.5 12t10 9t7.5 6q12 8 18.5 14.5t8.5 17.5q1 5 1 12
q0 28 -33 28q-12 0 -22.5 -4t-17 -8t-7.5 -5l-22 57q3 2 14.5 7.5t29.5 11t38 5.5q93 0 93 -68q0 -15 -2 -24q-4 -19 -14 -30.5t-28 -26.5q-2 -2 -8.5 -7t-10 -9.5t-4.5 -9.5l-2 -8l-58 -1q0 3 3 21z" />
    <glyph glyph-name="uhorn" unicode="&#x1b0;" horiz-adv-x="534" 
d="M610 506.5q-29 -35.5 -72 -53.5l-63 -453h-107l-13 44h-2q0 -2 -17 -16.5t-49 -26.5t-77 -12q-137 0 -137 129q0 20 3 42l48 340h133l-44 -312q-4 -25 -4 -49q0 -37 14 -52t43 -15q24 0 44 8.5t32.5 17.5t15.5 12l54 390h60q34 0 56.5 21t32.5 68h87q-9 -47 -38 -82.5z
" />
    <glyph glyph-name="uni1EE9" unicode="&#x1ee9;" horiz-adv-x="534" 
d="M610 506.5q-29 -35.5 -72 -53.5l-63 -453h-107l-13 44h-2q0 -2 -17 -16.5t-49 -26.5t-77 -12q-137 0 -137 129q0 20 3 42l48 340h133l-44 -312q-4 -25 -4 -49q0 -37 14 -52t43 -15q24 0 44 8.5t32.5 17.5t15.5 12l54 390h60q34 0 56.5 21t32.5 68h87q-9 -47 -38 -82.5z
M458 699l-139 -130l-56 9l91 152z" />
    <glyph glyph-name="uni1EF1" unicode="&#x1ef1;" horiz-adv-x="534" 
d="M610 506.5q-29 -35.5 -72 -53.5l-63 -453h-107l-13 44h-2q0 -2 -17 -16.5t-49 -26.5t-77 -12q-137 0 -137 129q0 20 3 42l48 340h133l-44 -312q-4 -25 -4 -49q0 -37 14 -52t43 -15q24 0 44 8.5t32.5 17.5t15.5 12l54 390h60q34 0 56.5 21t32.5 68h87q-9 -47 -38 -82.5z
M213 -82q26 0 43 -18q14 -16 14 -38q0 -35 -28 -60q-23 -17 -48 -17q-28 0 -43 17q-14 17 -14 39q0 16 7.5 31.5t20.5 27.5q21 18 48 18z" />
    <glyph glyph-name="uni1EEB" unicode="&#x1eeb;" horiz-adv-x="534" 
d="M610 506.5q-29 -35.5 -72 -53.5l-63 -453h-107l-13 44h-2q0 -2 -17 -16.5t-49 -26.5t-77 -12q-137 0 -137 129q0 20 3 42l48 340h133l-44 -312q-4 -25 -4 -49q0 -37 14 -52t43 -15q24 0 44 8.5t32.5 17.5t15.5 12l54 390h60q34 0 56.5 21t32.5 68h87q-9 -47 -38 -82.5z
M385 738l64 -147l-64 -17l-111 129z" />
    <glyph glyph-name="uni1EED" unicode="&#x1eed;" horiz-adv-x="534" 
d="M610 506.5q-29 -35.5 -72 -53.5l-63 -453h-107l-13 44h-2q0 -2 -17 -16.5t-49 -26.5t-77 -12q-137 0 -137 129q0 20 3 42l48 340h133l-44 -312q-4 -25 -4 -49q0 -37 14 -52t43 -15q24 0 44 8.5t32.5 17.5t15.5 12l54 390h60q34 0 56.5 21t32.5 68h87q-9 -47 -38 -82.5z
M322 579q1 7 5.5 12t10 9t7.5 6q12 8 18.5 14.5t8.5 17.5q1 5 1 12q0 28 -33 28q-12 0 -22.5 -4t-17 -8t-7.5 -5l-22 57q3 2 14.5 7.5t29.5 11t38 5.5q93 0 93 -68q0 -15 -2 -24q-4 -19 -14 -30.5t-28 -26.5q-2 -2 -8.5 -7t-10 -9.5t-4.5 -9.5l-2 -8l-58 -1q0 3 3 21z" />
    <glyph glyph-name="uni1EEF" unicode="&#x1eef;" horiz-adv-x="534" 
d="M610 506.5q-29 -35.5 -72 -53.5l-63 -453h-107l-13 44h-2q0 -2 -17 -16.5t-49 -26.5t-77 -12q-137 0 -137 129q0 20 3 42l48 340h133l-44 -312q-4 -25 -4 -49q0 -37 14 -52t43 -15q24 0 44 8.5t32.5 17.5t15.5 12l54 390h60q34 0 56.5 21t32.5 68h87q-9 -47 -38 -82.5z
M530 646.5q-15 -20.5 -42 -38t-66 -17.5q-22 0 -38 6t-41 19q-20 11 -35.5 17t-34.5 6q-16 0 -30 -10t-22.5 -21t-10.5 -14l-31 36q0 3 18.5 26.5t48.5 43.5t68 20q26 0 44 -6.5t42 -19.5q19 -11 31.5 -16t28.5 -5t28 7t18.5 15t7.5 10l31 -35q0 -3 -15 -23.5z" />
    <glyph glyph-name="uhungarumlaut" unicode="&#x171;" horiz-adv-x="534" 
d="M311 738l89 -26l-116 -150l-47 23zM467 738l89 -26l-116 -150l-48 23zM368 0l-13 44h-2q0 -2 -17 -16.5t-49 -26.5t-77 -12q-137 0 -137 129q0 20 3 42l48 340h133l-44 -312q-4 -25 -4 -49q0 -37 14 -52t43 -15q24 0 44 8.5t32.5 17.5t15.5 12l54 390h133l-70 -500h-107z
" />
    <glyph glyph-name="umacron" unicode="&#x16b;" horiz-adv-x="534" 
d="M469 624h-215l8 58h214zM368 0l-13 44h-2q0 -2 -17 -16.5t-49 -26.5t-77 -12q-137 0 -137 129q0 20 3 42l48 340h133l-44 -312q-4 -25 -4 -49q0 -37 14 -52t43 -15q24 0 44 8.5t32.5 17.5t15.5 12l54 390h133l-70 -500h-107z" />
    <glyph glyph-name="uogonek" unicode="&#x173;" horiz-adv-x="534" 
d="M433 0q-32 -16 -60.5 -52t-28.5 -96q0 -30 17.5 -41.5t51.5 -11.5l-7 -49q-70 0 -110 21t-40 77q0 84 111 153l-12 43h-2q0 -2 -17 -16.5t-49 -26.5t-77 -12q-137 0 -137 129q0 20 3 42l48 340h133l-44 -312q-4 -25 -4 -49q0 -37 14 -52t43 -15q24 0 44 8.5t32.5 17.5
t15.5 12l54 390h133l-70 -500h-42z" />
    <glyph glyph-name="uring" unicode="&#x16f;" horiz-adv-x="534" 
d="M431.5 582q-33.5 -34 -85.5 -34q-43 0 -68 24t-25 67q0 57 33.5 90.5t85.5 33.5q41 0 67 -24.5t26 -66.5q0 -56 -33.5 -90zM405 707.5q-15 13.5 -38 13.5q-30 0 -49 -19.5t-19 -56.5q0 -26 15 -40t38 -14q31 0 49.5 20t18.5 57q0 26 -15 39.5zM368 0l-13 44h-2
q0 -2 -17 -16.5t-49 -26.5t-77 -12q-137 0 -137 129q0 20 3 42l48 340h133l-44 -312q-4 -25 -4 -49q0 -37 14 -52t43 -15q24 0 44 8.5t32.5 17.5t15.5 12l54 390h133l-70 -500h-107z" />
    <glyph glyph-name="utilde" unicode="&#x169;" horiz-adv-x="534" 
d="M368 0l-13 44h-2q0 -2 -17 -16.5t-49 -26.5t-77 -12q-137 0 -137 129q0 20 3 42l48 340h133l-44 -312q-4 -25 -4 -49q0 -37 14 -52t43 -15q24 0 44 8.5t32.5 17.5t15.5 12l54 390h133l-70 -500h-107zM527 646.5q-15 -20.5 -42 -38t-66 -17.5q-22 0 -38 6t-41 19
q-20 11 -35.5 17t-34.5 6q-16 0 -30 -10t-22.5 -21t-10.5 -14l-31 36q0 3 18.5 26.5t48.5 43.5t68 20q26 0 44 -6.5t42 -19.5q19 -11 31.5 -16t28.5 -5t28 7t18.5 15t7.5 10l31 -35q0 -3 -15 -23.5z" />
    <glyph glyph-name="v" unicode="v" horiz-adv-x="478" 
d="M78 500h161l48 -356h4l162 356h87l-247 -500h-111z" />
    <glyph glyph-name="w" unicode="w" horiz-adv-x="709" 
d="M768 500l-216 -500h-107l-44 326v1h-3l-138 -327h-107l-73 500h151l27 -333h3l141 333h92l58 -333h3l127 333h86z" />
    <glyph glyph-name="x" unicode="x" horiz-adv-x="473" 
d="M343 272l121 -272h-159l-68 187l-135 -187h-93l188 241l-110 259h159l58 -177l119 177h91z" />
    <glyph glyph-name="y" unicode="y" horiz-adv-x="488" 
d="M30.5 -174.5q14.5 -4.5 30.5 -4.5q46 0 79.5 36t79.5 123l-139 520h160l73 -354l153 354h82l-246 -511q-61 -126 -114.5 -188t-122.5 -62q-23 0 -39.5 3.5t-25 7t-10.5 4.5l21 78q4 -2 18.5 -6.5z" />
    <glyph glyph-name="yacute" unicode="&#xfd;" horiz-adv-x="488" 
d="M485 699l-139 -130l-56 9l91 152zM30.5 -174.5q14.5 -4.5 30.5 -4.5q46 0 79.5 36t79.5 123l-139 520h160l73 -354l153 354h82l-246 -511q-61 -126 -114.5 -188t-122.5 -62q-23 0 -39.5 3.5t-25 7t-10.5 4.5l21 78q4 -2 18.5 -6.5z" />
    <glyph glyph-name="ydieresis" unicode="&#xff;" horiz-adv-x="488" 
d="M261 721q26 0 43 -17q14 -19 14 -41q0 -37 -29 -63q-22 -18 -48 -18t-43 18q-14 17 -14 41q0 17 7.5 33.5t20.5 29.5q22 17 49 17zM446 721q25 0 44 -17q14 -19 14 -41q0 -37 -29 -63q-22 -18 -49 -18t-42 18q-14 17 -14 41q0 17 7.5 33.5t20.5 29.5q22 17 48 17z
M30.5 -174.5q14.5 -4.5 30.5 -4.5q46 0 79.5 36t79.5 123l-139 520h160l73 -354l153 354h82l-246 -511q-61 -126 -114.5 -188t-122.5 -62q-23 0 -39.5 3.5t-25 7t-10.5 4.5l21 78q4 -2 18.5 -6.5z" />
    <glyph glyph-name="uni1EF5" unicode="&#x1ef5;" horiz-adv-x="488" 
d="M30.5 -174.5q14.5 -4.5 30.5 -4.5q46 0 79.5 36t79.5 123l-139 520h160l73 -354l153 354h82l-246 -511q-61 -126 -114.5 -188t-122.5 -62q-23 0 -39.5 3.5t-25 7t-10.5 4.5l21 78q4 -2 18.5 -6.5zM340 -82q26 0 43 -18q14 -16 14 -38q0 -35 -28 -60q-23 -17 -48 -17
q-28 0 -43 17q-14 17 -14 39q0 16 7.5 31.5t20.5 27.5q21 18 48 18z" />
    <glyph glyph-name="ygrave" unicode="&#x1ef3;" horiz-adv-x="488" 
d="M30.5 -174.5q14.5 -4.5 30.5 -4.5q46 0 79.5 36t79.5 123l-139 520h160l73 -354l153 354h82l-246 -511q-61 -126 -114.5 -188t-122.5 -62q-23 0 -39.5 3.5t-25 7t-10.5 4.5l21 78q4 -2 18.5 -6.5zM332 738l64 -147l-64 -17l-111 129z" />
    <glyph glyph-name="uni1EF7" unicode="&#x1ef7;" horiz-adv-x="488" 
d="M30.5 -174.5q14.5 -4.5 30.5 -4.5q46 0 79.5 36t79.5 123l-139 520h160l73 -354l153 354h82l-246 -511q-61 -126 -114.5 -188t-122.5 -62q-23 0 -39.5 3.5t-25 7t-10.5 4.5l21 78q4 -2 18.5 -6.5zM269 579q1 7 5.5 12t10 9t7.5 6q12 8 18.5 14.5t8.5 17.5q1 5 1 12
q0 28 -33 28q-12 0 -22.5 -4t-17 -8t-7.5 -5l-22 57q3 2 14.5 7.5t29.5 11t38 5.5q93 0 93 -68q0 -15 -2 -24q-4 -19 -14 -30.5t-28 -26.5q-2 -2 -8.5 -7t-10 -9.5t-4.5 -9.5l-2 -8l-58 -1q0 3 3 21z" />
    <glyph glyph-name="uni1EF9" unicode="&#x1ef9;" horiz-adv-x="488" 
d="M30.5 -174.5q14.5 -4.5 30.5 -4.5q46 0 79.5 36t79.5 123l-139 520h160l73 -354l153 354h82l-246 -511q-61 -126 -114.5 -188t-122.5 -62q-23 0 -39.5 3.5t-25 7t-10.5 4.5l21 78q4 -2 18.5 -6.5zM477 646.5q-15 -20.5 -42 -38t-66 -17.5q-22 0 -38 6t-41 19
q-20 11 -35.5 17t-34.5 6q-16 0 -30 -10t-22.5 -21t-10.5 -14l-31 36q0 3 18.5 26.5t48.5 43.5t68 20q26 0 44 -6.5t42 -19.5q19 -11 31.5 -16t28.5 -5t28 7t18.5 15t7.5 10l31 -35q0 -3 -15 -23.5z" />
    <glyph glyph-name="z" unicode="z" horiz-adv-x="434" 
d="M468 440l-278 -372h218l-8 -68h-374l8 60l282 372h-210l6 68h365z" />
    <glyph glyph-name="zacute" unicode="&#x17a;" horiz-adv-x="434" 
d="M458 699l-139 -130l-56 9l91 152zM468 440l-278 -372h218l-8 -68h-374l8 60l282 372h-210l6 68h365z" />
    <glyph glyph-name="zcaron" unicode="&#x17e;" horiz-adv-x="434" 
d="M178 710l47 35l95 -93l121 93l37 -39l-134 -134h-70zM468 440l-278 -372h218l-8 -68h-374l8 60l282 372h-210l6 68h365z" />
    <glyph glyph-name="zdotaccent" unicode="&#x17c;" horiz-adv-x="434" 
d="M330 728q31 0 49 -19q15 -19 15 -45q0 -19 -8 -37.5t-23 -32.5q-25 -19 -55 -19q-32 0 -49 20q-16 17 -16 45q0 18 8.5 36.5t23.5 31.5q23 20 55 20zM468 440l-278 -372h218l-8 -68h-374l8 60l282 372h-210l6 68h365z" />
    <glyph glyph-name="g.alt" horiz-adv-x="543" 
d="M386.5 -206q-75.5 -55 -170.5 -55q-59 0 -98.5 17t-60 36.5t-20.5 22.5l44 57q0 -3 16 -19.5t44 -30.5t67 -14q42 0 68.5 15t44 54.5t28.5 115.5l1 7l4 23h-5q0 -1 -13.5 -10t-38.5 -16.5t-61 -7.5q-83 0 -129.5 55t-46.5 153q0 89 32.5 160.5t89 112.5t125.5 41
q45 0 72 -11.5t38 -24t11 -15.5l28 40h98l-74 -526q-18 -125 -93.5 -180zM325.5 72q17.5 7 27.5 14.5t11 10.5l41 289q-3 14 -19 32.5t-53 18.5q-61 0 -97 -63t-36 -188q0 -63 21.5 -92t64.5 -29q22 0 39.5 7z" />
    <glyph glyph-name="gbreve.alt" horiz-adv-x="543" 
d="M436 648q20 12 27.5 25.5t7.5 17.5l1 4l65 -9q0 -10 -12 -39t-49.5 -56.5t-106.5 -27.5q-78 0 -105.5 34t-27.5 73q0 6 0.5 10.5t0.5 5.5l67 9v-4q0 -15 13 -35t63 -20q36 0 56 12zM386.5 -206q-75.5 -55 -170.5 -55q-59 0 -98.5 17t-60 36.5t-20.5 22.5l44 57
q0 -3 16 -19.5t44 -30.5t67 -14q42 0 68.5 15t44 54.5t28.5 115.5l1 7l4 23h-5q0 -1 -13.5 -10t-38.5 -16.5t-61 -7.5q-83 0 -129.5 55t-46.5 153q0 89 32.5 160.5t89 112.5t125.5 41q45 0 72 -11.5t38 -24t11 -15.5l28 40h98l-74 -526q-18 -125 -93.5 -180zM325.5 72
q17.5 7 27.5 14.5t11 10.5l41 289q-3 14 -19 32.5t-53 18.5q-61 0 -97 -63t-36 -188q0 -63 21.5 -92t64.5 -29q22 0 39.5 7z" />
    <glyph glyph-name="gcommaaccent.alt" horiz-adv-x="543" 
d="M328 561q-25 0 -41 16q-20 24 -20 61q0 54 38 116.5t93 99.5l25 -31q-40 -32 -61.5 -68t-22.5 -70h7q24 0 40 -16q13 -16 13 -36q0 -15 -6.5 -30t-19.5 -26q-19 -16 -45 -16zM386.5 -206q-75.5 -55 -170.5 -55q-59 0 -98.5 17t-60 36.5t-20.5 22.5l44 57q0 -3 16 -19.5
t44 -30.5t67 -14q42 0 68.5 15t44 54.5t28.5 115.5l1 7l4 23h-5q0 -1 -13.5 -10t-38.5 -16.5t-61 -7.5q-83 0 -129.5 55t-46.5 153q0 89 32.5 160.5t89 112.5t125.5 41q45 0 72 -11.5t38 -24t11 -15.5l28 40h98l-74 -526q-18 -125 -93.5 -180zM325.5 72q17.5 7 27.5 14.5
t11 10.5l41 289q-3 14 -19 32.5t-53 18.5q-61 0 -97 -63t-36 -188q0 -63 21.5 -92t64.5 -29q22 0 39.5 7z" />
    <glyph glyph-name="y.alt" horiz-adv-x="532" 
d="M340 4l5 32q-14 -16 -44 -31.5t-87 -15.5q-143 0 -143 132q0 18 3 39l48 340h133l-44 -312q-4 -28 -4 -53q0 -38 14 -52.5t47 -14.5q32 0 55 13t31 23l57 396h133l-75 -526q-11 -85 -52 -138t-96.5 -75t-115.5 -22q-58 0 -95.5 17.5t-55 37.5t-17.5 24l40 54
q0 -3 14.5 -19.5t41 -30.5t65.5 -14q42 0 68.5 15t44.5 55t28 115l1 8v3z" />
    <glyph glyph-name="yacute.alt" horiz-adv-x="532" 
d="M501 699l-139 -130l-56 9l91 152zM340 4l5 32q-14 -16 -44 -31.5t-87 -15.5q-143 0 -143 132q0 18 3 39l48 340h133l-44 -312q-4 -28 -4 -53q0 -38 14 -52.5t47 -14.5q32 0 55 13t31 23l57 396h133l-75 -526q-11 -85 -52 -138t-96.5 -75t-115.5 -22q-58 0 -95.5 17.5
t-55 37.5t-17.5 24l40 54q0 -3 14.5 -19.5t41 -30.5t65.5 -14q42 0 68.5 15t44.5 55t28 115l1 8v3z" />
    <glyph glyph-name="ydieresis.alt" horiz-adv-x="532" 
d="M276 721q26 0 43 -17q14 -19 14 -41q0 -37 -29 -63q-22 -18 -48 -18t-43 18q-14 17 -14 41q0 17 7.5 33.5t20.5 29.5q22 17 49 17zM461 721q25 0 44 -17q14 -19 14 -41q0 -37 -29 -63q-22 -18 -49 -18t-42 18q-14 17 -14 41q0 17 7.5 33.5t20.5 29.5q22 17 48 17zM340 4
l5 32q-14 -16 -44 -31.5t-87 -15.5q-143 0 -143 132q0 18 3 39l48 340h133l-44 -312q-4 -28 -4 -53q0 -38 14 -52.5t47 -14.5q32 0 55 13t31 23l57 396h133l-75 -526q-11 -85 -52 -138t-96.5 -75t-115.5 -22q-58 0 -95.5 17.5t-55 37.5t-17.5 24l40 54q0 -3 14.5 -19.5
t41 -30.5t65.5 -14q42 0 68.5 15t44.5 55t28 115l1 8v3z" />
    <glyph glyph-name="s_t" horiz-adv-x="749" 
d="M94.5 95q13.5 -15 36 -27.5t52.5 -12.5q41 0 62.5 22t21.5 55q0 26 -17 41.5t-55 37.5q-32 18 -52 33t-34.5 39.5t-14.5 59.5q0 55 28 93t73.5 56.5t98.5 18.5l18 -1q-9 26 -9 62q0 46 21.5 87t63 66t98.5 25h226l-35 -250h111l-11 -73h-110l-35 -251q-6 -40 -6 -65
q0 -29 8.5 -39.5t28.5 -10.5t36.5 4t20.5 6l-4 -58q0 -1 -12 -7t-35 -11.5t-57 -5.5q-61 0 -91 25t-30 83q0 11 4 45l59 420l77 127h-149q-64 0 -94 -32.5t-30 -89.5q0 -44 20 -73q19 -8 33 -15.5t18 -9.5l-21 -67l-22.5 13.5t-42 20.5t-46.5 10q-34 0 -53.5 -17.5
t-19.5 -45.5q0 -27 19.5 -44.5t59.5 -39.5q35 -20 56.5 -35.5t36.5 -40.5t15 -60q0 -78 -54 -126t-158 -48q-57 0 -93 16t-53 33.5t-17 21.5l45 52q0 -2 13.5 -17z" />
    <glyph glyph-name="a.sc" horiz-adv-x="521" 
d="M411 500l87 -500h-140l-23 132h-168l-63 -132h-80l241 500h146zM293 408l-98 -217h131l-31 217h-2z" />
    <glyph glyph-name="aacute.sc" horiz-adv-x="521" 
d="M486 699l-139 -130l-56 9l91 152zM411 500l87 -500h-140l-23 132h-168l-63 -132h-80l241 500h146zM293 408l-98 -217h131l-31 217h-2z" />
    <glyph glyph-name="abreve.sc" horiz-adv-x="521" 
d="M405 648q20 12 27.5 25.5t7.5 17.5l1 4l65 -9q0 -10 -12 -39t-49.5 -56.5t-106.5 -27.5q-78 0 -105.5 34t-27.5 73q0 6 0.5 10.5t0.5 5.5l67 9v-4q0 -15 13 -35t63 -20q36 0 56 12zM411 500l87 -500h-140l-23 132h-168l-63 -132h-80l241 500h146zM293 408l-98 -217h131
l-31 217h-2z" />
    <glyph glyph-name="acircumflex.sc" horiz-adv-x="521" 
d="M482 631l-34 -45l-92 85l-117 -85l-22 45l115 122h70zM411 500l87 -500h-140l-23 132h-168l-63 -132h-80l241 500h146zM293 408l-98 -217h131l-31 217h-2z" />
    <glyph glyph-name="adieresis.sc" horiz-adv-x="521" 
d="M268 721q26 0 43 -17q14 -19 14 -41q0 -37 -29 -63q-22 -18 -48 -18t-43 18q-14 17 -14 41q0 17 7.5 33.5t20.5 29.5q22 17 49 17zM453 721q25 0 44 -17q14 -19 14 -41q0 -37 -29 -63q-22 -18 -49 -18t-42 18q-14 17 -14 41q0 17 7.5 33.5t20.5 29.5q22 17 48 17z
M411 500l87 -500h-140l-23 132h-168l-63 -132h-80l241 500h146zM293 408l-98 -217h131l-31 217h-2z" />
    <glyph glyph-name="agrave.sc" horiz-adv-x="521" 
d="M339 738l64 -147l-64 -17l-111 129zM411 500l87 -500h-140l-23 132h-168l-63 -132h-80l241 500h146zM293 408l-98 -217h131l-31 217h-2z" />
    <glyph glyph-name="amacron.sc" horiz-adv-x="521" 
d="M453 624h-215l8 58h214zM411 500l87 -500h-140l-23 132h-168l-63 -132h-80l241 500h146zM293 408l-98 -217h131l-31 217h-2z" />
    <glyph glyph-name="aogonek.sc" horiz-adv-x="521" 
d="M498 0h-76q-33 -16 -61 -52t-28 -96q0 -30 17.5 -41.5t51.5 -11.5l-7 -49q-70 0 -110 21t-40 77q0 48 33 87.5t79 66.5l-22 130h-168l-63 -132h-80l241 500h146zM293 408l-98 -217h131l-31 217h-2z" />
    <glyph glyph-name="aring.sc" horiz-adv-x="521" 
d="M425.5 582q-33.5 -34 -85.5 -34q-43 0 -68 24t-25 67q0 57 33.5 90.5t85.5 33.5q41 0 67 -24.5t26 -66.5q0 -56 -33.5 -90zM399 707.5q-15 13.5 -38 13.5q-30 0 -49 -19.5t-19 -56.5q0 -26 15 -40t38 -14q31 0 49.5 20t18.5 57q0 26 -15 39.5zM411 500l87 -500h-140
l-23 132h-168l-63 -132h-80l241 500h146zM293 408l-98 -217h131l-31 217h-2z" />
    <glyph glyph-name="atilde.sc" horiz-adv-x="521" 
d="M519 646.5q-15 -20.5 -42 -38t-66 -17.5q-22 0 -38 6t-41 19q-20 11 -35.5 17t-34.5 6q-16 0 -30 -10t-22.5 -21t-10.5 -14l-31 36q0 3 18.5 26.5t48.5 43.5t68 20q26 0 44 -6.5t42 -19.5q19 -11 31.5 -16t28.5 -5t28 7t18.5 15t7.5 10l31 -35q0 -3 -15 -23.5zM411 500
l87 -500h-140l-23 132h-168l-63 -132h-80l241 500h146zM293 408l-98 -217h131l-31 217h-2z" />
    <glyph glyph-name="ae.sc" horiz-adv-x="689" 
d="M714 500l-9 -67h-193l-21 -148h167l-9 -65h-168l-21 -153h202l-10 -67h-333l19 138h-160l-97 -138h-83l356 500h360zM346 197l33 236h-6l-156 -236h129z" />
    <glyph glyph-name="b.sc" horiz-adv-x="485" 
d="M306 500q89 0 132 -35t43 -84q0 -77 -91 -121q38 -13 60 -39t22 -62q0 -45 -26.5 -81t-78.5 -57t-125 -21h-176l70 500h170zM318 294q15 12 25.5 36t10.5 59q0 51 -59 51h-36l-22 -158h54q12 0 27 12zM206 60h42q45 0 68.5 25.5t23.5 85.5q0 55 -50 55h-61z" />
    <glyph glyph-name="c.sc" horiz-adv-x="483" 
d="M455 410q-19 11 -46 21t-51 10q-70 0 -110 -62.5t-40 -194.5q0 -125 107 -125q34 0 62.5 14.5t47.5 31.5t19 19l35 -44q0 -4 -23 -27.5t-66 -43.5t-105 -20q-106 0 -163 59t-57 157q0 90 34 159t98 108t151 39q40 0 74.5 -11.5t58.5 -25t24 -14.5l-26 -64z" />
    <glyph glyph-name="cacute.sc" horiz-adv-x="483" 
d="M486 699l-139 -130l-56 9l91 152zM455 410q-19 11 -46 21t-51 10q-70 0 -110 -62.5t-40 -194.5q0 -125 107 -125q34 0 62.5 14.5t47.5 31.5t19 19l35 -44q0 -4 -23 -27.5t-66 -43.5t-105 -20q-106 0 -163 59t-57 157q0 90 34 159t98 108t151 39q40 0 74.5 -11.5t58.5 -25
t24 -14.5l-26 -64z" />
    <glyph glyph-name="ccaron.sc" horiz-adv-x="483" 
d="M207 710l47 35l95 -93l121 93l37 -39l-134 -134h-70zM455 410q-19 11 -46 21t-51 10q-70 0 -110 -62.5t-40 -194.5q0 -125 107 -125q34 0 62.5 14.5t47.5 31.5t19 19l35 -44q0 -4 -23 -27.5t-66 -43.5t-105 -20q-106 0 -163 59t-57 157q0 90 34 159t98 108t151 39
q40 0 74.5 -11.5t58.5 -25t24 -14.5l-26 -64z" />
    <glyph glyph-name="ccedilla.sc" horiz-adv-x="483" 
d="M455 410q-19 11 -46 21t-51 10q-70 0 -110 -62.5t-40 -194.5q0 -125 107 -125q34 0 62.5 14.5t47.5 31.5t19 19l35 -44q0 -4 -23 -27.5t-66 -43.5t-105 -20h-6l-10 -47q0 -1 20.5 -9t38 -25t17.5 -47q0 -49 -33.5 -80.5t-96.5 -31.5q-33 0 -52.5 10t-28 21.5t-8.5 14.5
l30 29q1 -2 6.5 -9t16.5 -13.5t27 -6.5q60 0 60 63q0 20 -13.5 28.5t-27 11.5t-13.5 4l23 91q-82 13 -126 69.5t-44 142.5q0 90 34 159t98 108t151 39q40 0 74.5 -11.5t58.5 -25t24 -14.5l-26 -64z" />
    <glyph glyph-name="d.sc" 
d="M489 447q58 -53 58 -154q0 -141 -75 -217t-220 -76h-186l70 500h185q110 0 168 -53zM207 66h55q70 0 107 59.5t37 198.5q0 58 -22.5 84t-71.5 26h-54z" />
    <glyph glyph-name="eth.sc" horiz-adv-x="552" 
d="M489 447q58 -53 58 -154q0 -141 -75 -217t-220 -76h-186l30 217h-40l8 62h41l31 221h185q110 0 168 -53zM236 279h99l-9 -62h-98l-21 -151h55q70 0 107 59.5t37 198.5q0 58 -22.5 84t-71.5 26h-54z" />
    <glyph glyph-name="dcaron.sc" horiz-adv-x="552" 
d="M193 710l47 35l95 -93l121 93l37 -39l-134 -134h-70zM489 447q58 -53 58 -154q0 -141 -75 -217t-220 -76h-186l70 500h185q110 0 168 -53zM207 66h55q70 0 107 59.5t37 198.5q0 58 -22.5 84t-71.5 26h-54z" />
    <glyph glyph-name="dcroat.sc" horiz-adv-x="552" 
d="M489 447q58 -53 58 -154q0 -141 -75 -217t-220 -76h-186l30 217h-40l8 62h41l31 221h185q110 0 168 -53zM236 279h99l-9 -62h-98l-21 -151h55q70 0 107 59.5t37 198.5q0 58 -22.5 84t-71.5 26h-54z" />
    <glyph glyph-name="e.sc" horiz-adv-x="444" 
d="M399 0h-333l70 500h325l-9 -68h-193l-21 -147h167l-9 -65h-167l-22 -153h202z" />
    <glyph glyph-name="eacute.sc" horiz-adv-x="444" 
d="M468 699l-139 -130l-56 9l91 152zM399 0h-333l70 500h325l-9 -68h-193l-21 -147h167l-9 -65h-167l-22 -153h202z" />
    <glyph glyph-name="ecaron.sc" horiz-adv-x="444" 
d="M181 710l47 35l95 -93l121 93l37 -39l-134 -134h-70zM399 0h-333l70 500h325l-9 -68h-193l-21 -147h167l-9 -65h-167l-22 -153h202z" />
    <glyph glyph-name="ecircumflex.sc" horiz-adv-x="444" 
d="M459 631l-34 -45l-92 85l-117 -85l-22 45l115 122h70zM399 0h-333l70 500h325l-9 -68h-193l-21 -147h167l-9 -65h-167l-22 -153h202z" />
    <glyph glyph-name="edieresis.sc" horiz-adv-x="444" 
d="M233 721q26 0 43 -17q14 -19 14 -41q0 -37 -29 -63q-22 -18 -48 -18t-43 18q-14 17 -14 41q0 17 7.5 33.5t20.5 29.5q22 17 49 17zM418 721q25 0 44 -17q14 -19 14 -41q0 -37 -29 -63q-22 -18 -49 -18t-42 18q-14 17 -14 41q0 17 7.5 33.5t20.5 29.5q22 17 48 17zM399 0
h-333l70 500h325l-9 -68h-193l-21 -147h167l-9 -65h-167l-22 -153h202z" />
    <glyph glyph-name="edotaccent.sc" horiz-adv-x="444" 
d="M333 728q31 0 49 -19q15 -20 15 -45q0 -19 -8 -37.5t-23 -32.5q-25 -19 -55 -19q-32 0 -49 20q-16 17 -16 45q0 18 8.5 36.5t23.5 31.5q23 20 55 20zM399 0h-333l70 500h325l-9 -68h-193l-21 -147h167l-9 -65h-167l-22 -153h202z" />
    <glyph glyph-name="egrave.sc" horiz-adv-x="444" 
d="M322 738l64 -147l-64 -17l-111 129zM399 0h-333l70 500h325l-9 -68h-193l-21 -147h167l-9 -65h-167l-22 -153h202z" />
    <glyph glyph-name="emacron.sc" horiz-adv-x="444" 
d="M432 624h-215l8 58h214zM399 0h-333l70 500h325l-9 -68h-193l-21 -147h167l-9 -65h-167l-22 -153h202z" />
    <glyph glyph-name="eogonek.sc" horiz-adv-x="444" 
d="M384 0q-32 -16 -60.5 -52t-28.5 -96q0 -30 17.5 -41.5t51.5 -11.5l-7 -49q-70 0 -110 21t-40 77q0 47 31.5 85.5t76.5 66.5h-249l70 500h325l-9 -68h-193l-21 -147h167l-9 -65h-167l-22 -153h202l-10 -67h-15z" />
    <glyph glyph-name="f.sc" horiz-adv-x="418" 
d="M398 195h-173l-27 -195h-132l70 500h329l-10 -68h-196l-25 -172h173z" />
    <glyph glyph-name="fi.sc" horiz-adv-x="682" 
d="M398 195h-173l-27 -195h-132l70 500h329l-10 -68h-196l-25 -172h173zM616 0h-132l70 500h132z" />
    <glyph glyph-name="fl.sc" horiz-adv-x="825" 
d="M398 195h-173l-27 -195h-132l70 500h329l-10 -68h-196l-25 -172h173zM804 0h-320l70 500h132l-60 -433h187z" />
    <glyph glyph-name="g.sc" horiz-adv-x="521" 
d="M413 0l-26 39q-46 -50 -127 -50q-94 0 -144.5 56t-50.5 156q0 94 35 164t99.5 108t150.5 38q40 0 75 -11.5t59 -25t24 -14.5l-27 -64l-24.5 14t-47.5 21t-53 10q-73 0 -110.5 -62t-37.5 -196q0 -124 86 -124q37 0 56 21.5t24 42.5l11 81h-69l9 63h182l-37 -267h-57z" />
    <glyph glyph-name="gbreve.sc" horiz-adv-x="521" 
d="M421 648q20 12 27.5 25.5t7.5 17.5l1 4l65 -9q0 -10 -12 -39t-49.5 -56.5t-106.5 -27.5q-78 0 -105.5 34t-27.5 73q0 6 0.5 10.5t0.5 5.5l67 9v-4q0 -15 13 -35t63 -20q36 0 56 12zM413 0l-26 39q-46 -50 -127 -50q-94 0 -144.5 56t-50.5 156q0 94 35 164t99.5 108
t150.5 38q40 0 75 -11.5t59 -25t24 -14.5l-27 -64l-24.5 14t-47.5 21t-53 10q-73 0 -110.5 -62t-37.5 -196q0 -124 86 -124q37 0 56 21.5t24 42.5l11 81h-69l9 63h182l-37 -267h-57z" />
    <glyph glyph-name="gcommaaccent.sc" horiz-adv-x="521" 
d="M413 0l-26 39q-46 -50 -127 -50q-94 0 -144.5 56t-50.5 156q0 94 35 164t99.5 108t150.5 38q40 0 75 -11.5t59 -25t24 -14.5l-27 -64l-24.5 14t-47.5 21t-53 10q-73 0 -110.5 -62t-37.5 -196q0 -124 86 -124q37 0 56 21.5t24 42.5l11 81h-69l9 63h182l-37 -267h-57z
M268 -46q25 0 41 -16q20 -24 20 -61q0 -54 -38 -116.5t-93 -99.5l-25 31q40 32 61.5 68t22.5 70h-7q-24 0 -40 16q-13 16 -13 36q0 15 6.5 30t19.5 26q19 16 45 16z" />
    <glyph glyph-name="h.sc" horiz-adv-x="550" 
d="M484 0h-132l31 221h-154l-31 -221h-132l70 500h132l-30 -213h154l30 213h132z" />
    <glyph glyph-name="i.sc" horiz-adv-x="264" 
d="M198 0h-132l70 500h132z" />
    <glyph glyph-name="dotlessi.sc" horiz-adv-x="264" 
d="M229 728q31 0 49 -19q15 -19 15 -45q0 -19 -8 -37.5t-23 -32.5q-25 -19 -55 -19q-32 0 -49 20q-16 17 -16 45q0 18 8.5 36.5t23.5 31.5q23 20 55 20zM198 0h-132l70 500h132z" />
    <glyph glyph-name="iacute.sc" horiz-adv-x="264" 
d="M349 699l-139 -130l-56 9l91 152zM198 0h-132l70 500h132z" />
    <glyph glyph-name="icircumflex.sc" horiz-adv-x="264" 
d="M346 631l-34 -45l-92 85l-117 -85l-22 45l115 122h70zM198 0h-132l70 500h132z" />
    <glyph glyph-name="idieresis.sc" horiz-adv-x="264" 
d="M132 721q26 0 43 -17q14 -19 14 -41q0 -37 -29 -63q-22 -18 -48 -18q-27 0 -43 18q-14 17 -14 41q0 17 7.5 33.5t20.5 29.5q22 17 49 17zM317 721q25 0 44 -17q14 -19 14 -41q0 -37 -29 -63q-22 -18 -49 -18t-42 18q-14 17 -14 41q0 17 7.5 33.5t20.5 29.5q22 17 48 17z
M198 0h-132l70 500h132z" />
    <glyph glyph-name="igrave.sc" horiz-adv-x="264" 
d="M202 738l64 -147l-64 -17l-111 129zM198 0h-132l70 500h132z" />
    <glyph glyph-name="imacron.sc" horiz-adv-x="264" 
d="M322 624h-215l8 58h214zM198 0h-132l70 500h132z" />
    <glyph glyph-name="iogonek.sc" horiz-adv-x="264" 
d="M131 0q-33 -16 -61 -52t-28 -96q0 -30 17.5 -41.5t51.5 -11.5l-7 -49q-70 0 -110 21t-40 77q0 48 32.5 86.5t79.5 67.5l70 498h132l-70 -500h-67z" />
    <glyph glyph-name="j.sc" horiz-adv-x="334" 
d="M53 71q7 -5 19.5 -10t26.5 -5q28 0 43.5 25t25.5 92l46 327h132l-46 -327q-14 -99 -57 -141.5t-124 -42.5q-34 0 -57 8t-34.5 17.5t-11.5 11.5l28 52q2 -2 9 -7z" />
    <glyph glyph-name="k.sc" horiz-adv-x="528" 
d="M136 500h131l-30 -214l45 25l168 189h91l-175 -186l146 -314h-168l-94 221l-24 -13l-29 -208h-131z" />
    <glyph glyph-name="kcommaaccent.sc" horiz-adv-x="529" 
d="M136 500h131l-30 -214l45 25l168 189h91l-175 -186l146 -314h-168l-94 221l-24 -13l-29 -208h-131zM263 -46q25 0 41 -16q20 -24 20 -61q0 -54 -38 -116.5t-93 -99.5l-25 31q40 32 61.5 68t22.5 70h-7q-24 0 -40 16q-13 16 -13 36q0 15 6.5 30t19.5 26q19 16 45 16z" />
    <glyph glyph-name="l.sc" horiz-adv-x="406" 
d="M386 0h-320l70 500h132l-60 -433h187z" />
    <glyph glyph-name="lacute.sc" horiz-adv-x="417" 
d="M365 699l-139 -130l-56 9l91 152zM386 0h-320l70 500h132l-60 -433h187z" />
    <glyph glyph-name="lcaron.sc" horiz-adv-x="417" 
d="M79 710l47 35l95 -93l121 93l37 -39l-134 -134h-70zM386 0h-320l70 500h132l-60 -433h187z" />
    <glyph glyph-name="lcommaaccent.sc" horiz-adv-x="417" 
d="M386 0h-320l70 500h132l-60 -433h187zM224 -46q25 0 41 -16q20 -24 20 -61q0 -54 -38 -116.5t-93 -99.5l-25 31q40 32 61.5 68t22.5 70h-7q-24 0 -40 16q-13 16 -13 36q0 15 6.5 30t19.5 26q19 16 45 16z" />
    <glyph glyph-name="lslash.sc" horiz-adv-x="436" 
d="M416 0h-320l21 152l-34 -22l-26 39l69 44l40 287h132l-27 -193l78 50l25 -39l-111 -72l-25 -179h187z" />
    <glyph glyph-name="m.sc" horiz-adv-x="713" 
d="M647 0h-129l42 352h-3l-177 -352h-98l-78 352h-4l-53 -352h-81l77 500h160l81 -339h4l174 339h148z" />
    <glyph glyph-name="n.sc" 
d="M476 0h-103l-181 349h-3l-1 -55l-41 -294h-81l70 500h136l154 -304h3l-1 41l37 263h81z" />
    <glyph glyph-name="nacute.sc" 
d="M515 699l-139 -130l-56 9l91 152zM476 0h-103l-181 349h-3l-1 -55l-41 -294h-81l70 500h136l154 -304h3l-1 41l37 263h81z" />
    <glyph glyph-name="ncaron.sc" 
d="M244 710l47 35l95 -93l121 93l37 -39l-134 -134h-70zM476 0h-103l-181 349h-3l-1 -55l-41 -294h-81l70 500h136l154 -304h3l-1 41l37 263h81z" />
    <glyph glyph-name="ncommaaccent.sc" 
d="M476 0h-103l-181 349h-3l-1 -55l-41 -294h-81l70 500h136l154 -304h3l-1 41l37 263h81zM260 -46q25 0 41 -16q20 -24 20 -61q0 -54 -38 -116.5t-93 -99.5l-25 31q40 32 61.5 68t22.5 70h-7q-24 0 -40 16q-13 16 -13 36q0 15 6.5 30t19.5 26q19 16 45 16z" />
    <glyph glyph-name="ntilde.sc" 
d="M542 637.5q-15 -20.5 -42 -38t-66 -17.5q-22 0 -38 6t-41 19q-20 11 -35.5 17t-34.5 6q-16 0 -30 -10t-22.5 -21t-10.5 -14l-31 36q0 3 18.5 26.5t48.5 43.5t68 20q26 0 44 -6.5t42 -19.5q19 -11 31.5 -16t28.5 -5t28 7t18.5 15t7.5 10l31 -35q0 -3 -15 -23.5zM476 0
h-103l-181 349h-3l-1 -55l-41 -294h-81l70 500h136l154 -304h3l-1 41l37 263h81z" />
    <glyph glyph-name="o.sc" horiz-adv-x="553" 
d="M520.5 136q-37.5 -72 -102 -109.5t-145.5 -37.5q-101 0 -154 58t-53 158q0 89 32.5 158t96 108.5t151.5 39.5q110 0 161 -59t51 -145q0 -99 -37.5 -171zM337 445q-62 0 -98 -70t-36 -208q0 -111 80 -111q60 0 97 68.5t37 208.5q0 112 -80 112z" />
    <glyph glyph-name="oacute.sc" horiz-adv-x="553" 
d="M494 699l-139 -130l-56 9l91 152zM520.5 136q-37.5 -72 -102 -109.5t-145.5 -37.5q-101 0 -154 58t-53 158q0 89 32.5 158t96 108.5t151.5 39.5q110 0 161 -59t51 -145q0 -99 -37.5 -171zM337 445q-62 0 -98 -70t-36 -208q0 -111 80 -111q60 0 97 68.5t37 208.5
q0 112 -80 112z" />
    <glyph glyph-name="ocircumflex.sc" horiz-adv-x="553" 
d="M490 631l-34 -45l-92 85l-117 -85l-22 45l115 122h70zM520.5 136q-37.5 -72 -102 -109.5t-145.5 -37.5q-101 0 -154 58t-53 158q0 89 32.5 158t96 108.5t151.5 39.5q110 0 161 -59t51 -145q0 -99 -37.5 -171zM337 445q-62 0 -98 -70t-36 -208q0 -111 80 -111
q60 0 97 68.5t37 208.5q0 112 -80 112z" />
    <glyph glyph-name="odieresis.sc" horiz-adv-x="553" 
d="M276 721q26 0 43 -17q14 -19 14 -41q0 -37 -29 -63q-22 -18 -48 -18t-43 18q-14 17 -14 41q0 17 7.5 33.5t20.5 29.5q22 17 49 17zM461 721q25 0 44 -17q14 -19 14 -41q0 -37 -29 -63q-22 -18 -49 -18t-42 18q-14 17 -14 41q0 17 7.5 33.5t20.5 29.5q22 17 48 17z
M520.5 136q-37.5 -72 -102 -109.5t-145.5 -37.5q-101 0 -154 58t-53 158q0 89 32.5 158t96 108.5t151.5 39.5q110 0 161 -59t51 -145q0 -99 -37.5 -171zM337 445q-62 0 -98 -70t-36 -208q0 -111 80 -111q60 0 97 68.5t37 208.5q0 112 -80 112z" />
    <glyph glyph-name="ograve.sc" horiz-adv-x="553" 
d="M347 738l64 -147l-64 -17l-111 129zM520.5 136q-37.5 -72 -102 -109.5t-145.5 -37.5q-101 0 -154 58t-53 158q0 89 32.5 158t96 108.5t151.5 39.5q110 0 161 -59t51 -145q0 -99 -37.5 -171zM337 445q-62 0 -98 -70t-36 -208q0 -111 80 -111q60 0 97 68.5t37 208.5
q0 112 -80 112z" />
    <glyph glyph-name="ohungarumlaut.sc" horiz-adv-x="553" 
d="M308 738l89 -26l-116 -150l-47 23zM464 738l89 -26l-116 -150l-48 23zM520.5 136q-37.5 -72 -102 -109.5t-145.5 -37.5q-101 0 -154 58t-53 158q0 89 32.5 158t96 108.5t151.5 39.5q110 0 161 -59t51 -145q0 -99 -37.5 -171zM337 445q-62 0 -98 -70t-36 -208
q0 -111 80 -111q60 0 97 68.5t37 208.5q0 112 -80 112z" />
    <glyph glyph-name="omacron.sc" horiz-adv-x="553" 
d="M463 624h-215l8 58h214zM520.5 136q-37.5 -72 -102 -109.5t-145.5 -37.5q-101 0 -154 58t-53 158q0 89 32.5 158t96 108.5t151.5 39.5q110 0 161 -59t51 -145q0 -99 -37.5 -171zM337 445q-62 0 -98 -70t-36 -208q0 -111 80 -111q60 0 97 68.5t37 208.5q0 112 -80 112z
" />
    <glyph glyph-name="oslash.sc" horiz-adv-x="553" 
d="M520.5 136q-37.5 -72 -102 -109.5t-145.5 -37.5q-42 0 -78 11l-50 -85l-38 11l53 89q-47 26 -70.5 75t-23.5 115q0 89 32.5 158t96 108.5t151.5 39.5q56 0 96 -17l38 64l39 -10l-42 -71q42 -28 61.5 -72.5t19.5 -97.5q0 -99 -37.5 -171zM212 104l184 312q-19 29 -59 29
q-62 0 -98 -70t-36 -208q0 -37 9 -63zM414 371l-178 -301q17 -14 47 -14q60 0 97 68.5t37 208.5q0 20 -3 38z" />
    <glyph glyph-name="otilde.sc" horiz-adv-x="553" 
d="M532 646.5q-15 -20.5 -42 -38t-66 -17.5q-22 0 -38 6t-41 19q-20 11 -35.5 17t-34.5 6q-16 0 -30 -10t-22.5 -21t-10.5 -14l-31 36q0 3 18.5 26.5t48.5 43.5t68 20q26 0 44 -6.5t42 -19.5q19 -11 31.5 -16t28.5 -5t28 7t18.5 15t7.5 10l31 -35q0 -3 -15 -23.5zM520.5 136
q-37.5 -72 -102 -109.5t-145.5 -37.5q-101 0 -154 58t-53 158q0 89 32.5 158t96 108.5t151.5 39.5q110 0 161 -59t51 -145q0 -99 -37.5 -171zM337 445q-62 0 -98 -70t-36 -208q0 -111 80 -111q60 0 97 68.5t37 208.5q0 112 -80 112z" />
    <glyph glyph-name="oe.sc" horiz-adv-x="759" 
d="M557 285h162l-9 -65h-161q-4 -25 -14 -51l-14 -102h202l-10 -67h-334l1 8q-52 -19 -107 -19q-101 0 -154 58t-53 158q0 89 32.5 158t96 108.5t151.5 39.5q58 0 102 -19l1 8h326l-9 -67h-194l-15 -105l1 -21q0 -15 -1 -22zM337 445q-62 0 -98 -70t-36 -208q0 -111 80 -111
q60 0 97 68.5t37 208.5q0 112 -80 112z" />
    <glyph glyph-name="p.sc" horiz-adv-x="459" 
d="M310 500q82 0 127.5 -36.5t45.5 -108.5q0 -71 -33.5 -117.5t-83.5 -68t-102 -21.5h-46l-20 -148h-132l70 500h174zM227 207h30q40 0 65 40.5t25 127.5q0 34 -17 49t-45 15h-26z" />
    <glyph glyph-name="thorn.sc" horiz-adv-x="486" 
d="M320 428q82 0 127 -37.5t45 -112.5t-34 -124.5t-84.5 -72.5t-102.5 -23h-45l-8 -58h-133l60 428l10 72h133l-10 -72h42zM234 120h36q40 0 65.5 40t25.5 136q0 38 -14.5 53t-41.5 15h-36z" />
    <glyph glyph-name="q.sc" horiz-adv-x="553" 
d="M425 -180q-43 0 -83 24.5t-68.5 64t-40.5 83.5q-82 11 -124.5 67.5t-42.5 145.5t32.5 158t96 108.5t151.5 39.5q103 0 158 -56t55 -155q0 -115 -55.5 -196.5t-155.5 -105.5q17 -49 44.5 -83.5t60.5 -34.5q10 0 20 3l-2 -55q-24 -8 -46 -8zM397 415q-20 30 -60 30
q-62 0 -98 -70.5t-36 -206.5q0 -54 20 -83t60 -29q64 0 99 69t35 204q0 56 -20 86z" />
    <glyph glyph-name="r.sc" horiz-adv-x="495" 
d="M311 500q82 0 128 -36t46 -101q0 -51 -28.5 -90.5t-73.5 -64.5l88 -208h-151l-64 178h-33l-25 -178h-132l70 500h175zM231 240h30q89 0 89 140q0 60 -61 60h-30z" />
    <glyph glyph-name="racute.sc" horiz-adv-x="495" 
d="M455 699l-139 -130l-56 9l91 152zM311 500q82 0 128 -36t46 -101q0 -51 -28.5 -90.5t-73.5 -64.5l88 -208h-151l-64 178h-33l-25 -178h-132l70 500h175zM231 240h30q89 0 89 140q0 60 -61 60h-30z" />
    <glyph glyph-name="rcaron.sc" horiz-adv-x="495" 
d="M177 710l47 35l95 -93l121 93l37 -39l-134 -134h-70zM311 500q82 0 128 -36t46 -101q0 -51 -28.5 -90.5t-73.5 -64.5l88 -208h-151l-64 178h-33l-25 -178h-132l70 500h175zM231 240h30q89 0 89 140q0 60 -61 60h-30z" />
    <glyph glyph-name="rcommaaccent.sc" horiz-adv-x="495" 
d="M311 500q82 0 128 -36t46 -101q0 -51 -28.5 -90.5t-73.5 -64.5l88 -208h-151l-64 178h-33l-25 -178h-132l70 500h175zM231 240h30q89 0 89 140q0 60 -61 60h-30zM243 -46q25 0 41 -16q20 -24 20 -61q0 -54 -38 -116.5t-93 -99.5l-25 31q40 32 61.5 68t22.5 70h-7
q-24 0 -40 16q-13 16 -13 36q0 15 6.5 30t19.5 26q19 16 45 16z" />
    <glyph glyph-name="s.sc" horiz-adv-x="414" 
d="M378 417q-14 10 -36 19.5t-44 9.5q-27 0 -44 -16.5t-17 -45.5q0 -24 16 -40.5t52 -41.5q31 -21 50.5 -38t33.5 -42t14 -59q0 -55 -26.5 -94.5t-70 -59.5t-94.5 -20q-60 0 -98.5 19t-57 40.5t-18.5 25.5l43 55q0 -2 16 -21t41.5 -35t57.5 -16q30 0 48.5 18t18.5 45
q0 21 -16 38t-49 39q-47 32 -72.5 62t-25.5 78q0 52 25.5 91.5t69 61t95.5 21.5q36 0 65.5 -10.5t48 -23t18.5 -13.5l-26 -60z" />
    <glyph glyph-name="sacute.sc" horiz-adv-x="414" 
d="M447 699l-139 -130l-56 9l91 152zM378 417q-14 10 -36 19.5t-44 9.5q-27 0 -44 -16.5t-17 -45.5q0 -24 16 -40.5t52 -41.5q31 -21 50.5 -38t33.5 -42t14 -59q0 -55 -26.5 -94.5t-70 -59.5t-94.5 -20q-60 0 -98.5 19t-57 40.5t-18.5 25.5l43 55q0 -2 16 -21t41.5 -35
t57.5 -16q30 0 48.5 18t18.5 45q0 21 -16 38t-49 39q-47 32 -72.5 62t-25.5 78q0 52 25.5 91.5t69 61t95.5 21.5q36 0 65.5 -10.5t48 -23t18.5 -13.5l-26 -60z" />
    <glyph glyph-name="scaron.sc" horiz-adv-x="414" 
d="M168 710l47 35l95 -93l121 93l37 -39l-134 -134h-70zM378 417q-14 10 -36 19.5t-44 9.5q-27 0 -44 -16.5t-17 -45.5q0 -24 16 -40.5t52 -41.5q31 -21 50.5 -38t33.5 -42t14 -59q0 -55 -26.5 -94.5t-70 -59.5t-94.5 -20q-60 0 -98.5 19t-57 40.5t-18.5 25.5l43 55
q0 -2 16 -21t41.5 -35t57.5 -16q30 0 48.5 18t18.5 45q0 21 -16 38t-49 39q-47 32 -72.5 62t-25.5 78q0 52 25.5 91.5t69 61t95.5 21.5q36 0 65.5 -10.5t48 -23t18.5 -13.5l-26 -60z" />
    <glyph glyph-name="scedilla.sc" horiz-adv-x="414" 
d="M378 417q-14 10 -36 19.5t-44 9.5q-27 0 -44 -16.5t-17 -45.5q0 -24 16 -40.5t52 -41.5q31 -21 50.5 -38t33.5 -42t14 -59q0 -55 -26 -94t-69.5 -59t-94.5 -21l-9 -46q0 -1 20.5 -9t38 -25t17.5 -47q0 -49 -33.5 -80.5t-96.5 -31.5q-33 0 -52.5 10t-28 21.5t-8.5 14.5
l30 29q1 -2 6.5 -9t16.5 -13.5t27 -6.5q60 0 60 63q0 20 -13.5 28.5t-27 11.5t-13.5 4l23 89q-45 7 -74.5 25t-43.5 36t-14 21l43 55q0 -2 16 -21t41.5 -35t57.5 -16q30 0 48.5 18t18.5 45q0 21 -16 38t-49 39q-47 32 -72.5 62t-25.5 78q0 52 25.5 91.5t69 61t95.5 21.5
q36 0 65.5 -10.5t48 -23t18.5 -13.5l-26 -60z" />
    <glyph glyph-name="germandbls.sc" horiz-adv-x="554" 
d="M290 266l107 167h-49q-31 0 -51 -13t-34 -45t-22 -90l-40 -285h-132l43 311q28 189 223 189h188l-6 -44l-113 -164h8q56 0 93 -32t37 -90t-28 -99t-72.5 -61.5t-94.5 -20.5q-36 0 -59.5 6.5t-35.5 14.5t-12 9l26 61q2 -2 10 -7t22 -9.5t32 -4.5q39 0 60 35.5t21 96.5
q0 41 -34 41q-10 0 -18.5 -9t-8.5 -11l-2 2z" />
    <glyph glyph-name="t.sc" horiz-adv-x="450" 
d="M489 432h-136l-61 -432h-133l61 432h-136l9 68h405z" />
    <glyph glyph-name="tcaron.sc" horiz-adv-x="450" 
d="M168 710l47 35l95 -93l121 93l37 -39l-134 -134h-70zM489 432h-136l-61 -432h-133l61 432h-136l9 68h405z" />
    <glyph glyph-name="uni021B.sc" horiz-adv-x="450" 
d="M489 432h-136l-61 -432h-133l61 432h-136l9 68h405zM223 -46q25 0 41 -16q20 -24 20 -61q0 -54 -38 -116.5t-93 -99.5l-25 31q40 32 61.5 68t22.5 70h-7q-24 0 -40 16q-13 16 -13 36q0 15 6.5 30t19.5 26q19 16 45 16z" />
    <glyph glyph-name="u.sc" horiz-adv-x="509" 
d="M125 30.5q-43 41.5 -43 116.5q0 21 3 43l43 310h133l-39 -281q-6 -40 -6 -68q0 -48 17 -69.5t52 -21.5q49 0 76 38t39 121l40 281h81l-44 -310q-14 -97 -65.5 -149t-157.5 -52q-86 0 -129 41.5z" />
    <glyph glyph-name="uacute.sc" horiz-adv-x="509" 
d="M485 699l-139 -130l-56 9l91 152zM125 30.5q-43 41.5 -43 116.5q0 21 3 43l43 310h133l-39 -281q-6 -40 -6 -68q0 -48 17 -69.5t52 -21.5q49 0 76 38t39 121l40 281h81l-44 -310q-14 -97 -65.5 -149t-157.5 -52q-86 0 -129 41.5z" />
    <glyph glyph-name="ucircumflex.sc" horiz-adv-x="509" 
d="M493 631l-34 -45l-92 85l-117 -85l-22 45l115 122h70zM125 30.5q-43 41.5 -43 116.5q0 21 3 43l43 310h133l-39 -281q-6 -40 -6 -68q0 -48 17 -69.5t52 -21.5q49 0 76 38t39 121l40 281h81l-44 -310q-14 -97 -65.5 -149t-157.5 -52q-86 0 -129 41.5z" />
    <glyph glyph-name="udieresis.sc" horiz-adv-x="509" 
d="M278 721q26 0 43 -17q14 -19 14 -41q0 -37 -29 -63q-22 -18 -48 -18q-27 0 -43 18q-14 17 -14 41q0 17 7.5 33.5t20.5 29.5q22 17 49 17zM463 721q25 0 44 -17q14 -19 14 -41q0 -37 -29 -63q-22 -18 -49 -18t-42 18q-14 17 -14 41q0 17 7.5 33.5t20.5 29.5q22 17 48 17z
M125 30.5q-43 41.5 -43 116.5q0 21 3 43l43 310h133l-39 -281q-6 -40 -6 -68q0 -48 17 -69.5t52 -21.5q49 0 76 38t39 121l40 281h81l-44 -310q-14 -97 -65.5 -149t-157.5 -52q-86 0 -129 41.5z" />
    <glyph glyph-name="ugrave.sc" horiz-adv-x="509" 
d="M368 738l64 -147l-64 -17l-111 129zM125 30.5q-43 41.5 -43 116.5q0 21 3 43l43 310h133l-39 -281q-6 -40 -6 -68q0 -48 17 -69.5t52 -21.5q49 0 76 38t39 121l40 281h81l-44 -310q-14 -97 -65.5 -149t-157.5 -52q-86 0 -129 41.5z" />
    <glyph glyph-name="uhungarumlaut.sc" horiz-adv-x="509" 
d="M296 738l89 -26l-116 -150l-47 23zM452 738l89 -26l-116 -150l-48 23zM125 30.5q-43 41.5 -43 116.5q0 21 3 43l43 310h133l-39 -281q-6 -40 -6 -68q0 -48 17 -69.5t52 -21.5q49 0 76 38t39 121l40 281h81l-44 -310q-14 -97 -65.5 -149t-157.5 -52q-86 0 -129 41.5z" />
    <glyph glyph-name="umacron.sc" horiz-adv-x="509" 
d="M462 624h-215l8 58h214zM125 30.5q-43 41.5 -43 116.5q0 21 3 43l43 310h133l-39 -281q-6 -40 -6 -68q0 -48 17 -69.5t52 -21.5q49 0 76 38t39 121l40 281h81l-44 -310q-14 -97 -65.5 -149t-157.5 -52q-86 0 -129 41.5z" />
    <glyph glyph-name="uogonek.sc" horiz-adv-x="509" 
d="M427 57.5q-38 -49.5 -114 -63.5q-31 -18 -54.5 -53t-23.5 -89q0 -30 17.5 -41.5t51.5 -11.5l-7 -49q-70 0 -110 21t-40 77q0 78 92 142q-79 4 -118 44.5t-39 112.5q0 21 3 43l43 310h133l-39 -281q-6 -40 -6 -68q0 -48 17 -69.5t52 -21.5q49 0 76 38t39 121l40 281h81
l-44 -310q-12 -83 -50 -132.5z" />
    <glyph glyph-name="uring.sc" horiz-adv-x="509" 
d="M429.5 582q-33.5 -34 -85.5 -34q-43 0 -68 24t-25 67q0 57 33.5 90.5t85.5 33.5q41 0 67 -24.5t26 -66.5q0 -56 -33.5 -90zM403 707.5q-15 13.5 -38 13.5q-30 0 -49 -19.5t-19 -56.5q0 -26 14.5 -40t38.5 -14q31 0 49.5 20t18.5 57q0 26 -15 39.5zM125 30.5
q-43 41.5 -43 116.5q0 21 3 43l43 310h133l-39 -281q-6 -40 -6 -68q0 -48 17 -69.5t52 -21.5q49 0 76 38t39 121l40 281h81l-44 -310q-14 -97 -65.5 -149t-157.5 -52q-86 0 -129 41.5z" />
    <glyph glyph-name="v.sc" horiz-adv-x="491" 
d="M165 0l-81 500h140l54 -405h3l181 405h83l-234 -500h-146z" />
    <glyph glyph-name="w.sc" horiz-adv-x="727" 
d="M781 500l-203 -500h-113l-51 341h-3l-145 -341h-114l-68 500h141l37 -351h2l145 351h107l50 -349h3l129 349h83z" />
    <glyph glyph-name="x.sc" horiz-adv-x="499" 
d="M207 241l-117 259h166l60 -164h3l122 164h94l-180 -227l132 -273h-165l-75 178h-3l-133 -178h-99z" />
    <glyph glyph-name="y.sc" horiz-adv-x="445" 
d="M292 284l129 216h92l-194 -299l-28 -201h-132l26 187l-114 313h148l72 -216h1z" />
    <glyph glyph-name="yacute.sc" horiz-adv-x="445" 
d="M461 699l-139 -130l-56 9l91 152zM292 284l129 216h92l-194 -299l-28 -201h-132l26 187l-114 313h148l72 -216h1z" />
    <glyph glyph-name="ydieresis.sc" horiz-adv-x="445" 
d="M250 721q26 0 43 -17q14 -19 14 -41q0 -37 -29 -63q-23 -18 -48 -18q-26 0 -43 18q-14 17 -14 41q0 17 7.5 33.5t20.5 29.5q22 17 49 17zM435 721q25 0 44 -17q14 -19 14 -41q0 -37 -29 -63q-22 -18 -49 -18t-42 18q-14 17 -14 41q0 17 7.5 33.5t20.5 29.5q22 17 48 17z
M292 284l129 216h92l-194 -299l-28 -201h-132l26 187l-114 313h148l72 -216h1z" />
    <glyph glyph-name="z.sc" horiz-adv-x="487" 
d="M502 444l-289 -377h235l-10 -67h-394l8 54l289 379h-219l9 67h378z" />
    <glyph glyph-name="zacute.sc" horiz-adv-x="487" 
d="M460 699l-139 -130l-56 9l91 152zM502 444l-289 -377h235l-10 -67h-394l8 54l289 379h-219l9 67h378z" />
    <glyph glyph-name="zcaron.sc" horiz-adv-x="487" 
d="M186 710l47 35l95 -93l121 93l37 -39l-134 -134h-70zM502 444l-289 -377h235l-10 -67h-394l8 54l289 379h-219l9 67h378z" />
    <glyph glyph-name="zdotaccent.sc" horiz-adv-x="487" 
d="M334 728q31 0 49 -19q15 -19 15 -45q0 -19 -8 -37.5t-23 -32.5q-25 -19 -55 -19q-32 0 -49 20q-16 17 -16 45q0 18 8.5 36.5t23.5 31.5q23 20 55 20zM502 444l-289 -377h235l-10 -67h-394l8 54l289 379h-219l9 67h378z" />
    <glyph glyph-name="ordfeminine" unicode="&#xaa;" horiz-adv-x="413" 
d="M265.5 325q-24.5 -18 -75.5 -18t-78 24t-27 66q0 77 72.5 112t162.5 41l1 5q2 18 2 25q0 28 -13 40.5t-42 12.5q-24 0 -46.5 -9.5t-36.5 -19.5t-17 -13l-20 35q0 2 18 17t51 27.5t81 12.5q70 0 106 -26t36 -82q0 -9 -2 -29l-32 -226h-91l-18 39q-7 -16 -31.5 -34z
M281.5 378q12.5 11 17.5 23l15 106q-56 -7 -84 -29t-28 -68q0 -43 43 -43q24 0 36.5 11z" />
    <glyph glyph-name="ordmasculine" unicode="&#xba;" horiz-adv-x="439" 
d="M423.5 366.5q-58.5 -59.5 -161.5 -59.5q-82 0 -124 40.5t-42 114.5q0 102 56 161.5t163 59.5q83 0 125 -41t42 -115q0 -101 -58.5 -160.5zM218 436q0 -79 51 -79q90 0 90 196q0 78 -51 78q-90 0 -90 -195z" />
    <glyph glyph-name="uni052E" unicode="&#x52e;" horiz-adv-x="655" 
d="M506 0h-93l82 578h-138q-43 -295 -114.5 -441.5t-165.5 -146.5q-24 0 -38.5 3.5t-14.5 4.5l17 88q3 -1 12 -3t18 -2q70 0 122 133t96 436h355l-83 -578h81l-63 -247h-75z" />
    <glyph glyph-name="uni0528" unicode="&#x528;" horiz-adv-x="668" 
d="M-57.5 -206q-27.5 9 -39 19.5t-11.5 12.5l39 58q1 -2 8.5 -9t22 -13t34.5 -6q38 0 60.5 32.5t34.5 121.5l92 640h138l-41 -284h225l41 284h138l-93 -650h-138l42 296h-225l-41 -286q-17 -124 -69 -174.5t-145 -50.5q-45 0 -72.5 9z" />
    <glyph glyph-name="uni0410" unicode="&#x410;" horiz-adv-x="608" 
d="M479 650l111 -650h-146l-30 182h-226l-85 -182h-84l307 650h153zM356 551l-140 -306h188l-47 306h-1z" />
    <glyph glyph-name="uni0411" unicode="&#x411;" horiz-adv-x="553" 
d="M297 578l-25 -177h42q113 0 174 -40t61 -121q0 -72 -33 -126t-97.5 -84t-156.5 -30h-185l91 650h365l-10 -72h-226zM224 65h45q65 0 101.5 45t36.5 138q0 50 -25 70t-76 20h-43z" />
    <glyph glyph-name="uni0412" unicode="&#x412;" horiz-adv-x="569" 
d="M366 650q105 0 156.5 -41.5t51.5 -105.5q0 -58 -34 -99t-85 -65q49 -16 77.5 -48.5t28.5 -80.5q0 -59 -32 -107t-95.5 -75.5t-153.5 -27.5h-203l91 650h198zM388.5 377.5q21.5 16.5 36 47t14.5 72.5q0 45 -23 66.5t-62 21.5h-56l-32 -224h82q19 0 40.5 16.5zM224 65h62
q61 0 99 42.5t38 111.5q0 43 -20.5 62.5t-55.5 19.5h-90z" />
    <glyph glyph-name="uni0413" unicode="&#x413;" horiz-adv-x="438" 
d="M295 578l-80 -578h-138l92 650h349l-6 -72h-217z" />
    <glyph glyph-name="uni0403" unicode="&#x403;" horiz-adv-x="438" 
d="M484 834l-139 -130l-56 9l91 152zM295 578l-80 -578h-138l92 650h349l-6 -72h-217z" />
    <glyph glyph-name="uni0490" unicode="&#x490;" horiz-adv-x="420" 
d="M517 750l-17 -176h-204l-81 -574h-138l91 650h240l42 100h67z" />
    <glyph glyph-name="uni0414" unicode="&#x414;" horiz-adv-x="646" 
d="M551 72h82l-59 -247h-77l2 175h-356l-65 -175h-69l24 247h68q54 88 89.5 215.5t67.5 362.5h375zM265 269.5q-34 -114.5 -83 -197.5h232l71 506h-156q-30 -194 -64 -308.5z" />
    <glyph glyph-name="uni0415" unicode="&#x415;" horiz-adv-x="524" 
d="M481 0h-404l91 650h390l-10 -72h-252l-30 -214h223l-11 -70h-221l-31 -222h265z" />
    <glyph glyph-name="uni0400" unicode="&#x400;" horiz-adv-x="524" 
d="M369 873l64 -147l-64 -17l-111 129zM481 0h-404l91 650h390l-10 -72h-252l-30 -214h223l-11 -70h-221l-31 -222h265z" />
    <glyph glyph-name="uni0401" unicode="&#x401;" horiz-adv-x="524" 
d="M292 856q26 0 43 -17q14 -19 14 -41q0 -37 -29 -63q-22 -18 -48 -18q-27 0 -43 18q-14 17 -14 41q0 17 7.5 33.5t20.5 29.5q22 17 49 17zM477 856q25 0 44 -17q14 -19 14 -41q0 -37 -29 -63q-22 -18 -49 -18t-42 18q-14 17 -14 41q0 17 7.5 33.5t20.5 29.5q22 17 48 17z
M481 0h-404l91 650h390l-10 -72h-252l-30 -214h223l-11 -70h-221l-31 -222h265z" />
    <glyph glyph-name="uni0416" unicode="&#x416;" horiz-adv-x="895" 
d="M565 404h79l190 246h99l-210 -248l151 -402h-161l-106 332h-52l-46 -332h-138l46 331h-57l-177 -331h-162l241 380l-121 270h99l99 -246h88l35 246h138z" />
    <glyph glyph-name="uni0417" unicode="&#x417;" horiz-adv-x="511" 
d="M176.5 628q29.5 12 70.5 22t83 10q93 0 144.5 -38.5t51.5 -105.5q0 -66 -36.5 -110t-90.5 -70q105 -24 105 -125q0 -64 -33.5 -114.5t-95 -79t-143.5 -28.5q-78 0 -124 23t-64.5 48.5t-18.5 32.5l50 52q0 -4 17.5 -25t51 -39t81.5 -18q58 0 92 41.5t34 116.5
q0 43 -19 60.5t-56 17.5l-97 -8l11 77l103 -9q19 1 39 19t34 52.5t14 81.5q0 78 -87 78q-28 0 -59.5 -9.5t-54 -20t-28.5 -13.5l-4 68q0 1 29.5 13z" />
    <glyph glyph-name="uni0418" unicode="&#x418;" horiz-adv-x="676" 
d="M599 0h-138l58 420l17 72h-1l-317 -470l-11 -22h-130l91 650h138l-60 -431l-17 -65h2l319 474l12 22h128z" />
    <glyph glyph-name="uni0419" unicode="&#x419;" horiz-adv-x="676" 
d="M496 773q14 14 14 32q0 5 -1 8.5t-1 4.5l2 12l102 -9q0 -11 -12 -39.5t-51 -56t-113 -27.5q-83 0 -112 33t-29 72q0 7 0.5 12t0.5 6l104 9l-2 -12q-1 -2 -4 -9.5t-3 -15.5q0 -34 54 -34q37 0 51 14zM599 0h-138l58 420l17 72h-1l-317 -470l-11 -22h-130l91 650h138
l-60 -431l-17 -65h2l319 474l12 22h128z" />
    <glyph glyph-name="uni040D" unicode="&#x40d;" horiz-adv-x="676" 
d="M424 873l64 -147l-64 -17l-111 129zM599 0h-138l58 420l17 72h-1l-317 -470l-11 -22h-130l91 650h138l-60 -431l-17 -65h2l319 474l12 22h128z" />
    <glyph glyph-name="uni048A" unicode="&#x48a;" horiz-adv-x="707" 
d="M486 -175l57 175h-84l60 420l16 72h-1l-318 -470l-11 -22h-130l93 650h138l-62 -431l-16 -65h2l320 474l12 22h128l-83 -578h86l-3 -22l-130 -225h-74z" />
    <glyph glyph-name="uni041A" unicode="&#x41a;" horiz-adv-x="619" 
d="M168 650h138l-43 -302l66 44l227 258h96l-233 -254l188 -396h-175l-133 292l-48 -30l-36 -262h-138z" />
    <glyph glyph-name="uni040C" unicode="&#x40c;" horiz-adv-x="626" 
d="M549 834l-139 -130l-56 9l91 152zM168 650h138l-43 -302l66 44l227 258h96l-233 -254l188 -396h-175l-133 292l-48 -30l-36 -262h-138z" />
    <glyph glyph-name="uni041B" unicode="&#x41b;" horiz-adv-x="628" 
d="M551 0h-138l81 578h-138q-42 -295 -114 -441.5t-166 -146.5q-24 0 -38 3.5t-14 4.5l16 88q2 -1 10.5 -3t18.5 -2q70 0 122.5 134t95.5 435h355z" />
    <glyph glyph-name="uni041C" unicode="&#x41c;" horiz-adv-x="856" 
d="M779 0h-135l61 492h-2l-250 -492h-103l-112 492h-3l-72 -492h-86l99 650h167l115 -479h4l246 479h155z" />
    <glyph glyph-name="uni041D" unicode="&#x41d;" horiz-adv-x="655" 
d="M578 0h-138l41 296h-225l-41 -296h-138l91 650h138l-40 -284h225l40 284h138z" />
    <glyph glyph-name="uni041E" unicode="&#x41e;" horiz-adv-x="663" 
d="M632 180.5q-45 -91.5 -123 -141.5t-174 -50q-123 0 -191 72t-68 198q0 117 40 208t116.5 142t183.5 51q132 0 196.5 -75t64.5 -193q0 -120 -45 -211.5zM500 542.5q-30 45.5 -91 45.5q-187 0 -187 -363q0 -77 31 -121t89 -44q85 0 136.5 86t51.5 275q0 76 -30 121.5z" />
    <glyph glyph-name="uni041F" unicode="&#x41f;" horiz-adv-x="640" 
d="M563 0h-138l81 578h-209l-82 -578h-138l91 650h486z" />
    <glyph glyph-name="uni0420" unicode="&#x420;" horiz-adv-x="533" 
d="M367 650q99 0 153 -44.5t54 -134.5q0 -91 -40.5 -151t-101.5 -88.5t-124 -28.5h-64l-29 -203h-138l91 650h199zM253 267h48q56 0 91 51.5t35 166.5q0 53 -21 76.5t-60 23.5h-48z" />
    <glyph glyph-name="uni0421" unicode="&#x421;" horiz-adv-x="576" 
d="M561 548.5q-25 12.5 -61 24.5t-69 12q-93 0 -149.5 -82t-56.5 -261q0 -91 39.5 -134.5t110.5 -43.5q48 0 85.5 20t61 43t23.5 26l36 -48q0 -5 -28.5 -34.5t-81 -55.5t-126.5 -26q-129 0 -199 71t-70 196q0 117 43 208.5t121.5 143.5t183.5 52q46 0 88.5 -12t72 -27
t29.5 -16l-21 -73q-7 4 -32 16.5z" />
    <glyph glyph-name="uni0422" unicode="&#x422;" horiz-adv-x="516" 
d="M583 578h-174l-81 -578h-139l81 578h-175l11 72h488z" />
    <glyph glyph-name="uni0423" unicode="&#x423;" horiz-adv-x="596" 
d="M573 650h93l-238 -450q-59 -112 -119 -161.5t-133 -49.5q-29 0 -50.5 5.5t-32.5 11.5t-13 8l28 84q2 -2 11.5 -7t27 -9.5t38.5 -4.5q38 0 67.5 14.5t59.5 54.5l-197 504h162l125 -362h2z" />
    <glyph glyph-name="uni040E" unicode="&#x40e;" horiz-adv-x="596" 
d="M486 773q14 14 14 32q0 5 -1 8.5t-1 4.5l2 12l102 -9q0 -11 -12 -39.5t-51 -56t-113 -27.5q-83 0 -112 33t-29 72q0 7 0.5 12t0.5 6l104 9l-2 -12q-1 -2 -4 -9.5t-3 -15.5q0 -34 54 -34q37 0 51 14zM573 650h93l-238 -450q-59 -112 -119 -161.5t-133 -49.5
q-29 0 -50.5 5.5t-32.5 11.5t-13 8l28 84q2 -2 11.5 -7t27 -9.5t38.5 -4.5q38 0 67.5 14.5t59.5 54.5l-197 504h162l125 -362h2z" />
    <glyph glyph-name="uni0424" unicode="&#x424;" horiz-adv-x="768" 
d="M724.5 526.5q68.5 -55.5 68.5 -159.5q0 -92 -42.5 -160t-117.5 -104.5t-171 -38.5l-9 -64h-138l9 64q-119 2 -188 59.5t-69 161.5q0 92 42 159t116.5 102.5t171.5 38.5l9 65h138l-9 -65q121 -3 189.5 -58.5zM240.5 165.5q29.5 -35.5 91.5 -39.5l56 397
q-88 -5 -132.5 -71.5t-44.5 -183.5q0 -67 29.5 -102.5zM526 522l-56 -396q89 4 134.5 71.5t45.5 185.5q0 135 -124 139z" />
    <glyph glyph-name="uni0425" unicode="&#x425;" horiz-adv-x="581" 
d="M254 316l-146 334h173l87 -233h3l172 233h98l-231 -300l163 -350h-172l-105 248h-2l-182 -248h-104z" />
    <glyph glyph-name="uni0427" unicode="&#x427;" horiz-adv-x="586" 
d="M370 0l37 266q0 -2 -20 -12.5t-54.5 -19.5t-80.5 -9q-76 0 -110.5 39t-34.5 108q0 23 3 47l33 231h138l-30 -214q-5 -37 -5 -56q0 -42 16.5 -58.5t51.5 -16.5q52 0 102 25l45 320h139l-91 -650h-139z" />
    <glyph glyph-name="uni0426" unicode="&#x426;" horiz-adv-x="667" 
d="M226 72h209l81 578h138l-81 -578h81l-63 -247h-75l2 175h-441l91 650h138z" />
    <glyph glyph-name="uni0428" unicode="&#x428;" horiz-adv-x="870" 
d="M514 72h150l81 578h139l-91 -650h-716l91 650h138l-80 -578h150l81 578h138z" />
    <glyph glyph-name="uni0429" unicode="&#x429;" horiz-adv-x="894" 
d="M803 72h76l-60 -247h-75l3 175h-670l91 650h138l-80 -578h150l81 578h138l-81 -578h150l81 578h139z" />
    <glyph glyph-name="uni040F" unicode="&#x40f;" horiz-adv-x="640" 
d="M226 72h209l81 578h138l-91 -650h-182l-49 -204h-77l5 204h-183l91 650h138z" />
    <glyph glyph-name="uni042C" unicode="&#x42c;" horiz-adv-x="553" 
d="M306 650l-35 -249h47q231 0 231 -161q0 -109 -72.5 -174.5t-210.5 -65.5h-189l91 650h138zM224 65h48q64 0 100 47.5t36 137.5q0 47 -25 67.5t-74 20.5h-47z" />
    <glyph glyph-name="uni042A" unicode="&#x42a;" horiz-adv-x="644" 
d="M95 578l11 72h291l-35 -249h47q231 0 231 -161q0 -109 -72.5 -174.5t-210.5 -65.5h-189l81 578h-154zM315 65h48q64 0 100 47.5t36 137.5q0 47 -25 67.5t-74 20.5h-47z" />
    <glyph glyph-name="uni042B" unicode="&#x42b;" horiz-adv-x="805" 
d="M306 650l-35 -249h47q231 0 231 -161q0 -109 -72.5 -174.5t-210.5 -65.5h-189l91 650h138zM728 0h-138l91 650h138zM224 65h48q64 0 100 47.5t36 137.5q0 47 -25 67.5t-74 20.5h-47z" />
    <glyph glyph-name="uni0409" unicode="&#x409;" horiz-adv-x="889" 
d="M356 578q-42 -295 -114 -441.5t-166 -146.5q-24 0 -38 3.5t-14 4.5l16 88q2 -1 10.5 -3t18.5 -2q70 0 122.5 134t95.5 435h355l-35 -249h47q231 0 231 -161q0 -109 -72.5 -174.5t-210.5 -65.5h-189l81 578h-138zM560 65h48q64 0 100 47.5t36 137.5q0 47 -25 67.5
t-74 20.5h-47z" />
    <glyph glyph-name="uni040A" unicode="&#x40a;" horiz-adv-x="916" 
d="M256 296l-41 -296h-138l91 650h138l-40 -284h224l40 284h139l-35 -249h46q231 0 231 -161q0 -109 -72.5 -174.5t-210.5 -65.5h-189l41 296h-224zM587 65h47q64 0 100 47.5t36 137.5q0 47 -25 67.5t-74 20.5h-46z" />
    <glyph glyph-name="uni0405" unicode="&#x405;" horiz-adv-x="492" 
d="M467 559.5q-18 10.5 -46.5 20.5t-59.5 10q-43 0 -69.5 -24t-26.5 -67q0 -36 23.5 -60.5t71.5 -55.5q40 -27 65 -48t42.5 -53t17.5 -76q0 -68 -34 -117t-90.5 -74.5t-122.5 -25.5q-63 0 -106 20t-65.5 43.5t-22.5 27.5l46 58q0 -3 18 -22.5t49.5 -36t74.5 -16.5
q54 0 81.5 28t27.5 71q0 32 -22 54t-68 51q-41 26 -66.5 47t-44 54t-18.5 79q0 65 31.5 113t86 74t122.5 26q40 0 73 -10t55 -22.5t22 -13.5l-22 -68z" />
    <glyph glyph-name="uni0404" unicode="&#x404;" horiz-adv-x="586" 
d="M227 284q-1 -15 -1 -47q0 -173 155 -173q47 0 83.5 20.5t59 45t22.5 27.5l36 -48q0 -5 -27.5 -36t-79 -57.5t-125.5 -26.5q-128 0 -201.5 70t-73.5 194q0 114 42.5 207t121 146.5t180.5 53.5q46 0 87 -11.5t70 -25t29 -14.5l-21 -73q-7 4 -31 15.5t-59.5 22.5t-68.5 11
q-80 0 -128.5 -58.5t-63.5 -172.5h294l-10 -70h-290z" />
    <glyph glyph-name="uni042D" unicode="&#x42d;" horiz-adv-x="564" 
d="M96 130.5q20 -24.5 54 -45t80 -20.5q74 0 123 52.5t68 172.5h-280l10 71h277q3 35 3 75q0 82 -36.5 116t-107.5 34q-33 0 -66 -10t-54.5 -20.5l-27.5 -13.5l-7 70q7 4 34 15.5t67 22t80 10.5q130 0 198.5 -69t68.5 -192q0 -119 -40.5 -212.5t-115.5 -145.5t-174 -52
q-74 0 -123.5 24t-74 52t-24.5 33l48 60q0 -3 20 -27.5z" />
    <glyph glyph-name="uni0406" unicode="&#x406;" horiz-adv-x="293" 
d="M215 0h-138l91 650h138z" />
    <glyph glyph-name="uni0407" unicode="&#x407;" horiz-adv-x="293" 
d="M165 856q26 0 43 -17q14 -19 14 -41q0 -37 -29 -63q-23 -18 -48 -18q-27 0 -43 18q-14 17 -14 41q0 17 7.5 33.5t20.5 29.5q22 17 49 17zM350 856q25 0 44 -17q14 -19 14 -41q0 -37 -29 -63q-23 -18 -49 -18q-27 0 -42 18q-14 17 -14 41q0 17 7.5 33.5t20.5 29.5
q22 17 48 17zM215 0h-138l91 650h138z" />
    <glyph glyph-name="uni0408" unicode="&#x408;" horiz-adv-x="400" 
d="M49.5 78.5q8.5 -6.5 24 -12.5t34.5 -6q38 0 62 33t37 121l61 436h139l-62 -436q-17 -124 -67.5 -174.5t-140.5 -50.5q-39 0 -65.5 9t-41 19t-14.5 12l23 58q2 -2 10.5 -8.5z" />
    <glyph glyph-name="uni040B" unicode="&#x40b;" horiz-adv-x="695" 
d="M389 579l-32 -223h2q0 2 21 15.5t56 25t81 11.5q77 0 111 -33.5t34 -97.5q0 -21 -3 -45l-32 -232h-140l29 205q4 29 4 55q0 39 -15.5 52.5t-52.5 13.5q-34 0 -61.5 -12.5t-42.5 -25.5l-41 -288h-139l82 579h-155l11 71h447l-10 -71h-154z" />
    <glyph glyph-name="uni042E" unicode="&#x42e;" horiz-adv-x="923" 
d="M896 181.5q-42 -90.5 -121 -141.5t-187 -51q-123 0 -187 71t-64 199q0 21 1 31h-83l-40 -290h-138l91 650h138l-41 -290h80q25 137 112.5 218.5t224.5 81.5q124 0 190 -72.5t66 -199.5q0 -116 -42 -206.5zM760.5 547.5q-29.5 44.5 -87.5 44.5q-57 0 -100.5 -41
t-68 -122.5t-24.5 -198.5q0 -84 29.5 -128.5t88.5 -44.5q89 0 140.5 93t51.5 270q0 83 -29.5 127.5z" />
    <glyph glyph-name="uni042F" unicode="&#x42f;" horiz-adv-x="578" 
d="M362 0l35 251h-74l-145 -251h-142l172 268q-45 18 -71.5 54.5t-26.5 92.5q0 74 33 127t89 80.5t124 27.5h236l-91 -650h-139zM266.5 343q18.5 -23 49.5 -23h91l38 264h-92q-28 0 -52 -21t-38.5 -61t-14.5 -94q0 -42 18.5 -65z" />
    <glyph glyph-name="uni0402" unicode="&#x402;" horiz-adv-x="674" 
d="M396 579l-31 -223h2q0 2 20.5 15.5t55.5 25t81 11.5q76 0 111 -33.5t35 -96.5q0 -14 -4 -46l-4 -25q-17 -122 -65.5 -170t-133.5 -48q-28 0 -47 6t-28 13.5t-9 8.5l26 50q1 -1 6.5 -5t14 -7.5t19.5 -3.5q25 0 44.5 25.5t30.5 100.5l4 28q4 28 4 54q0 40 -15.5 53.5
t-53.5 13.5q-53 0 -104 -38l-40 -288h-139l81 579h-154l10 71h447l-10 -71h-154z" />
    <glyph glyph-name="uni0462" unicode="&#x462;" horiz-adv-x="618" 
d="M356 540l-19 -140h52q112 0 169 -38.5t57 -119.5q0 -111 -70 -176.5t-208 -65.5h-195l75 540h-127l11 77h127l10 69h139l-10 -69h173l-11 -77h-173zM290 65h54q65 0 97.5 46.5t32.5 140.5q0 46 -22.5 65t-70.5 19h-53z" />
    <glyph glyph-name="uni046A" unicode="&#x46a;" horiz-adv-x="765" 
d="M27 76q26 180 103 253t187 75l-121 246h536l-193 -246h2q97 0 154.5 -52t57.5 -181q0 -46 -7 -95l-11 -76h-122l11 78q8 61 8 99q0 89 -34.5 123t-104.5 36l-48 -336h-139l48 336q-58 -2 -97 -23.5t-66 -77t-42 -157.5l-11 -78h-122zM457 400l137 180h-215z" />
    <glyph glyph-name="uni0472" unicode="&#x472;" horiz-adv-x="663" 
d="M612.5 585q64.5 -75 64.5 -193q0 -120 -45 -211.5t-123 -141.5t-174 -50q-123 0 -191 72t-68 198q0 117 40 208t116.5 142t183.5 51q132 0 196.5 -75zM229 356h299q2 40 2 65q0 76 -30 121.5t-91 45.5q-150 0 -180 -232zM458.5 116q47.5 56 63.5 178h-298q-2 -44 -2 -69
q0 -77 31 -121t89 -44q69 0 116.5 56z" />
    <glyph glyph-name="uni0474" unicode="&#x474;" horiz-adv-x="608" 
d="M702 652l-19 -94q-11 4 -24 4q-76 0 -136 -150l-168 -412h-151l-104 650h146l77 -549h3l158 404q33 86 80 120.5t97 34.5q22 0 41 -8z" />
    <glyph glyph-name="uni0492" unicode="&#x492;" horiz-adv-x="438" 
d="M512 578h-217l-31 -222h87l-10 -62h-85l-41 -294h-138l42 294h-48l10 62h46l42 294h349z" />
    <glyph glyph-name="uni0494" unicode="&#x494;" horiz-adv-x="572" 
d="M75 0l93 650h362l-11 -72h-224l-82 -578h-138zM257 -211q-19 4 -41 16l33 62q18 -11 48 -11q24 0 43.5 22.5t37.5 86t35 181.5q9 66 9 108q0 58 -17 80.5t-54 22.5q-44 0 -91 -30l10 72q83 40 140 40q53 0 88.5 -15t55.5 -55t20 -112q0 -46 -9 -111
q-27 -192 -97.5 -276.5t-159.5 -84.5q-32 0 -51 4z" />
    <glyph glyph-name="uni0496" unicode="&#x496;" horiz-adv-x="883" 
d="M723 402l124 -329h58l-46 -221h-70l4 148h-80l-106 332h-52l-46 -332h-138l46 331h-57l-177 -331h-162l241 380l-121 270h99l99 -246h88l35 246h138l-35 -246h79l190 246h99z" />
    <glyph glyph-name="uni0498" unicode="&#x498;" horiz-adv-x="511" 
d="M504 211q0 -85 -56.5 -144t-154.5 -74l-43 -168h-75l2 168q-56 8 -90 30.5t-48 43.5t-14 26l50 52q0 -4 17.5 -25t51 -39t81.5 -18q58 0 92 41.5t34 116.5q0 43 -19 60.5t-56 17.5l-97 -8l11 77l103 -9q19 1 39 19t34 52.5t14 81.5q0 78 -87 78q-28 0 -59.5 -9.5t-54 -20
t-28.5 -13.5l-4 68q0 1 29.5 13t70.5 22t83 10q93 0 144.5 -38.5t51.5 -105.5q0 -66 -36.5 -110t-90.5 -70q105 -24 105 -125z" />
    <glyph glyph-name="uni049A" unicode="&#x49a;" horiz-adv-x="603" 
d="M419 396l153 -323h53l-46 -221h-70l4 148h-81l-133 292l-48 -30l-36 -262h-138l91 650h138l-43 -302l66 44l227 258h96z" />
    <glyph glyph-name="uni049C" unicode="&#x49c;" horiz-adv-x="619" 
d="M652 650l-233 -254l188 -396h-175l-133 292l-4 -2l-16 -100h-42l11 70l-30 -19l-33 -241h-138l91 650h138l-46 -324l33 22l18 112h42l-13 -81l19 13l227 258h96z" />
    <glyph glyph-name="uni049E" unicode="&#x49e;" horiz-adv-x="642" 
d="M277 349l76 43l227 258h96l-233 -254l187 -396h-175l-133 292l-57 -30l-37 -262h-138l70 493h-105l10 72h105l12 85h138l-12 -85h102l-10 -72h-102z" />
    <glyph glyph-name="uni04A0" unicode="&#x4a0;" horiz-adv-x="730" 
d="M763 650l-233 -254l188 -396h-175l-133 292l-48 -30l-36 -262h-138l81 578h-174l12 72h310l-43 -302l66 44l227 258h96z" />
    <glyph glyph-name="uni04A2" unicode="&#x4a2;" horiz-adv-x="655" 
d="M588 72h83l-63 -247h-75l2 175h-95l41 296h-225l-41 -296h-138l91 650h138l-40 -284h225l40 284h138z" />
    <glyph glyph-name="uni04A6" unicode="&#x4a6;" horiz-adv-x="920" 
d="M605 -211q-19 4 -41 16l33 62q18 -11 48 -11q24 0 43.5 22.5t37.5 86t35 181.5q9 66 9 108q0 58 -17 80.5t-54 22.5q-44 0 -91 -30l-47 -327h-138l82 578h-210l-82 -578h-138l93 650h486l-36 -251q83 40 140 40q53 0 88.5 -15t55.5 -55t20 -112q0 -46 -9 -111
q-27 -192 -97.5 -276.5t-159.5 -84.5q-32 0 -51 4z" />
    <glyph glyph-name="uni0524" unicode="&#x524;" horiz-adv-x="640" 
d="M573 72h83l-63 -247h-75l2 175h-95l81 578h-209l-82 -578h-138l91 650h486z" />
    <glyph glyph-name="uni04A8" unicode="&#x4a8;" horiz-adv-x="748" 
d="M642.5 0q-39.5 -11 -82.5 -11q-66 0 -112 23q-24 -12 -58 -17.5t-64 -5.5q-124 0 -188.5 68.5t-64.5 188.5q0 41 5 72q23 163 107.5 248.5t209.5 93.5l-11 -75q-61 -11 -98 -74t-56 -193q-8 -59 -8 -97q0 -87 31 -124t87 -37q27 0 46 5q-62 87 -62 192q0 29 4 53
q19 135 85.5 196.5t153.5 61.5q175 0 175 -181q0 -36 -5 -67q-11 -78 -55.5 -147t-108.5 -102q27 -5 46 -5t36 4.5t43 16.5l14 -56q-30 -20 -69.5 -31zM465 243q0 -47 9 -84t26 -49q32 28 55.5 85.5t31.5 113.5q10 69 10 114q0 39 -9.5 56.5t-30.5 17.5q-34 0 -54 -47.5
t-33 -139.5q-5 -37 -5 -67z" />
    <glyph glyph-name="uni04AA" unicode="&#x4aa;" horiz-adv-x="576" 
d="M281.5 503q-56.5 -82 -56.5 -261q0 -91 39.5 -134.5t110.5 -43.5q48 0 85.5 20t61 43t23.5 26l36 -48q0 -4 -23 -29t-65 -50.5t-101 -33.5l-42 -167h-75l2 170q-98 18 -149.5 86t-51.5 175q0 117 43 208.5t121.5 143.5t183.5 52q46 0 88.5 -12t72 -27t29.5 -16l-21 -73
q-7 4 -32 16.5t-61 24.5t-69 12q-93 0 -149.5 -82z" />
    <glyph glyph-name="uni04AC" unicode="&#x4ac;" horiz-adv-x="516" 
d="M280 -175l2 175h-94l82 578h-175l11 72h488l-11 -72h-174l-72 -506h81l-63 -247h-75z" />
    <glyph glyph-name="uni04AE" unicode="&#x4ae;" horiz-adv-x="523" 
d="M342 355l182 295h96l-250 -383l-36 -267h-139l35 251l-146 399h155l102 -295h1z" />
    <glyph glyph-name="uni04B0" unicode="&#x4b0;" horiz-adv-x="523" 
d="M620 650l-244 -374h62l-10 -62h-65l-29 -214h-139l30 214h-67l10 62h53l-137 374h155l102 -295h1l182 295h96z" />
    <glyph glyph-name="uni04B2" unicode="&#x4b2;" horiz-adv-x="615" 
d="M480 -175l2 175h-83l-104 248h-3l-182 -248h-104l247 316l-145 334h173l87 -233h3l172 233h98l-233 -300l129 -278h81l-63 -247h-75z" />
    <glyph glyph-name="uni04B6" unicode="&#x4b6;" horiz-adv-x="586" 
d="M601 72l-63 -247h-75l2 175h-95l37 266q0 -2 -20 -12.5t-54.5 -19.5t-80.5 -9q-76 0 -110.5 39t-34.5 108q0 23 3 47l33 231h138l-30 -214q-5 -37 -5 -56q0 -42 16.5 -58.5t51.5 -16.5q52 0 102 25l45 320h139l-81 -578h82z" />
    <glyph glyph-name="uni04B8" unicode="&#x4b8;" horiz-adv-x="586" 
d="M600 650l-91 -650h-139l37 266q0 -1 -18 -10.5t-44 -17.5l-16 -100h-42l15 90q-23 -3 -50 -3q-76 0 -110.5 39t-34.5 108q0 23 3 47l33 231h138l-30 -214q-5 -37 -5 -56q0 -42 16.5 -58.5t51.5 -16.5l17 103h42l-16 -98q26 5 42 12t17 8l45 320h139z" />
    <glyph glyph-name="uni04BA" unicode="&#x4ba;" horiz-adv-x="584" 
d="M307 650l-37 -266q0 2 20 12.5t54.5 19.5t80.5 9q76 0 110.5 -39t34.5 -108q0 -23 -3 -47l-33 -231h-138l30 214q5 37 5 56q0 43 -16 59t-52 16q-52 0 -102 -25l-45 -320h-139l91 650h139z" />
    <glyph glyph-name="uni0526" unicode="&#x526;" horiz-adv-x="638" 
d="M488 0h-94l31 214q5 35 5 55q0 43 -16.5 59.5t-52.5 16.5q-32 0 -59.5 -8.5t-41.5 -16.5l-46 -320h-139l93 650h139l-38 -266l15 10t54.5 20.5t85.5 10.5q76 0 111 -39t35 -106q0 -15 -4 -49l-23 -159h81l-63 -247h-75z" />
    <glyph glyph-name="uni04BC" unicode="&#x4bc;" horiz-adv-x="753" 
d="M152 446q0 -36 13 -56t48 -26q32 135 119.5 215.5t210.5 80.5q111 0 170 -65t59 -181q0 -28 -5 -70l-4 -23q-1 -13 -4 -27h-405q-4 -44 -4 -60q0 -91 37 -130.5t108 -39.5q47 0 88 20.5t68.5 45t27.5 27.5l36 -48q0 -4 -32.5 -35.5t-88.5 -58t-130 -26.5
q-127 0 -196.5 67.5t-69.5 189.5q0 25 3 50q-86 5 -126.5 39t-40.5 103q0 18 1 28l119 23q-2 -30 -2 -43zM633 437q0 81 -30.5 116t-76.5 35q-56 0 -100 -51.5t-61 -172.5h262q6 41 6 73z" />
    <glyph glyph-name="uni04BE" unicode="&#x4be;" horiz-adv-x="786" 
d="M392 -4q-93 17 -143.5 81.5t-50.5 167.5q0 24 3 51q-86 5 -126.5 39t-40.5 103q0 18 1 28l119 23q-2 -30 -2 -43q0 -36 12.5 -56t47.5 -26q32 135 119.5 215.5t210.5 80.5q111 0 170.5 -65t59.5 -182q0 -29 -5 -69q-1 -7 -4 -25.5t-5 -24.5h-405q-3 -31 -3 -58
q0 -92 37 -132t108 -40q47 0 88 20.5t68.5 45t27.5 27.5l36 -48q0 -3 -26.5 -29.5t-71.5 -52.5t-105 -34l-47 -197h-77zM632 437q0 81 -30.5 116t-76.5 35q-56 0 -100 -51.5t-61 -172.5h262q6 41 6 73z" />
    <glyph glyph-name="uni04C0" unicode="&#x4c0;" horiz-adv-x="293" 
d="M215 0h-138l91 650h138z" />
    <glyph glyph-name="uni04C1" unicode="&#x4c1;" horiz-adv-x="895" 
d="M565 404h79l190 246h99l-210 -248l151 -402h-161l-106 332h-52l-46 -332h-138l46 331h-57l-177 -331h-162l241 380l-121 270h99l99 -246h88l35 246h138zM597 788q14 14 14 32q0 5 -1 8.5t-1 4.5l2 12l102 -9q0 -11 -12 -39.5t-51 -56t-113 -27.5q-83 0 -112 33t-29 72
q0 7 0.5 12t0.5 6l104 9l-2 -12q-1 -2 -4 -9.5t-3 -15.5q0 -34 54 -34q37 0 51 14z" />
    <glyph glyph-name="uni04C3" unicode="&#x4c3;" horiz-adv-x="614" 
d="M428.5 -141q15.5 22 15.5 59q0 51 -34.5 142t-113.5 222l-47 -30l-36 -252h-138l93 650h138l-45 -311l65 43l230 268h96l-235 -264q90 -153 123.5 -240.5t33.5 -137.5q0 -12 -2 -28q-7 -51 -36 -99t-103 -96l-40 41q20 11 35.5 33z" />
    <glyph glyph-name="uni04C5" unicode="&#x4c5;" horiz-adv-x="661" 
d="M497 0h-84l82 578h-138q-43 -295 -114.5 -441.5t-165.5 -146.5q-24 0 -38.5 3.5t-14.5 4.5l17 88q3 -1 12 -3t18 -2q70 0 122 133t96 436h355l-83 -578h86l-3 -22l-130 -225h-74z" />
    <glyph glyph-name="uni04C7" unicode="&#x4c7;" horiz-adv-x="653" 
d="M290.5 -206q-27.5 9 -39 19.5t-11.5 12.5l39 58q1 -2 8.5 -9t22 -13t34.5 -6q38 0 60.5 32.5t34.5 121.5l41 286h-225l-42 -296h-138l93 650h138l-41 -284h225l41 284h138l-92 -640q-17 -124 -69 -174.5t-145 -50.5q-45 0 -72.5 9z" />
    <glyph glyph-name="uni04C9" unicode="&#x4c9;" horiz-adv-x="686" 
d="M465 -175l57 175h-84l42 296h-225l-42 -296h-138l93 650h138l-41 -284h225l41 284h138l-83 -578h86l-3 -22l-130 -225h-74z" />
    <glyph glyph-name="uni04CB" unicode="&#x4cb;" horiz-adv-x="586" 
d="M601 72l-63 -247h-75l2 175h-95l37 266q0 -2 -20 -12.5t-54.5 -19.5t-80.5 -9q-76 0 -110.5 39t-34.5 108q0 23 3 47l33 231h138l-30 -214q-5 -37 -5 -56q0 -42 16.5 -58.5t51.5 -16.5q52 0 102 25l45 320h139l-81 -578h82z" />
    <glyph glyph-name="uni04CD" unicode="&#x4cd;" horiz-adv-x="878" 
d="M657 -175l57 175h-80l63 492h-3l-251 -492h-103l-111 492h-3l-73 -492h-86l101 650h167l114 -479h4l247 479h155l-77 -578h86l-3 -22l-130 -225h-74z" />
    <glyph glyph-name="uni04D0" unicode="&#x4d0;" horiz-adv-x="608" 
d="M479 650l111 -650h-146l-30 182h-226l-85 -182h-84l307 650h153zM356 551l-140 -306h188l-47 306h-1zM470 788q14 14 14 32q0 5 -1 8.5t-1 4.5l2 12l102 -9q0 -11 -12 -39.5t-51 -56t-113 -27.5q-83 0 -112 33t-29 72q0 7 0.5 12t0.5 6l104 9l-2 -12q-1 -2 -4 -9.5
t-3 -15.5q0 -34 54 -34q37 0 51 14z" />
    <glyph glyph-name="uni04D2" unicode="&#x4d2;" horiz-adv-x="608" 
d="M479 650l111 -650h-146l-30 182h-226l-85 -182h-84l307 650h153zM356 551l-140 -306h188l-47 306h-1zM342 871q26 0 43 -17q14 -19 14 -41q0 -37 -29 -63q-23 -18 -48 -18q-27 0 -43 18q-14 17 -14 41q0 17 7.5 33.5t20.5 29.5q22 17 49 17zM527 871q25 0 44 -17
q14 -19 14 -41q0 -37 -29 -63q-23 -18 -49 -18q-27 0 -42 18q-14 17 -14 41q0 17 7.5 33.5t20.5 29.5q22 17 48 17z" />
    <glyph glyph-name="uni04D6" unicode="&#x4d6;" horiz-adv-x="524" 
d="M481 0h-404l91 650h390l-10 -72h-252l-30 -214h223l-11 -70h-221l-31 -222h265zM475 788q14 14 14 32q0 5 -1 8.5t-1 4.5l2 12l102 -9q0 -11 -12 -39.5t-51 -56t-113 -27.5q-83 0 -112 33t-29 72q0 7 0.5 12t0.5 6l104 9l-2 -12q-1 -2 -4 -9.5t-3 -15.5q0 -34 54 -34
q37 0 51 14z" />
    <glyph glyph-name="uni04D8" unicode="&#x4d8;" horiz-adv-x="573" 
d="M528 596q63 -64 63 -187q0 -34 -6 -75q-24 -168 -106 -258t-199 -90q-105 0 -159 57t-54 166q0 28 5 70q3 23 8 41t9 28t5 12h358q8 59 8 96q0 70 -27.5 100t-90.5 30q-44 0 -83.5 -22t-66.5 -47.5t-27 -28.5l-52 45q0 5 31.5 38t86.5 61t129 28q105 0 168 -64zM198 276
l-4 -30q-4 -29 -4 -60q0 -67 24.5 -97t65.5 -30q60 0 98 47.5t62 169.5h-242z" />
    <glyph glyph-name="uni04DA" unicode="&#x4da;" horiz-adv-x="573" 
d="M528 596q63 -64 63 -187q0 -34 -6 -75q-24 -168 -106 -258t-199 -90q-105 0 -159 57t-54 166q0 28 5 70q3 23 8 41t9 28t5 12h358q8 59 8 96q0 70 -27.5 100t-90.5 30q-44 0 -83.5 -22t-66.5 -47.5t-27 -28.5l-52 45q0 5 31.5 38t86.5 61t129 28q105 0 168 -64zM198 276
l-4 -30q-4 -29 -4 -60q0 -67 24.5 -97t65.5 -30q60 0 98 47.5t62 169.5h-242zM302 871q26 0 43 -17q14 -19 14 -41q0 -37 -29 -63q-23 -18 -48 -18q-27 0 -43 18q-14 17 -14 41q0 17 7.5 33.5t20.5 29.5q22 17 49 17zM487 871q25 0 44 -17q14 -19 14 -41q0 -37 -29 -63
q-23 -18 -49 -18q-27 0 -42 18q-14 17 -14 41q0 17 7.5 33.5t20.5 29.5q22 17 48 17z" />
    <glyph glyph-name="uni04DC" unicode="&#x4dc;" horiz-adv-x="895" 
d="M565 404h79l190 246h99l-210 -248l151 -402h-161l-106 332h-52l-46 -332h-138l46 331h-57l-177 -331h-162l241 380l-121 270h99l99 -246h88l35 246h138zM469 871q26 0 43 -17q14 -19 14 -41q0 -37 -29 -63q-23 -18 -48 -18q-27 0 -43 18q-14 17 -14 41q0 17 7.5 33.5
t20.5 29.5q22 17 49 17zM654 871q25 0 44 -17q14 -19 14 -41q0 -37 -29 -63q-23 -18 -49 -18q-27 0 -42 18q-14 17 -14 41q0 17 7.5 33.5t20.5 29.5q22 17 48 17z" />
    <glyph glyph-name="uni04DE" unicode="&#x4de;" horiz-adv-x="511" 
d="M176.5 628q29.5 12 70.5 22t83 10q93 0 144.5 -38.5t51.5 -105.5q0 -66 -36.5 -110t-90.5 -70q105 -24 105 -125q0 -64 -33.5 -114.5t-95 -79t-143.5 -28.5q-78 0 -124 23t-64.5 48.5t-18.5 32.5l50 52q0 -4 17.5 -25t51 -39t81.5 -18q58 0 92 41.5t34 116.5
q0 43 -19 60.5t-56 17.5l-97 -8l11 77l103 -9q19 1 39 19t34 52.5t14 81.5q0 78 -87 78q-28 0 -59.5 -9.5t-54 -20t-28.5 -13.5l-4 68q0 1 29.5 13zM281 871q26 0 43 -17q14 -19 14 -41q0 -37 -29 -63q-23 -18 -48 -18q-27 0 -43 18q-14 17 -14 41q0 17 7.5 33.5t20.5 29.5
q22 17 49 17zM466 871q25 0 44 -17q14 -19 14 -41q0 -37 -29 -63q-23 -18 -49 -18q-27 0 -42 18q-14 17 -14 41q0 17 7.5 33.5t20.5 29.5q22 17 48 17z" />
    <glyph glyph-name="uni04E0" unicode="&#x4e0;" horiz-adv-x="547" 
d="M494.5 334q27.5 -37 27.5 -92q0 -21 -3 -44q-8 -58 -46.5 -105.5t-99 -75.5t-131.5 -28q-78 0 -123 23t-62 48.5t-17 32.5l49 52q0 -4 16.5 -25t49 -39t80.5 -18q50 0 85 35.5t44 101.5q3 23 3 41q0 90 -71 90l-122 -8l11 77l70 -3l133 181h-246l10 72h418l-9 -60
l-163 -204q69 -15 96.5 -52z" />
    <glyph glyph-name="uni04E2" unicode="&#x4e2;" horiz-adv-x="676" 
d="M599 0h-138l58 420l17 72h-1l-317 -470l-11 -22h-130l91 650h138l-60 -431l-17 -65h2l319 474l12 22h128zM531 774h-215l8 58h214z" />
    <glyph glyph-name="uni04E4" unicode="&#x4e4;" horiz-adv-x="676" 
d="M599 0h-138l58 420l17 72h-1l-317 -470l-11 -22h-130l91 650h138l-60 -431l-17 -65h2l319 474l12 22h128zM343 871q26 0 43 -17q14 -19 14 -41q0 -37 -29 -63q-23 -18 -48 -18q-27 0 -43 18q-14 17 -14 41q0 17 7.5 33.5t20.5 29.5q22 17 49 17zM528 871q25 0 44 -17
q14 -19 14 -41q0 -37 -29 -63q-23 -18 -49 -18q-27 0 -42 18q-14 17 -14 41q0 17 7.5 33.5t20.5 29.5q22 17 48 17z" />
    <glyph glyph-name="uni04E6" unicode="&#x4e6;" horiz-adv-x="663" 
d="M632 180.5q-45 -91.5 -123 -141.5t-174 -50q-123 0 -191 72t-68 198q0 117 40 208t116.5 142t183.5 51q132 0 196.5 -75t64.5 -193q0 -120 -45 -211.5zM500 542.5q-30 45.5 -91 45.5q-187 0 -187 -363q0 -77 31 -121t89 -44q85 0 136.5 86t51.5 275q0 76 -30 121.5z
M367 871q26 0 43 -17q14 -19 14 -41q0 -37 -29 -63q-23 -18 -48 -18q-27 0 -43 18q-14 17 -14 41q0 17 7.5 33.5t20.5 29.5q22 17 49 17zM552 871q25 0 44 -17q14 -19 14 -41q0 -37 -29 -63q-23 -18 -49 -18q-27 0 -42 18q-14 17 -14 41q0 17 7.5 33.5t20.5 29.5
q22 17 48 17z" />
    <glyph glyph-name="uni04E8" unicode="&#x4e8;" horiz-adv-x="663" 
d="M612.5 585q64.5 -75 64.5 -193q0 -120 -45 -211.5t-123 -141.5t-174 -50q-123 0 -191 72t-68 198q0 117 40 208t116.5 142t183.5 51q132 0 196.5 -75zM229 356h299q2 40 2 65q0 76 -30 121.5t-91 45.5q-150 0 -180 -232zM458.5 116q47.5 56 63.5 178h-298q-2 -44 -2 -69
q0 -77 31 -121t89 -44q69 0 116.5 56z" />
    <glyph glyph-name="uni04EA" unicode="&#x4ea;" horiz-adv-x="663" 
d="M612.5 585q64.5 -75 64.5 -193q0 -120 -45 -211.5t-123 -141.5t-174 -50q-123 0 -191 72t-68 198q0 117 40 208t116.5 142t183.5 51q132 0 196.5 -75zM229 356h299q2 40 2 65q0 76 -30 121.5t-91 45.5q-150 0 -180 -232zM458.5 116q47.5 56 63.5 178h-298q-2 -44 -2 -69
q0 -77 31 -121t89 -44q69 0 116.5 56zM357 871q26 0 43 -17q14 -19 14 -41q0 -37 -29 -63q-23 -18 -48 -18q-27 0 -43 18q-14 17 -14 41q0 17 7.5 33.5t20.5 29.5q22 17 49 17zM542 871q25 0 44 -17q14 -19 14 -41q0 -37 -29 -63q-23 -18 -49 -18q-27 0 -42 18
q-14 17 -14 41q0 17 7.5 33.5t20.5 29.5q22 17 48 17z" />
    <glyph glyph-name="uni04EC" unicode="&#x4ec;" horiz-adv-x="564" 
d="M96 130.5q20 -24.5 54 -45t80 -20.5q74 0 123 52.5t68 172.5h-280l10 71h277q3 35 3 75q0 82 -36.5 116t-107.5 34q-33 0 -66 -10t-54.5 -20.5l-27.5 -13.5l-7 70q7 4 34 15.5t67 22t80 10.5q130 0 198.5 -69t68.5 -192q0 -119 -40.5 -212.5t-115.5 -145.5t-174 -52
q-74 0 -123.5 24t-74 52t-24.5 33l48 60q0 -3 20 -27.5zM287 871q26 0 43 -17q14 -19 14 -41q0 -37 -29 -63q-23 -18 -48 -18q-27 0 -43 18q-14 17 -14 41q0 17 7.5 33.5t20.5 29.5q22 17 49 17zM472 871q25 0 44 -17q14 -19 14 -41q0 -37 -29 -63q-23 -18 -49 -18
q-27 0 -42 18q-14 17 -14 41q0 17 7.5 33.5t20.5 29.5q22 17 48 17z" />
    <glyph glyph-name="uni04EE" unicode="&#x4ee;" horiz-adv-x="596" 
d="M573 650h93l-238 -450q-59 -112 -119 -161.5t-133 -49.5q-29 0 -50.5 5.5t-32.5 11.5t-13 8l28 84q2 -2 11.5 -7t27 -9.5t38.5 -4.5q38 0 67.5 14.5t59.5 54.5l-197 504h162l125 -362h2zM553 774h-215l8 58h214z" />
    <glyph glyph-name="uni04F0" unicode="&#x4f0;" horiz-adv-x="596" 
d="M573 650h93l-238 -450q-59 -112 -119 -161.5t-133 -49.5q-29 0 -50.5 5.5t-32.5 11.5t-13 8l28 84q2 -2 11.5 -7t27 -9.5t38.5 -4.5q38 0 67.5 14.5t59.5 54.5l-197 504h162l125 -362h2zM365 871q26 0 43 -17q14 -19 14 -41q0 -37 -29 -63q-23 -18 -48 -18q-27 0 -43 18
q-14 17 -14 41q0 17 7.5 33.5t20.5 29.5q22 17 49 17zM550 871q25 0 44 -17q14 -19 14 -41q0 -37 -29 -63q-23 -18 -49 -18q-27 0 -42 18q-14 17 -14 41q0 17 7.5 33.5t20.5 29.5q22 17 48 17z" />
    <glyph glyph-name="uni04F2" unicode="&#x4f2;" horiz-adv-x="596" 
d="M573 650h93l-238 -450q-59 -112 -119 -161.5t-133 -49.5q-29 0 -50.5 5.5t-32.5 11.5t-13 8l28 84q2 -2 11.5 -7t27 -9.5t38.5 -4.5q38 0 67.5 14.5t59.5 54.5l-197 504h162l125 -362h2zM393 888l89 -26l-116 -150l-47 23zM549 888l89 -26l-116 -150l-48 23z" />
    <glyph glyph-name="uni04F4" unicode="&#x4f4;" horiz-adv-x="586" 
d="M370 0l37 266q0 -2 -20 -12.5t-54.5 -19.5t-80.5 -9q-76 0 -110.5 39t-34.5 108q0 23 3 47l33 231h138l-30 -214q-5 -37 -5 -56q0 -42 16.5 -58.5t51.5 -16.5q52 0 102 25l45 320h139l-91 -650h-139zM313 871q26 0 43 -17q14 -19 14 -41q0 -37 -29 -63q-23 -18 -48 -18
q-27 0 -43 18q-14 17 -14 41q0 17 7.5 33.5t20.5 29.5q22 17 49 17zM498 871q25 0 44 -17q14 -19 14 -41q0 -37 -29 -63q-23 -18 -49 -18q-27 0 -42 18q-14 17 -14 41q0 17 7.5 33.5t20.5 29.5q22 17 48 17z" />
    <glyph glyph-name="uni04F6" unicode="&#x4f6;" horiz-adv-x="438" 
d="M512 578h-217l-70 -506h83l-63 -247h-75l2 175h-95l92 650h349z" />
    <glyph glyph-name="uni04F8" unicode="&#x4f8;" horiz-adv-x="805" 
d="M306 650l-35 -249h47q231 0 231 -161q0 -109 -72.5 -174.5t-210.5 -65.5h-189l91 650h138zM728 0h-138l91 650h138zM224 65h48q64 0 100 47.5t36 137.5q0 47 -25 67.5t-74 20.5h-47zM428 871q26 0 43 -17q14 -19 14 -41q0 -37 -29 -63q-23 -18 -48 -18q-27 0 -43 18
q-14 17 -14 41q0 17 7.5 33.5t20.5 29.5q22 17 49 17zM613 871q25 0 44 -17q14 -19 14 -41q0 -37 -29 -63q-23 -18 -49 -18q-27 0 -42 18q-14 17 -14 41q0 17 7.5 33.5t20.5 29.5q22 17 48 17z" />
    <glyph glyph-name="uni04FA" unicode="&#x4fa;" horiz-adv-x="506" 
d="M105 -175q-13 5 -14 5l10 57q3 -1 14 -2.5t25 -1.5q30 0 50 23t29 86l2 8h-118l38 268h-87l10 70h87l44 312h395l-10 -72h-257l-34 -240h172l-10 -70h-172l-28 -196h81l-9 -63q-14 -99 -62 -144t-118 -45q-25 0 -38 5z" />
    <glyph glyph-name="uni04FC" unicode="&#x4fc;" horiz-adv-x="548" 
d="M393.5 -140.5q15.5 22.5 15.5 59.5t-25 111t-89 218h-3l-182 -248h-104l247 316l-145 334h173l86 -233h3l173 233h98l-233 -300q77 -156 104 -228t27 -114q0 -10 -2 -28q-7 -51 -36 -99t-103 -96l-40 41q20 11 35.5 33.5z" />
    <glyph glyph-name="uni04FE" unicode="&#x4fe;" horiz-adv-x="580" 
d="M121 368h110l-123 282h173l87 -233h3l172 233h98l-219 -282h129l-10 -68h-110l141 -300h-172l-104 248h-3l-182 -248h-104l234 300h-130z" />
    <glyph glyph-name="uni0510" unicode="&#x510;" horiz-adv-x="551" 
d="M133.5 29q-52.5 40 -52.5 113q0 9 2 31q10 67 50 107.5t97 54.5q-40 20 -62.5 48t-22.5 73q0 8 2 26q12 79 75.5 128.5t165.5 49.5q42 0 80.5 -10t65.5 -22t27 -13l-22 -68l-26.5 13.5t-50 20t-57.5 9.5q-50 0 -76.5 -27.5t-35.5 -87.5q-3 -21 -3 -37q0 -42 15 -60
t38 -19l106 9l-11 -77l-95 8q-42 0 -68.5 -29.5t-35.5 -94.5q-2 -11 -2 -30q0 -46 24.5 -64t70.5 -18q48 0 86 18t60.5 39.5t22.5 24.5l35 -52q-34 -36 -94 -70t-157 -34q-99 0 -151.5 40z" />
    <glyph glyph-name="uni0512" unicode="&#x512;" horiz-adv-x="628" 
d="M265.5 -206q-27.5 9 -39 19.5t-11.5 12.5l39 58q1 -2 8.5 -9t22 -13t34.5 -6q38 0 60.5 32.5t34.5 121.5l81 568h-138q-43 -295 -114.5 -441.5t-165.5 -146.5q-24 0 -38.5 3.5t-14.5 4.5l17 88q3 -1 12 -3t18 -2q70 0 122 133t96 436h355l-92 -640q-17 -124 -69 -174.5
t-145 -50.5q-45 0 -72.5 9z" />
    <glyph glyph-name="uni051A" unicode="&#x51a;" horiz-adv-x="663" 
d="M643.5 206.5q-33.5 -82.5 -93.5 -136t-136 -71.5q43 -131 115 -131q16 0 32 6l-2 -61q-33 -11 -61 -11q-73 0 -131.5 55t-81.5 136q-101 13 -155 83t-54 183q0 117 40 208t116.5 142t183.5 51q132 0 196.5 -75t64.5 -193q0 -103 -33.5 -185.5zM500 542.5
q-30 45.5 -91 45.5q-187 0 -187 -363q0 -77 31 -121t89 -44q85 0 136.5 86t51.5 275q0 76 -30 121.5z" />
    <glyph glyph-name="uni051C" unicode="&#x51c;" horiz-adv-x="873" 
d="M954 650l-261 -650h-118l-69 480h-3l-201 -480h-120l-82 650h147l51 -492h2l202 492h111l69 -489h2l182 489h88z" />
    <glyph glyph-name="uni048C" unicode="&#x48c;" horiz-adv-x="565" 
d="M332 401q111 0 170.5 -39.5t59.5 -118.5q0 -16 -3 -34q-14 -100 -85 -154.5t-195 -54.5h-189l70 493h-105l10 72h105l12 85h138l-12 -85h110l-10 -72h-110l-13 -92h47zM285 65q59 0 90 32.5t41 107.5q3 24 3 42q0 50 -23 70.5t-73 20.5h-47l-39 -273h48z" />
    <glyph glyph-name="uni048E" unicode="&#x48e;" horiz-adv-x="531" 
d="M168 650h199q99 0 152.5 -44t53.5 -131q0 -21 -3 -45q-11 -74 -48.5 -123.5t-93.5 -76.5l35 -79l-63 -33l-40 90q-30 -5 -53 -5h-64l-29 -203h-138zM390 319q19 33 30 105q5 40 5 62q0 54 -20 76.5t-60 22.5h-48l-45 -318h48q20 0 33 4l-37 87l63 34z" />
    <glyph glyph-name="uni0414.loclBGR" horiz-adv-x="657" 
d="M463 650l66 -578h81l-59 -247h-78l3 175h-367l-65 -175h-69l24 247h66l245 578h153zM150 72h235l-42 477h-3z" />
    <glyph glyph-name="uni041B.loclBGR" horiz-adv-x="608" 
d="M357 551h-1l-253 -551h-84l307 650h153l111 -650h-146z" />
    <glyph glyph-name="uni0424.loclBGR" horiz-adv-x="768" 
d="M275 7q-118 10 -184.5 72.5t-66.5 172.5q0 30 4 57q19 136 107.5 212t224.5 87l9 61h138l-9 -61q118 -10 185.5 -72t67.5 -172q0 -29 -4 -54q-20 -136 -109.5 -214t-224.5 -89l-14 -95h-138zM233.5 479.5q-43.5 -56.5 -59.5 -170.5q-6 -42 -6 -77q0 -75 29 -114.5
t86 -48.5l69 478q-75 -11 -118.5 -67.5zM540 138q44 57 60 172q6 41 6 74q0 75 -29 114.5t-87 48.5l-69 -478q75 12 119 69z" />
    <glyph glyph-name="uni0492.loclBSH" horiz-adv-x="488" 
d="M31 0l92 650h395l-10 -72h-257l-34 -240h224l-10 -70h-224l-38 -268h-138z" />
    <glyph glyph-name="uni04AA.loclBSH" horiz-adv-x="576" 
d="M281.5 503q-56.5 -82 -56.5 -261q0 -91 39.5 -134.5t110.5 -43.5q48 0 85.5 20t61 43t23.5 26l36 -48q0 -4 -24.5 -31t-70 -52t-109.5 -31q31 -54 31 -107q0 -43 -23.5 -80.5t-65.5 -37.5q-27 0 -43 17.5t-16 42.5q0 32 27 52t60 21q1 25 -7 47t-24 44q-116 8 -178 78
t-62 188q0 117 43 208.5t121.5 143.5t183.5 52q46 0 88.5 -12t72 -27t29.5 -16l-21 -73q-7 4 -32 16.5t-61 24.5t-69 12q-93 0 -149.5 -82z" />
    <glyph glyph-name="uni04AA.loclCHU" horiz-adv-x="576" 
d="M281.5 503q-56.5 -82 -56.5 -261q0 -91 39.5 -134.5t110.5 -43.5q48 0 85.5 20t61 43t23.5 26l36 -48q0 -5 -27.5 -34t-79 -55t-123.5 -27l-10 -46q0 -1 20.5 -9t38 -25t17.5 -47q0 -49 -33.5 -80.5t-96.5 -31.5q-33 0 -52.5 10t-28 21.5t-8.5 14.5l30 29q1 -2 6.5 -9
t16.5 -13.5t27 -6.5q60 0 60 63q0 20 -13.5 28.5t-27 11.5t-13.5 4l23 88q-111 10 -171 80t-60 185q0 117 43 208.5t121.5 143.5t183.5 52q46 0 88.5 -12t72 -27t29.5 -16l-21 -73q-7 4 -32 16.5t-61 24.5t-69 12q-93 0 -149.5 -82z" />
    <glyph glyph-name="uni0423.ss01" horiz-adv-x="855" 
d="M662 291h2l168 359h93l-238 -459q-21 -79 -61 -147.5t-101.5 -112t-139.5 -43.5q-57 0 -97.5 24t-60.5 62.5t-20 83.5q0 38 15 74.5t44 62.5l57 -25q-20 -17 -30 -42t-10 -51q0 -48 32 -83.5t88 -35.5q118 0 185 152l-187 473q-70 -10 -122 -42t-79.5 -78.5t-27.5 -100.5
q0 -28 7 -53l-77 -20q-9 33 -9 66q0 78 45.5 145.5t123.5 108t173 41.5q26 0 55 4t49 11l6 -41z" />
    <glyph glyph-name="uni0410.swsh" horiz-adv-x="752" 
d="M733 0h-146l-22 182h-223q-73 -152 -137 -217.5t-138 -84.5l-30 66q58 17 114.5 73t122.5 191l184 374q-97 -6 -164 -37.5t-101 -80.5t-34 -106q0 -21 7 -51l-77 -20q-9 35 -9 68q0 80 49 146t142 106t219 41h30q81 2 112 15l3 -57zM519 551l-147 -306h185l-36 306h-2z
" />
    <glyph glyph-name="uni0411.swsh" horiz-adv-x="793" 
d="M536 578l-25 -177h43q112 0 173 -42t61 -124q0 -108 -74.5 -171.5t-212.5 -63.5h-185l1 4l70 496q7 51 30 86h-1q-74 0 -129 -30t-84 -80t-29 -109q0 -31 7 -58l-77 -20q-10 34 -10 73q0 78 42 143.5t117.5 105t171.5 39.5h347l-10 -72h-226zM464 65h44q68 0 103.5 40.5
t35.5 142.5q0 49 -25.5 69.5t-76.5 20.5h-43z" />
    <glyph glyph-name="uni0412.swsh" horiz-adv-x="825" 
d="M778 606.5q52 -43.5 52 -107.5q0 -58 -33 -97.5t-84 -63.5q48 -16 76 -50t28 -82q0 -59 -32 -105.5t-95 -73.5t-154 -27h-214q17 68 33 166.5t55 375.5q4 30 7 44h-1q-76 0 -131.5 -27.5t-85 -74.5t-29.5 -103q0 -35 12 -71l-67 -31q-19 48 -19 98q0 74 41 136.5
t116 99.5t172 37h7q19 56 47 73l104 -14q-9 -25 -18 -59h57q104 0 156 -43.5zM605 361q19 0 40 13.5t35.5 44.5t14.5 78q0 45 -23 66.5t-62 21.5h-56l-6 -44l-27 -180h84zM467 65h75q63 0 100 39t37 115q0 82 -76 82h-92q-29 -170 -44 -236z" />
    <glyph glyph-name="uni0413.swsh" horiz-adv-x="677" 
d="M536 578l-51 -364q-12 -85 -40 -134t-73.5 -70t-113.5 -21q-24 0 -43.5 3.5t-29.5 7.5t-13 5l28 65q0 -1 15 -5.5t35 -4.5q38 0 60.5 32.5t35.5 121.5l41 286q6 48 30 86h-1q-74 0 -129 -30t-84 -80t-29 -109q0 -31 7 -58l-77 -20q-10 42 -10 73q0 78 42 144t118 105
t172 39h343l-10 -72h-223z" />
    <glyph glyph-name="uni0403.swsh" horiz-adv-x="677" 
d="M623 834l-139 -130l-56 9l91 152zM536 578l-51 -364q-12 -85 -40 -134t-73.5 -70t-113.5 -21q-24 0 -43.5 3.5t-29.5 7.5t-13 5l28 65q0 -1 15 -5.5t35 -4.5q38 0 60.5 32.5t35.5 121.5l41 286q6 48 30 86h-1q-74 0 -129 -30t-84 -80t-29 -109q0 -31 7 -58l-77 -20
q-10 42 -10 73q0 78 42 144t118 105t172 39h343l-10 -72h-223z" />
    <glyph glyph-name="uni0490.swsh" horiz-adv-x="659" 
d="M445 80q-28 -49 -73.5 -70t-113.5 -21q-24 0 -43.5 3.5t-29.5 7.5t-13 5l28 65q0 -1 15 -5.5t35 -4.5q38 0 60.5 32.5t35.5 121.5l41 286q6 48 30 86h-1q-74 0 -129 -30t-84 -80t-29 -109q0 -31 7 -58l-77 -20q-10 34 -10 73q0 78 42 143.5t117.5 105t171.5 39.5h223
l42 100h67l-18 -176h-204l-50 -360q-12 -85 -40 -134z" />
    <glyph glyph-name="uni0414.swsh" horiz-adv-x="771" 
d="M622 -175l2 175h-356l-65 -175h-69l24 247h69q60 90 101 205t72 308q-69 -3 -120.5 -33.5t-78.5 -79t-27 -105.5q0 -31 7 -58l-77 -20q-10 42 -10 73q0 78 42 144t117.5 105t171.5 39h334l-82 -578h81l-59 -247h-77zM409.5 278q-41.5 -115 -100.5 -206h230l71 506h-130
q-29 -185 -70.5 -300z" />
    <glyph glyph-name="uni0415.swsh" horiz-adv-x="562" 
d="M315 227q-35 -4 -60.5 -42t-25.5 -128q0 -52 25.5 -74t77.5 -22q44 0 80 16.5t58.5 36t22.5 21.5l31 -50q0 -4 -27 -28.5t-78 -46t-124 -21.5q-95 0 -148.5 42.5t-53.5 125.5q0 79 37.5 128t93.5 74q-47 18 -77.5 56t-30.5 99q0 70 33 126t98 88t157 32q76 0 127 -21
t75.5 -55.5t24.5 -75.5q0 -34 -16 -67t-45 -59l-56 28q18 16 27.5 37.5t9.5 43.5q0 42 -34.5 70.5t-100.5 28.5q-84 0 -122 -45t-38 -148q0 -48 17 -74t45 -29l130 4l-10 -74z" />
    <glyph glyph-name="uni0400.swsh" horiz-adv-x="562" 
d="M419 873l64 -147l-64 -17l-111 129zM315 227q-35 -4 -60.5 -42t-25.5 -128q0 -52 25.5 -74t77.5 -22q44 0 80 16.5t58.5 36t22.5 21.5l31 -50q0 -4 -27 -28.5t-78 -46t-124 -21.5q-95 0 -148.5 42.5t-53.5 125.5q0 79 37.5 128t93.5 74q-47 18 -77.5 56t-30.5 99
q0 70 33 126t98 88t157 32q76 0 127 -21t75.5 -55.5t24.5 -75.5q0 -34 -16 -67t-45 -59l-56 28q18 16 27.5 37.5t9.5 43.5q0 42 -34.5 70.5t-100.5 28.5q-84 0 -122 -45t-38 -148q0 -48 17 -74t45 -29l130 4l-10 -74z" />
    <glyph glyph-name="uni0401.swsh" horiz-adv-x="562" 
d="M342 856q26 0 43 -17q14 -19 14 -41q0 -37 -29 -63q-22 -18 -48 -18q-27 0 -43 18q-14 17 -14 41q0 17 7.5 33.5t20.5 29.5q22 17 49 17zM527 856q25 0 44 -17q14 -19 14 -41q0 -37 -29 -63q-22 -18 -49 -18t-42 18q-14 17 -14 41q0 17 7.5 33.5t20.5 29.5q22 17 48 17z
M315 227q-35 -4 -60.5 -42t-25.5 -128q0 -52 25.5 -74t77.5 -22q44 0 80 16.5t58.5 36t22.5 21.5l31 -50q0 -4 -27 -28.5t-78 -46t-124 -21.5q-95 0 -148.5 42.5t-53.5 125.5q0 79 37.5 128t93.5 74q-47 18 -77.5 56t-30.5 99q0 70 33 126t98 88t157 32q76 0 127 -21
t75.5 -55.5t24.5 -75.5q0 -34 -16 -67t-45 -59l-56 28q18 16 27.5 37.5t9.5 43.5q0 42 -34.5 70.5t-100.5 28.5q-84 0 -122 -45t-38 -148q0 -48 17 -74t45 -29l130 4l-10 -74z" />
    <glyph glyph-name="uni0416.swsh" horiz-adv-x="1183" 
d="M596 404h88l35 246h139l-35 -246h78l191 246h99l-214 -253l133 -284q38 -82 69.5 -119t66.5 -37q14 0 29 6t15 7l7 -49q-3 -2 -15.5 -9.5t-36 -14t-53.5 -6.5q-78 0 -133.5 33t-85.5 115l-112 293h-48l-47 -332h-138l46 331h-57l-177 -331h-162l241 380l-92 206h-11
q-74 -3 -129.5 -33.5t-85 -80t-29.5 -107.5q0 -29 7 -56l-76 -20q-9 36 -9 70q0 75 40.5 140.5t110.5 105.5t154 44v1h23q38 1 76 15l3 -24z" />
    <glyph glyph-name="uni0417.swsh" horiz-adv-x="585" 
d="M359 309q18 1 37.5 24t32.5 65.5t13 97.5q0 45 -21.5 69.5t-63.5 24.5q-46 0 -80.5 -17.5t-52.5 -45.5t-18 -59t17 -55l-61 -29q-30 39 -30 83q0 48 32 92.5t88 72.5t123 28q102 0 157.5 -46.5t55.5 -118.5q0 -70 -41.5 -123t-99.5 -85q55 -14 87.5 -51.5t32.5 -98.5
q0 -62 -35.5 -119t-103 -93t-160.5 -36q-76 0 -127 22t-75.5 58.5t-24.5 79.5q0 35 15.5 68.5t43.5 59.5l57 -25q-17 -16 -26.5 -38t-9.5 -45q0 -44 35 -75.5t102 -31.5q77 0 116.5 50.5t39.5 141.5q0 44 -18 69t-50 25h-4l-97 -7l11 77z" />
    <glyph glyph-name="uni0418.swsh" horiz-adv-x="915" 
d="M700 0l59 420l17 72h-2l-317 -470l-11 -22h-130l60 425l11 75q6 48 30 86h-1q-74 0 -129 -30t-84 -80t-29 -109q0 -31 7 -58l-77 -20q-10 42 -10 73q0 78 42 144t118 105t172 39h120l-60 -431l-17 -65h2l318 474l12 22h128l-91 -650h-138z" />
    <glyph glyph-name="uni0419.swsh" horiz-adv-x="915" 
d="M741 773q14 14 14 32q0 5 -1 8.5t-1 4.5l2 12l102 -9q0 -11 -12 -39.5t-51 -56t-113 -27.5q-83 0 -112 33t-29 72q0 7 0.5 12t0.5 6l104 9l-2 -12q-1 -2 -4 -9.5t-3 -15.5q0 -34 54 -34q37 0 51 14zM700 0l59 420l17 72h-2l-317 -470l-11 -22h-130l60 425l11 75
q6 48 30 86h-1q-74 0 -129 -30t-84 -80t-29 -109q0 -31 7 -58l-77 -20q-10 42 -10 73q0 78 42 144t118 105t172 39h120l-60 -431l-17 -65h2l318 474l12 22h128l-91 -650h-138z" />
    <glyph glyph-name="uni040D.swsh" horiz-adv-x="915" 
d="M663 873l64 -147l-64 -17l-111 129zM700 0l59 420l17 72h-2l-317 -470l-11 -22h-130l60 425l11 75q6 48 30 86h-1q-74 0 -129 -30t-84 -80t-29 -109q0 -31 7 -58l-77 -20q-10 42 -10 73q0 78 42 144t118 105t172 39h120l-60 -431l-17 -65h2l318 474l12 22h128l-91 -650
h-138z" />
    <glyph glyph-name="uni041A.swsh" horiz-adv-x="905" 
d="M569 393l227 257h96l-246 -267l154 -295q64 -133 142 -133q18 0 33.5 6t15.5 7l6 -49q-3 -2 -15.5 -9.5t-35.5 -14t-53 -6.5q-154 0 -224 146l-132 257l-45 -29l-37 -263h-138l70 500q7 51 30 86h-1q-74 0 -129 -30t-84 -80t-29 -109q0 -31 7 -58l-77 -20q-10 42 -10 73
q0 78 42 144t118 105t172 39h120l-42 -301z" />
    <glyph glyph-name="uni040C.swsh" horiz-adv-x="905" 
d="M788 834l-139 -130l-56 9l91 152zM569 393l227 257h96l-246 -267l154 -295q64 -133 142 -133q18 0 33.5 6t15.5 7l6 -49q-3 -2 -15.5 -9.5t-35.5 -14t-53 -6.5q-154 0 -224 146l-132 257l-45 -29l-37 -263h-138l70 500q7 51 30 86h-1q-74 0 -129 -30t-84 -80t-29 -109
q0 -31 7 -58l-77 -20q-10 42 -10 73q0 78 42 144t118 105t172 39h120l-42 -301z" />
    <glyph glyph-name="uni041B.swsh" horiz-adv-x="729" 
d="M514 0l81 578h-112q-37 -256 -99 -411.5t-131.5 -220.5t-137.5 -65q-24 0 -38 3t-14 4l17 84q2 -1 10.5 -3t18.5 -2q50 0 102.5 54.5t104 192t88.5 372.5q-70 0 -122.5 -29.5t-80.5 -79.5t-28 -108q0 -28 8 -60l-77 -20q-10 36 -10 74q0 77 40.5 143t113.5 105t165 39
h331l-92 -650h-138z" />
    <glyph glyph-name="uni041C.swsh" horiz-adv-x="1156" 
d="M944 0l61 492h-2l-259 -492h-103l-103 492h-5l-53 -362q-32 -218 -178 -252l-3 72q68 22 93 180l71 454q-94 -7 -159.5 -39t-98.5 -80t-33 -105q0 -21 7 -51l-76 -20q-9 35 -9 69q0 80 48.5 146t140 105.5t214.5 39.5v1h51q64 3 98 15l2 -37l100 -457h5l255 479h155
l-84 -650h-135z" />
    <glyph glyph-name="uni041D.swsh" horiz-adv-x="894" 
d="M730 366l25 176q11 77 27.5 121.5t41.5 59.5l105 -14q-14 -36 -19.5 -65.5t-16.5 -102.5l-76 -541h-138l41 296h-224l-11 -82q-12 -85 -40 -134t-73.5 -70t-113.5 -21q-24 0 -43.5 3.5t-29.5 7.5t-13 5l28 65q0 -1 15 -5.5t35 -4.5q38 0 60.5 32.5t35.5 121.5l41 286
q6 48 30 86h-1q-74 0 -129 -30t-84 -80t-29 -109q0 -31 7 -58l-77 -20q-10 42 -10 73q0 78 42 144t118 105t172 39h120l-40 -284h224z" />
    </font>
</defs>
</svg>
